<svg xmlns="http://www.w3.org/2000/svg" xmlns:xlink="http://www.w3.org/1999/xlink" width="71.625" height="71.625" viewBox="0 0 71.625 71.625">
  <defs>
    <clipPath id="clip-path">
      <rect id="Rect치ngulo_401242" data-name="Rect치ngulo 401242" width="36.968" height="35.598" fill="#201144"/>
    </clipPath>
  </defs>
  <g id="Grupo_1107963" data-name="Grupo 1107963" transform="translate(-326.781 -3976)">
    <g id="Grupo_1099174" data-name="Grupo 1099174" transform="translate(326.781 3976)">
      <g id="Grupo_1099167" data-name="Grupo 1099167" transform="translate(0 0)">
        <path id="Trazado_873000" data-name="Trazado 873000" d="M35.812,0h0V16.637A19.175,19.175,0,1,0,54.988,35.812H71.625A35.813,35.813,0,1,1,35.812,0" transform="translate(0 71.625) rotate(-90)" fill="#201144"/>
      </g>
      <rect id="Rect치ngulo_401249" data-name="Rect치ngulo 401249" width="49.157" height="49.157" rx="24.579" transform="translate(11.219 11.219)" fill="#e8faf9"/>
    </g>
    <g id="Grupo_1099175" data-name="Grupo 1099175" transform="translate(344.766 3992.502)">
      <g id="Grupo_1099154" data-name="Grupo 1099154">
        <g id="Grupo_1099153" data-name="Grupo 1099153" clip-path="url(#clip-path)">
          <path id="Trazado_873092" data-name="Trazado 873092" d="M168.33,150.386a2.07,2.07,0,0,0-.208-.1,2.02,2.02,0,0,0-1.337-.1,2.062,2.062,0,0,0-.285.1,2.02,2.02,0,0,0-.951.85,2.072,2.072,0,0,0-.115.233,2.034,2.034,0,1,0,2.9-.979m-1.494,2.588-.041-.027a.953.953,0,0,1,.271-1.718.957.957,0,0,1,.248-.033.945.945,0,0,1,.431.1l.044.023c.022.013.042.027.063.041a.952.952,0,0,1-1.015,1.609" transform="translate(-156.326 -141.984)" fill="#201144"/>
          <path id="Trazado_873093" data-name="Trazado 873093" d="M152.88,539.424H155.4a.542.542,0,1,0,0-1.083H152.88a.542.542,0,1,0,0,1.083" transform="translate(-144.088 -509.188)" fill="#201144"/>
          <path id="Trazado_873094" data-name="Trazado 873094" d="M160.018,571.553H152.88a.542.542,0,1,0,0,1.083h7.138a.542.542,0,1,0,0-1.083" transform="translate(-144.088 -540.602)" fill="#201144"/>
          <path id="Trazado_873095" data-name="Trazado 873095" d="M33.965,22.373V16.489a1.867,1.867,0,0,0-1.11-1.7l.229-.4a1.548,1.548,0,0,0-.566-2.114h0l-1.153-.666V6.639A1.867,1.867,0,0,0,29.5,4.774H21.47a1.864,1.864,0,0,0-1.193.432l-8.656-5A1.55,1.55,0,0,0,9.507.775L5.162,8.3h-3.3A1.867,1.867,0,0,0,0,10.164V26.223a.542.542,0,1,0,1.083,0V10.164a.783.783,0,0,1,.782-.782H4.537l-2.424,4.2a1.548,1.548,0,0,0,.566,2.114l2.463,1.422V31.564A2.019,2.019,0,0,1,3.126,33.58H3.1a2.019,2.019,0,0,1-2.017-2.017V28.629a.542.542,0,0,0-1.083,0v2.935a3.1,3.1,0,0,0,3.1,3.1H26.072a7.317,7.317,0,0,0,7.894-12.29m-.449,10.8a6.205,6.205,0,0,1-3.867,1.348c-.175,0-.349-.008-.52-.022a6.242,6.242,0,0,1-5.716-6.214c0-.2.01-.4.029-.6s.046-.388.083-.577h0q.054-.279.131-.549a6.184,6.184,0,0,1,.371-.971A6.276,6.276,0,0,1,27.1,22.59a6.194,6.194,0,0,1,.795-.294h0a6.181,6.181,0,0,1,.721-.166q.255-.043.516-.065c.171-.014.344-.022.519-.022a6.272,6.272,0,0,1,.633.032c.186.019.369.046.549.081s.359.077.534.127a6.209,6.209,0,0,1,2.059,1.036h0a6.229,6.229,0,0,1,.092,9.849M5.478,33.58a3.086,3.086,0,0,0,.748-2.017V16.489a.783.783,0,0,1,.782-.782H23.216a.542.542,0,0,0,0-1.083h-.855a4.8,4.8,0,0,0-6.006-5.282c-.046.012-.09.026-.135.04a4.8,4.8,0,0,0-3.383,5.242H10.171a.54.54,0,0,0-.258-.356L7.457,12.851a.542.542,0,0,0-.542.938l1.447.835H7.016l-1.449-.836L8.111,9.382,8.736,8.3l2.677-4.637,1.036.6L11.382,6.11a.839.839,0,0,0,.306,1.145h0l1.468.847A.838.838,0,0,0,14.3,7.8l1.068-1.85,2.478,1.431a.543.543,0,0,0,.74-.2h0a.544.544,0,0,0-.2-.74l-2.946-1.7h0L13.46,3.594h0L11.486,2.454a.542.542,0,0,0-.74.2L7.486,8.3,6.86,9.382l-2.5,4.333a.541.541,0,0,0,.2.74l1.173.677a1.869,1.869,0,0,0-.5.785L3.221,14.757a.464.464,0,0,1-.17-.635l2.737-4.74L6.413,8.3l4.032-6.983a.465.465,0,0,1,.635-.17l8.452,4.88.956.552,1.531.884.786.454.938.542,2.868,1.656.419.242.846.488h0l.536.309,1.871,1.08.425.246.658.38.611.353h0a.464.464,0,0,1,.17.635l-.45.779H30.624l.215-.372a.541.541,0,0,0-.2-.74l-.3-.173-.06-.034-3.235-1.868-.937-.541h0l-.055-.032-.883-.51L22.258,8.673l-.484-.28L21.3,8.122l-.83-.479a.542.542,0,0,0-.74.2h0a.541.541,0,0,0,.2.74l1.243.717.542.313.541.313.748.432.938.542.938.542,3.528,2.037,1.221.705-.257.444h-.822a.54.54,0,0,0-.27-.445l-.209-.121-2.246-1.3a.542.542,0,1,0-.542.938l1.6.925H25.622a.542.542,0,0,0,0,1.083H32.1a.785.785,0,0,1,.782.782v5.226a7.265,7.265,0,0,0-1.517-.55q-.263-.064-.534-.108t-.549-.068c-.209-.018-.42-.028-.633-.028q-.184,0-.365.009c-.223.011-.444.033-.662.063h0q-.357.05-.7.135a7.288,7.288,0,0,0-2.266.983h0a7.359,7.359,0,0,0-.7.517q-.25.209-.481.439a7.373,7.373,0,0,0-.893,1.082q-.152.224-.287.46h0q-.135.235-.252.48a7.267,7.267,0,0,0-.35.871q-.032.1-.06.193-.051.17-.093.344h0q-.068.276-.114.559a7.311,7.311,0,0,0,2.18,6.485ZM14.431,5.4l-.945,1.637-1.043-.6L13.388,4.8h0l1.043.6Zm-.056,6.718a3.7,3.7,0,0,1,2.26-1.734,3.742,3.742,0,0,1,.969-.128,3.7,3.7,0,0,1,1.855.5q.083.048.163.1a3.73,3.73,0,0,1,1.643,3.764H18.829a1.449,1.449,0,0,0-.7-1l-.477-.275a.369.369,0,0,1,.369-.639l.477.275a.369.369,0,0,1,.182.365.542.542,0,1,0,1.075.133,1.449,1.449,0,0,0-.5-1.282l.038-.065a.542.542,0,0,0-.938-.542l-.037.065a1.452,1.452,0,0,0-1.209,2.627l.477.275a.367.367,0,0,1,.082.065H16.554a.541.541,0,0,0-1.079,0H13.932a3.694,3.694,0,0,1,.443-2.5m12.2-3.666h1.02a.233.233,0,0,1,.233.233v.875l-1.217-.7-.7-.405Zm-5.1-2.6H29.5a.783.783,0,0,1,.782.782v4.344l-1.373-.793q0-.033,0-.067V8.69a1.317,1.317,0,0,0-1.316-1.316H24.032L21.41,5.86c.02,0,.04,0,.06,0" transform="translate(0 -0.001)" fill="#201144"/>
          <path id="Trazado_873096" data-name="Trazado 873096" d="M516.232,467.6a1.561,1.561,0,0,0,.534-.633,1.546,1.546,0,0,0,0-1.3,1.562,1.562,0,0,0-.534-.633,1.549,1.549,0,0,0-.876-.272h-.612a.469.469,0,1,1,0-.939h.612a.479.479,0,0,1,.389.207.542.542,0,0,0,.9-.606,1.552,1.552,0,0,0-.96-.649l-.091-.017v-.214a.542.542,0,1,0-1.083,0v.213a1.553,1.553,0,0,0,.236,3.087h.612a.469.469,0,0,1,0,.939h-.612a.469.469,0,0,1-.433-.287.542.542,0,0,0-1,.422,1.55,1.55,0,0,0,1.195.93v.133a.542.542,0,1,0,1.083,0v-.133c.031,0,.061-.011.091-.017a1.544,1.544,0,0,0,.549-.237" transform="translate(-485.401 -436.988)" fill="#201144"/>
          <path id="Trazado_873097" data-name="Trazado 873097" d="M459.14,426.388h0a5.293,5.293,0,0,0-1.941-1.265l-.118-.042a5.2,5.2,0,0,0-1.083-.249,5.247,5.247,0,0,0-3.176.617h0a5.3,5.3,0,0,0-2.527,3.164,5.226,5.226,0,0,0-.134.6h0a5.271,5.271,0,0,0-.061.546c-.006.1-.01.208-.01.314a5.281,5.281,0,0,0,5.275,5.275c.079,0,.158,0,.236-.006q.2-.009.4-.033a5.236,5.236,0,0,0,1.083-.249l.118-.042a5.3,5.3,0,0,0,1.9-1.226h0a5.312,5.312,0,0,0,.579-.69,5.264,5.264,0,0,0,0-6.059,5.313,5.313,0,0,0-.541-.651m-3.775,7.873a4.192,4.192,0,0,1,0-8.385l.067,0a4.2,4.2,0,0,1,.566.046,4.209,4.209,0,0,1,1.083.321,4.209,4.209,0,0,1,2.059,2h0a4.2,4.2,0,0,1,0,3.645h0a4.209,4.209,0,0,1-2.059,2,4.143,4.143,0,0,1-1.083.321,4.207,4.207,0,0,1-.567.046l-.066,0" transform="translate(-425.715 -401.789)" fill="#201144"/>
        </g>
      </g>
    </g>
  </g>
</svg>
