<svg xmlns="http://www.w3.org/2000/svg" xmlns:xlink="http://www.w3.org/1999/xlink" width="83" height="83" viewBox="0 0 83 83">
  <defs>
    <clipPath id="clip-path">
      <rect id="Rect치ngulo_401242" data-name="Rect치ngulo 401242" width="70.595" height="67.979" fill="#201144"/>
    </clipPath>
  </defs>
  <g id="Grupo_1107949" data-name="Grupo 1107949" transform="translate(-764.781 -2279)">
    <g id="Grupo_1099155" data-name="Grupo 1099155" transform="translate(133.588 332.788)">
      <g id="Grupo_1099154" data-name="Grupo 1099154" transform="translate(637.781 1954)">
        <g id="Grupo_1099153" data-name="Grupo 1099153" clip-path="url(#clip-path)">
          <path id="Trazado_873092" data-name="Trazado 873092" d="M171.108,150.635a3.954,3.954,0,0,0-.4-.2,3.858,3.858,0,0,0-2.552-.189,3.94,3.94,0,0,0-.543.189,3.858,3.858,0,0,0-1.817,1.622,3.957,3.957,0,0,0-.22.446,3.884,3.884,0,1,0,5.53-1.869m-2.853,4.941c-.027-.016-.053-.034-.079-.051a1.819,1.819,0,0,1,.517-3.281,1.831,1.831,0,0,1,.474-.063,1.8,1.8,0,0,1,.822.2c.028.014.056.029.084.045s.081.051.12.078a1.818,1.818,0,0,1-1.939,3.072" transform="translate(-148.185 -134.59)" fill="#201144"/>
          <path id="Trazado_873093" data-name="Trazado 873093" d="M153.372,540.409h4.807a1.034,1.034,0,1,0,0-2.068h-4.807a1.034,1.034,0,0,0,0,2.068" transform="translate(-136.585 -482.671)" fill="#201144"/>
          <path id="Trazado_873094" data-name="Trazado 873094" d="M167,571.553H153.372a1.034,1.034,0,1,0,0,2.068H167a1.034,1.034,0,1,0,0-2.068" transform="translate(-136.585 -512.449)" fill="#201144"/>
          <path id="Trazado_873095" data-name="Trazado 873095" d="M64.86,42.723V31.487a3.565,3.565,0,0,0-2.12-3.255l.438-.759A2.956,2.956,0,0,0,62.1,23.436h0l-2.2-1.271V12.676a3.565,3.565,0,0,0-3.561-3.561H41a3.56,3.56,0,0,0-2.279.825L22.191.4a2.959,2.959,0,0,0-4.037,1.082l-8.3,14.369h-6.3A3.565,3.565,0,0,0,0,19.408V50.074a1.034,1.034,0,0,0,2.068,0V19.408a1.5,1.5,0,0,1,1.493-1.493h5.1L4.035,25.933A2.955,2.955,0,0,0,5.117,29.97l4.7,2.715V60.273a3.855,3.855,0,0,1-3.851,3.851h-.05a3.855,3.855,0,0,1-3.851-3.851v-5.6a1.034,1.034,0,0,0-2.068,0v5.6a5.926,5.926,0,0,0,5.919,5.919H49.786A13.972,13.972,0,0,0,64.86,42.723M64,63.338a11.849,11.849,0,0,1-7.385,2.573c-.334,0-.666-.015-.993-.042A11.92,11.92,0,0,1,44.709,54c0-.385.019-.766.055-1.142s.089-.741.158-1.1h0q.1-.533.251-1.049a11.809,11.809,0,0,1,.708-1.854,11.985,11.985,0,0,1,5.865-5.717,11.828,11.828,0,0,1,1.518-.561h0a11.8,11.8,0,0,1,1.377-.316q.487-.082.986-.123c.327-.027.657-.042.991-.042a11.976,11.976,0,0,1,1.209.061c.354.036.7.088,1.049.155s.685.147,1.019.243a11.857,11.857,0,0,1,3.931,1.978h0A11.895,11.895,0,0,1,64,63.338m-53.542.786a5.894,5.894,0,0,0,1.427-3.851V31.487a1.5,1.5,0,0,1,1.493-1.493H44.333a1.034,1.034,0,1,0,0-2.068H42.7A9.167,9.167,0,0,0,31.231,17.839c-.087.023-.172.05-.258.076a9.169,9.169,0,0,0-6.46,10.011h-5.09a1.03,1.03,0,0,0-.493-.679l-4.689-2.707a1.034,1.034,0,0,0-1.034,1.791l2.763,1.6H13.4l-2.767-1.6,4.857-8.413,1.194-2.068,5.112-8.854,1.979,1.142-2.039,3.532a1.6,1.6,0,0,0,.585,2.186h0l2.8,1.618a1.6,1.6,0,0,0,2.186-.586l2.039-3.532,4.733,2.732a1.037,1.037,0,0,0,1.413-.378h0a1.038,1.038,0,0,0-.379-1.413L29.489,9.047h0L25.7,6.861h0L21.933,4.685a1.034,1.034,0,0,0-1.413.378L14.295,15.847,13.1,17.915,8.323,26.19A1.034,1.034,0,0,0,8.7,27.6l2.24,1.293a3.568,3.568,0,0,0-.95,1.5L6.151,28.178a.887.887,0,0,1-.325-1.212l5.226-9.051,1.194-2.068,7.7-13.335a.888.888,0,0,1,1.212-.325L37.3,11.506l1.825,1.054,2.924,1.688,1.5.867,1.791,1.034,5.477,3.162.8.462,1.615.932h0l1.023.591,3.573,2.063.812.469,1.256.725,1.167.674h0a.887.887,0,0,1,.325,1.212l-.859,1.487H58.48l.41-.71a1.034,1.034,0,0,0-.378-1.413l-.571-.329-.114-.066-6.178-3.567-1.79-1.034h0l-.1-.06-1.687-.974L42.5,16.562l-.925-.534-.9-.52-1.585-.915a1.034,1.034,0,0,0-1.413.378h0a1.034,1.034,0,0,0,.378,1.413l2.373,1.37,1.034.6,1.034.6,1.429.825,1.791,1.034,1.791,1.034,6.737,3.89,2.332,1.347-.49.849h-1.57a1.032,1.032,0,0,0-.515-.851l-.4-.231-4.289-2.476a1.034,1.034,0,1,0-1.034,1.791l3.06,1.767H48.927a1.034,1.034,0,1,0,0,2.068H61.3a1.5,1.5,0,0,1,1.493,1.493v9.979a13.872,13.872,0,0,0-2.9-1.051q-.5-.121-1.019-.206t-1.049-.13c-.4-.034-.8-.053-1.209-.053q-.351,0-.7.017c-.427.021-.848.062-1.264.121h0q-.682.1-1.342.257A13.917,13.917,0,0,0,48.987,42.3h0a14.055,14.055,0,0,0-1.331.987q-.477.4-.918.839a14.079,14.079,0,0,0-1.706,2.066q-.289.428-.548.878h0q-.257.448-.481.916a13.878,13.878,0,0,0-.668,1.663q-.06.183-.115.368-.1.325-.178.656h0q-.129.527-.218,1.068a13.961,13.961,0,0,0,4.163,12.383Zm17.1-53.8-1.805,3.127L23.76,12.3,25.565,9.17h0l1.993,1.15ZM27.45,23.149a7.062,7.062,0,0,1,4.316-3.312,7.146,7.146,0,0,1,1.851-.245,7.067,7.067,0,0,1,3.543.955q.159.092.311.19a7.123,7.123,0,0,1,3.137,7.188H35.955a2.768,2.768,0,0,0-1.342-1.915l-.911-.526a.7.7,0,0,1,.7-1.221l.911.526a.7.7,0,0,1,.347.7,1.034,1.034,0,1,0,2.052.255,2.767,2.767,0,0,0-.95-2.448l.072-.124a1.034,1.034,0,0,0-1.791-1.034l-.071.124a2.773,2.773,0,0,0-2.309,5.016l.911.526a.7.7,0,0,1,.157.124H31.612a1.033,1.033,0,0,0-2.06,0H26.6a7.053,7.053,0,0,1,.846-4.777m23.3-7h1.948a.445.445,0,0,1,.445.444v1.672l-2.324-1.342-1.341-.774ZM41,11.184H56.334a1.494,1.494,0,0,1,1.493,1.493v8.294L55.2,19.457q0-.064,0-.129V16.593a2.516,2.516,0,0,0-2.513-2.513h-6.8l-5.006-2.89c.038,0,.076-.006.114-.006" transform="translate(0 -0.001)" fill="#201144"/>
          <path id="Trazado_873096" data-name="Trazado 873096" d="M519,472.685a2.982,2.982,0,0,0,1.019-1.208,2.954,2.954,0,0,0,0-2.474A2.983,2.983,0,0,0,519,467.795a2.959,2.959,0,0,0-1.674-.519h-1.168a.9.9,0,1,1,0-1.793h1.168a.894.894,0,0,1,.625.256.906.906,0,0,1,.119.14,1.034,1.034,0,1,0,1.714-1.157,2.963,2.963,0,0,0-1.833-1.239q-.087-.019-.175-.032v-.409a1.034,1.034,0,0,0-2.068,0v.407a2.965,2.965,0,0,0,.45,5.895h1.168a.9.9,0,0,1,0,1.793h-1.168a.9.9,0,0,1-.826-.548,1.034,1.034,0,0,0-1.9.806,2.959,2.959,0,0,0,2.281,1.776v.254a1.034,1.034,0,0,0,2.068,0v-.254c.059-.009.117-.02.175-.033a2.951,2.951,0,0,0,1.049-.452" transform="translate(-460.123 -414.231)" fill="#201144"/>
          <path id="Trazado_873097" data-name="Trazado 873097" d="M467.372,427.838h0a10.108,10.108,0,0,0-3.706-2.416q-.112-.042-.225-.081a9.923,9.923,0,0,0-2.068-.475,10.02,10.02,0,0,0-6.066,1.178h0a10.125,10.125,0,0,0-4.826,6.042,9.99,9.99,0,0,0-.256,1.139h0a10.071,10.071,0,0,0-.116,1.043c-.012.2-.018.4-.018.6a10.085,10.085,0,0,0,10.074,10.074c.151,0,.3,0,.45-.011q.383-.017.758-.062a9.994,9.994,0,0,0,2.068-.475q.114-.039.226-.081a10.119,10.119,0,0,0,3.633-2.342h0a10.15,10.15,0,0,0,1.106-1.317,10.053,10.053,0,0,0,0-11.571,10.145,10.145,0,0,0-1.033-1.243m-7.209,15.035a8.006,8.006,0,0,1,0-16.012c.043,0,.085,0,.127,0a8.03,8.03,0,0,1,1.082.088,8.034,8.034,0,0,1,2.068.613,8.038,8.038,0,0,1,3.931,3.82h0a8.013,8.013,0,0,1,0,6.96h0a8.038,8.038,0,0,1-3.931,3.82,7.911,7.911,0,0,1-2.068.613,8.031,8.031,0,0,1-1.082.088c-.042,0-.084,0-.127,0" transform="translate(-403.545 -380.865)" fill="#201144"/>
        </g>
      </g>
    </g>
    <rect id="Rect치ngulo_401243" data-name="Rect치ngulo 401243" width="83" height="83" transform="translate(764.781 2279)" fill="none"/>
  </g>
</svg>
