<svg xmlns="http://www.w3.org/2000/svg" xmlns:xlink="http://www.w3.org/1999/xlink" width="298.546" height="205.055" viewBox="0 0 298.546 205.055">
  <defs>
    <clipPath id="clip-path">
      <rect id="Rectángulo_401394" data-name="Rectángulo 401394" width="244.803" height="204.141" fill="#d1ced9"/>
    </clipPath>
    <clipPath id="clip-path-2">
      <rect id="Rectángulo_401404" data-name="Rectángulo 401404" width="225.474" height="411.942" fill="none"/>
    </clipPath>
  </defs>
  <g id="Grupo_1099941" data-name="Grupo 1099941" transform="translate(-1019.954 -1713.499)">
    <path id="Sustracción_1" data-name="Sustracción 1" d="M294.58,178.416H222.713a79.659,79.659,0,1,0-153.6-29.64H0C0,66.74,66.74,0,148.774,0S297.546,66.74,297.546,148.775a149.289,149.289,0,0,1-2.966,29.64Z" transform="translate(1020.454 1739.639)" fill="#efddcf" stroke="rgba(0,0,0,0)" stroke-miterlimit="10" stroke-width="1"/>
    <g id="Enmascarar_grupo_1098685" data-name="Enmascarar grupo 1098685" transform="translate(1036 1713.499)" clip-path="url(#clip-path)">
      <g id="Grupo_1099816" data-name="Grupo 1099816" transform="translate(9.665 4.979)">
        <g id="Grupo_1099815" data-name="Grupo 1099815" clip-path="url(#clip-path-2)">
          <path id="Trazado_873576" data-name="Trazado 873576" d="M127.173,103.594,90.518,120.484,60.3,79.774s.428-10.264,0-11.76-4.062-6.842-4.7-7.7-1.924,0-2.138,1.282.642,2.353,1.069,3.422,1.284,3.42,1.284,3.42l-1.069,3.207-11.333-8.98s-2.566-3.422-3.422-1.924a2.64,2.64,0,0,0,.173,2.881l5.173,6.955-3.422.215-8.338-7.057s-1.5-.641-1.711,1.284a3.855,3.855,0,0,0,1.2,3.245l5.113,4.772,3.308,2.032-9.837-4.062s-1.282,1.282-.855,1.924l10.692,8.339-7.911-1.284s-1.07,1.5-.428,2.353l21.81,6.2s30.432,57.175,30.859,58.03,4.918,2.78,8.339,1.711,47.133-20.1,47.133-20.1" transform="translate(43.965 18.59)" fill="#dfbba0"/>
          <path id="Trazado_873577" data-name="Trazado 873577" d="M127.173,103.594,90.518,120.484,60.3,79.774s.428-10.264,0-11.76-4.062-6.842-4.7-7.7-1.924,0-2.138,1.282.642,2.353,1.069,3.422,1.284,3.42,1.284,3.42l-1.069,3.207-11.333-8.98s-2.566-3.422-3.422-1.924a2.64,2.64,0,0,0,.173,2.881l5.173,6.955-3.422.215-8.338-7.057s-1.5-.641-1.711,1.284a3.855,3.855,0,0,0,1.2,3.245l5.113,4.772,3.308,2.032-9.837-4.062s-1.282,1.282-.855,1.924l10.692,8.339-7.911-1.284s-1.07,1.5-.428,2.353l21.81,6.2s30.432,57.175,30.859,58.03,4.918,2.78,8.339,1.711,47.133-20.1,47.133-20.1" transform="translate(43.965 18.59)" fill="none" stroke="#263238" stroke-miterlimit="10" stroke-width="1"/>
          <path id="Trazado_873578" data-name="Trazado 873578" d="M115.649,118.59c-7.9-14.845-15.991-30.048-15.991-30.048l-21.81-6.2c-.642-.855.428-2.351.428-2.351l7.911,1.282L75.5,72.932c-.428-.642.855-1.926.855-1.926l9.835,4.062-3.306-2.029-5.114-4.774a3.853,3.853,0,0,1-1.2-3.245c.214-1.924,1.711-1.284,1.711-1.284l8.338,7.056,3.422-.214-5.172-6.956a2.636,2.636,0,0,1-.174-2.879c.855-1.5,3.422,1.926,3.422,1.926l11.333,8.979,1.069-3.206s-.855-2.354-1.282-3.422-1.284-2.139-1.07-3.422,1.5-2.139,2.139-1.284,4.276,6.2,4.7,7.7,0,11.758,0,11.758l22.423,30.211Z" transform="translate(-0.739 18.589)" fill="#fff"/>
          <path id="Trazado_873579" data-name="Trazado 873579" d="M115.649,118.59c-7.9-14.845-15.991-30.048-15.991-30.048l-21.81-6.2c-.642-.855.428-2.351.428-2.351l7.911,1.282L75.5,72.932c-.428-.642.855-1.926.855-1.926l9.835,4.062-3.306-2.029-5.114-4.774a3.853,3.853,0,0,1-1.2-3.245c.214-1.924,1.711-1.284,1.711-1.284l8.338,7.056,3.422-.214-5.172-6.956a2.636,2.636,0,0,1-.174-2.879c.855-1.5,3.422,1.926,3.422,1.926l11.333,8.979,1.069-3.206s-.855-2.354-1.282-3.422-1.284-2.139-1.07-3.422,1.5-2.139,2.139-1.284,4.276,6.2,4.7,7.7,0,11.758,0,11.758l22.423,30.211Z" transform="translate(-0.739 18.589)" fill="none" stroke="#263238" stroke-miterlimit="10" stroke-width="1"/>
          <path id="Trazado_873580" data-name="Trazado 873580" d="M99,68.885a11.571,11.571,0,0,0-2.8,3.474c-.671,1.678,2.347,5.7,3.689,6.373" transform="translate(-0.29 21.352)" fill="none" stroke="#263238" stroke-miterlimit="10" stroke-width="1"/>
          <path id="Trazado_873581" data-name="Trazado 873581" d="M82.928,47.182A58.933,58.933,0,1,0,152.835,1.8a58.933,58.933,0,0,0-69.907,45.38" transform="translate(-80.971 0.155)" fill="#fff"/>
          <path id="Trazado_873582" data-name="Trazado 873582" d="M82.928,47.182A58.933,58.933,0,1,0,152.835,1.8,58.933,58.933,0,0,0,82.928,47.182Z" transform="translate(-80.971 0.155)" fill="none" stroke="#263238" stroke-miterlimit="10" stroke-width="1"/>
          <path id="Trazado_873583" data-name="Trazado 873583" d="M89.926,46.912A49.495,49.495,0,1,0,148.636,8.8a49.5,49.5,0,0,0-58.71,38.112" transform="translate(-78.736 2.389)" fill="#fff"/>
          <path id="Trazado_873584" data-name="Trazado 873584" d="M89.926,46.912A49.495,49.495,0,1,0,148.636,8.8,49.5,49.5,0,0,0,89.926,46.912Z" transform="translate(-78.736 2.389)" fill="none" stroke="#263238" stroke-miterlimit="10" stroke-width="1"/>
          <path id="Trazado_873585" data-name="Trazado 873585" d="M14.41,0l1.677,7.881q8.8-1.519,14.239,2.815t7.995,14.685L26.806,29.955a35.908,35.908,0,0,0-2.395-6.887,8.983,8.983,0,0,0-3.063-3.775,5.237,5.237,0,0,0-4.026-.605c-1.749.372-2.832,1.191-3.24,2.46a7.836,7.836,0,0,0-.147,4.105,12.853,12.853,0,0,0,3.534,6.82A31.2,31.2,0,0,0,24.187,36.8l8.519,4.653a48.842,48.842,0,0,1,5.4,3.723,19.342,19.342,0,0,1,4.247,4.766A20.936,20.936,0,0,1,45.025,56.9q1.694,7.962-1.892,13.376T32.047,77.9l1.6,7.542-4.067.866-1.6-7.542a16.01,16.01,0,0,1-7.94-.481,12.814,12.814,0,0,1-5.423-3.629,21.774,21.774,0,0,1-3.481-5.548,43.42,43.42,0,0,1-2.19-6.132l11.737-4.357a39.387,39.387,0,0,0,1.689,5.442A8.333,8.333,0,0,0,24.7,67.512a4,4,0,0,0,3.659.55,4.4,4.4,0,0,0,3.206-2.63,7.005,7.005,0,0,0,.383-4.244,10.076,10.076,0,0,0-3.2-5.873,40.705,40.705,0,0,0-5.21-3.674l-8.33-4.6a48.93,48.93,0,0,1-6.343-4.408,26.435,26.435,0,0,1-5.21-5.756,22.649,22.649,0,0,1-3.2-7.954,18.6,18.6,0,0,1,.083-8.565,15.449,15.449,0,0,1,3.981-7.091,17.538,17.538,0,0,1,7.517-4.433L10.343.865Z" transform="translate(63.053 12.965) rotate(34)" fill="#22cac5"/>
          <path id="Trazado_873586" data-name="Trazado 873586" d="M98.715,290,83.163,301.018s-9.373,1.922-10.575,2.883-1.2,5.047-1.2,5.047,9.614,1.2,18.507,1.442,13.46,0,20.43-.24,12.738.24,14.18-1.442.039-16.358.039-16.358-16.286-8.8-25.829-2.347" transform="translate(6.803 89.161)" fill="#fff"/>
          <path id="Trazado_873587" data-name="Trazado 873587" d="M98.715,290,83.163,301.018s-9.373,1.922-10.575,2.883-1.2,5.047-1.2,5.047,9.614,1.2,18.507,1.442,13.46,0,20.43-.24,12.738.24,14.18-1.442.039-16.358.039-16.358S108.259,283.556,98.715,290Z" transform="translate(6.803 89.161)" fill="none" stroke="#263238" stroke-miterlimit="10" stroke-width="1"/>
          <path id="Trazado_873588" data-name="Trazado 873588" d="M89.914,306.248c-8.893-.241-18.507-1.442-18.507-1.442a18.459,18.459,0,0,1,.21-2.564c9.953.812,28.422,2.092,33.44.882,5.706-1.378,16.4-1.949,20.094-2.112-.063,1.751-.244,3.109-.625,3.554-1.442,1.682-7.21,1.2-14.18,1.441s-11.537.482-20.43.241" transform="translate(6.783 93.305)" fill="#fff"/>
          <path id="Trazado_873589" data-name="Trazado 873589" d="M89.914,306.248c-8.893-.241-18.507-1.442-18.507-1.442a18.459,18.459,0,0,1,.21-2.564c9.953.812,28.422,2.092,33.44.882,5.706-1.378,16.4-1.949,20.094-2.112-.063,1.751-.244,3.109-.625,3.554-1.442,1.682-7.21,1.2-14.18,1.441S98.808,306.489,89.914,306.248Z" transform="translate(6.783 93.305)" fill="none" stroke="#263238" stroke-miterlimit="10" stroke-width="1"/>
          <path id="Trazado_873590" data-name="Trazado 873590" d="M23.428,294.9l-8.172,10.336L1.075,314.126C.113,317.01.6,317.731.834,318.692s4.567,1.2,9.856.962,18.265,1.442,22.112.241,16.1-4.567,17.544-5.288,3.846-1.442,3.124-4.086-2.84-11.912-2.84-11.912a32.635,32.635,0,0,0-27.2-3.711" transform="translate(171.215 90.955)" fill="#fff"/>
          <path id="Trazado_873591" data-name="Trazado 873591" d="M23.428,294.9l-8.172,10.336L1.075,314.126C.113,317.01.6,317.731.834,318.692s4.567,1.2,9.856.962,18.265,1.442,22.112.241,16.1-4.567,17.544-5.288,3.846-1.442,3.124-4.086-2.84-11.912-2.84-11.912A32.635,32.635,0,0,0,23.428,294.9Z" transform="translate(171.215 90.955)" fill="none" stroke="#263238" stroke-miterlimit="10" stroke-width="1"/>
          <path id="Trazado_873592" data-name="Trazado 873592" d="M10.68,315.973c-5.288.241-9.614,0-9.855-.962a5.186,5.186,0,0,1-.267-2.526c6.56.283,23.572.941,28.388.363,5.5-.66,21.439-6.543,24.122-7.544.153.616.29,1.15.394,1.535.722,2.644-1.682,3.365-3.124,4.086s-13.7,4.086-17.546,5.288-16.825-.481-22.112-.241" transform="translate(171.224 94.636)" fill="#fff"/>
          <path id="Trazado_873593" data-name="Trazado 873593" d="M10.68,315.973c-5.288.241-9.614,0-9.855-.962a5.186,5.186,0,0,1-.267-2.526c6.56.283,23.572.941,28.388.363,5.5-.66,21.439-6.543,24.122-7.544.153.616.29,1.15.394,1.535.722,2.644-1.682,3.365-3.124,4.086s-13.7,4.086-17.546,5.288S15.967,315.734,10.68,315.973Z" transform="translate(171.224 94.636)" fill="none" stroke="#263238" stroke-miterlimit="10" stroke-width="1"/>
          <path id="Trazado_873594" data-name="Trazado 873594" d="M100.83,169.334l-6.8,82.452,21.132,76.143,3.018,12.075s-2.347,2.013-8.72,1.678-19.12-3.355-19.12-3.355a11.09,11.09,0,0,1-1.341-5.7c.335-2.683,1.677-3.69,1.677-4.7S62.5,251.787,62.5,251.787L59.812,208.18l-19.12,48.638L28.281,331.956s-.671,3.69-1.677,3.355-17.778-6.374-17.778-6.374l-6.374.672s-.671-9.728,2.013-11.741a12.954,12.954,0,0,0,3.689-4.024L10.839,242.4,37,168.935l2.347-9.056,60.378,3.354Z" transform="translate(104.182 49.558)" fill="#263238"/>
          <path id="Trazado_873595" data-name="Trazado 873595" d="M100.83,169.334l-6.8,82.452,21.132,76.143,3.018,12.075s-2.347,2.013-8.72,1.678-19.12-3.355-19.12-3.355a11.09,11.09,0,0,1-1.341-5.7c.335-2.683,1.677-3.69,1.677-4.7S62.5,251.787,62.5,251.787L59.812,208.18l-19.12,48.638L28.281,331.956s-.671,3.69-1.677,3.355-17.778-6.374-17.778-6.374l-6.374.672s-.671-9.728,2.013-11.741a12.954,12.954,0,0,0,3.689-4.024L10.839,242.4,37,168.935l2.347-9.056,60.378,3.354Z" transform="translate(104.182 49.558)" fill="none" stroke="#263238" stroke-miterlimit="10" stroke-width="1"/>
          <path id="Trazado_873596" data-name="Trazado 873596" d="M79.447,168.589l-.541,4.5-63.286-4.9,2.72-5.905Z" transform="translate(125.564 50.304)" fill="#92e3a9"/>
          <path id="Trazado_873597" data-name="Trazado 873597" d="M79.447,168.589l-.541,4.5-63.286-4.9,2.72-5.905Z" transform="translate(125.564 50.304)" fill="none" stroke="#263238" stroke-miterlimit="10" stroke-width="1"/>
          <path id="Trazado_873598" data-name="Trazado 873598" d="M79.06,90.964s3.849,13.043,3.422,19.03-7.912,53.241-7.912,53.241l-2.78,18.175s2.139,5.558,1.924,6.842.215,4.7-1.71,5.558-18.175-.214-34.853-.641-23.092-1.069-25.23-1.924-4.7-3.849-4.277-6.2a48.133,48.133,0,0,1,2.139-6.628s.854-57.089,2.138-65.855S14.7,91.819,19.19,87.329s11.974-6.414,11.974-6.414l5.987,11.118s20.527-8.339,28.01-9.193,13.9,8.124,13.9,8.124" transform="translate(133.008 25.081)" fill="#dfbba0"/>
          <path id="Trazado_873599" data-name="Trazado 873599" d="M79.06,90.964s3.849,13.043,3.422,19.03-7.912,53.241-7.912,53.241l-2.78,18.175s2.139,5.558,1.924,6.842.215,4.7-1.71,5.558-18.175-.214-34.853-.641-23.092-1.069-25.23-1.924-4.7-3.849-4.277-6.2a48.133,48.133,0,0,1,2.139-6.628s.854-57.089,2.138-65.855S14.7,91.819,19.19,87.329s11.974-6.414,11.974-6.414l5.987,11.118s20.527-8.339,28.01-9.193S79.06,90.964,79.06,90.964Z" transform="translate(133.008 25.081)" fill="none" stroke="#263238" stroke-miterlimit="10" stroke-width="1"/>
          <path id="Trazado_873600" data-name="Trazado 873600" d="M15.086,120.375a62.3,62.3,0,0,0,6.191,1.7" transform="translate(184.435 37.313)" fill="none" stroke="#263238" stroke-miterlimit="10" stroke-width="1"/>
          <path id="Trazado_873601" data-name="Trazado 873601" d="M22.78,115.543s7.971,2.79,15.063,5.092" transform="translate(157.789 35.815)" fill="none" stroke="#263238" stroke-miterlimit="10" stroke-width="1"/>
          <path id="Trazado_873602" data-name="Trazado 873602" d="M16.419,132.3a28.033,28.033,0,0,0,3.458,2.143" transform="translate(184.088 41.01)" fill="none" stroke="#263238" stroke-miterlimit="10" stroke-width="1"/>
          <path id="Trazado_873603" data-name="Trazado 873603" d="M21.844,117.409s10.113,10.113,18.385,16.741" transform="translate(156.629 36.394)" fill="none" stroke="#263238" stroke-miterlimit="10" stroke-width="1"/>
          <path id="Trazado_873604" data-name="Trazado 873604" d="M12.624,106.163S29.943,96.968,38.283,94.4,49.615,91.41,51.54,91.837s9.407,8.124,10.049,5.987S59.237,82,58.382,79.008s-13.9-6.628-17.534-7.7S19.039,77.3,14.976,78.58s-7.911,5.987-7.911,9.195,5.56,18.388,5.56,18.388" transform="translate(154.541 22.07)" fill="#dfbba0"/>
          <path id="Trazado_873605" data-name="Trazado 873605" d="M12.624,106.163S29.943,96.968,38.283,94.4,49.615,91.41,51.54,91.837s9.407,8.124,10.049,5.987S59.237,82,58.382,79.008s-13.9-6.628-17.534-7.7S19.039,77.3,14.976,78.58s-7.911,5.987-7.911,9.195S12.624,106.163,12.624,106.163Z" transform="translate(154.541 22.07)" fill="none" stroke="#263238" stroke-miterlimit="10" stroke-width="1"/>
          <path id="Trazado_873606" data-name="Trazado 873606" d="M55.519,81.045s-3.492-2.794-5.587-1.4S12.61,100.891,12.61,100.891l-1.789-18.45" transform="translate(155.78 24.568)" fill="none" stroke="#263238" stroke-miterlimit="10" stroke-width="1"/>
          <path id="Trazado_873607" data-name="Trazado 873607" d="M25.262,38.075s-3.039,9.117-3.039,11.441,1.073,6.08.358,7.509-5.005,8.046-4.291,9.119,3.4,5.005,3.4,5.005.715,13.409,1.43,14.838,5.364,1.252,7.509,1.252H35.1s-3.933,26.459-3.039,26.816S58.515,88.313,58.515,88.313l-.893-19.13s8.939-13.229,7.509-19.13S49.755,39.506,42.246,37.539s-16.984.536-16.984.536" transform="translate(136.334 11.402)" fill="#fff"/>
          <path id="Trazado_873608" data-name="Trazado 873608" d="M25.262,38.075s-3.039,9.117-3.039,11.441,1.073,6.08.358,7.509-5.005,8.046-4.291,9.119,3.4,5.005,3.4,5.005.715,13.409,1.43,14.838,5.364,1.252,7.509,1.252H35.1s-3.933,26.459-3.039,26.816S58.515,88.313,58.515,88.313l-.893-19.13s8.939-13.229,7.509-19.13S49.755,39.506,42.246,37.539,25.262,38.075,25.262,38.075Z" transform="translate(136.334 11.402)" fill="none" stroke="#263238" stroke-miterlimit="10" stroke-width="1"/>
          <path id="Trazado_873609" data-name="Trazado 873609" d="M45.248,53.668c-.253,1.358.132,2.57.861,2.706s1.523-.857,1.776-2.215-.132-2.571-.861-2.706-1.523.857-1.776,2.215" transform="translate(118.338 15.945)" fill="#263238"/>
          <path id="Trazado_873610" data-name="Trazado 873610" d="M50.012,50.017S47.33,46.8,43.576,48.229" transform="translate(118.378 14.836)" fill="none" stroke="#263238" stroke-miterlimit="10" stroke-width="1"/>
          <path id="Trazado_873611" data-name="Trazado 873611" d="M49.037,60.7a11.989,11.989,0,0,1-7.509,4.648" transform="translate(122.036 18.815)" fill="none" stroke="#263238" stroke-miterlimit="10" stroke-width="1"/>
          <path id="Trazado_873612" data-name="Trazado 873612" d="M44.676,66.693s-4.648.715-4.648-.536.536-5.9.536-5.9-6.258-5.005-6.078-7.331,3.039-4.29,2.86-5.005S28.765,44.7,21.972,44.7s-8.224,1.429-10.37-1.788-3.754-7.509.358-11.978,6.078-2.5,8.224-3.039,8.4-6.794,12.694-5.363A7.046,7.046,0,0,1,37.7,27.9s8.046-5.363,11.443-2.5A10.247,10.247,0,0,1,52.9,31.473a9.169,9.169,0,0,1,7.509,5.007c2.324,4.827,2.144,7.509,2.144,7.509s4.47,2.682,4.291,6.614-1.43,5.721-1.43,5.721,3.754,1.61,0,7.331-5.185,6.436-5.185,6.436,4.291.537,0,4.112-12.157,5.005-13.945,5.9S44.139,75.1,44.139,71.52a14.033,14.033,0,0,1,.537-4.827" transform="translate(146.062 6.92)" fill="#263238"/>
          <path id="Trazado_873613" data-name="Trazado 873613" d="M44.676,66.693s-4.648.715-4.648-.536.536-5.9.536-5.9-6.258-5.005-6.078-7.331,3.039-4.29,2.86-5.005S28.765,44.7,21.972,44.7s-8.224,1.429-10.37-1.788-3.754-7.509.358-11.978,6.078-2.5,8.224-3.039,8.4-6.794,12.694-5.363A7.046,7.046,0,0,1,37.7,27.9s8.046-5.363,11.443-2.5A10.247,10.247,0,0,1,52.9,31.473a9.169,9.169,0,0,1,7.509,5.007c2.324,4.827,2.144,7.509,2.144,7.509s4.47,2.682,4.291,6.614-1.43,5.721-1.43,5.721,3.754,1.61,0,7.331-5.185,6.436-5.185,6.436,4.291.537,0,4.112-12.157,5.005-13.945,5.9S44.139,75.1,44.139,71.52A14.033,14.033,0,0,1,44.676,66.693Z" transform="translate(146.062 6.92)" fill="none" stroke="#263238" stroke-miterlimit="10" stroke-width="1"/>
          <path id="Trazado_873614" data-name="Trazado 873614" d="M23.54,58.625s4.648-6.078,7.151-4.112.893,10.548-1.788,13.229-6.614-1.966-6.614-1.966" transform="translate(164.338 16.776)" fill="#fff"/>
          <path id="Trazado_873615" data-name="Trazado 873615" d="M23.54,58.625s4.648-6.078,7.151-4.112.893,10.548-1.788,13.229-6.614-1.966-6.614-1.966" transform="translate(164.338 16.776)" fill="none" stroke="#263238" stroke-miterlimit="10" stroke-width="1"/>
          <path id="Trazado_873616" data-name="Trazado 873616" d="M36.641,75.331l7.709-.13L35.37,84.4Z" transform="translate(134.789 23.31)" fill="#263238"/>
          <path id="Trazado_873617" data-name="Trazado 873617" d="M36.641,75.331l7.709-.13L35.37,84.4Z" transform="translate(134.789 23.31)" fill="none" stroke="#263238" stroke-miterlimit="10" stroke-width="1"/>
          <path id="Trazado_873618" data-name="Trazado 873618" d="M112.577,102.826,75.922,119.717,45.7,79.006s.427-10.264,0-11.76S41.641,60.4,41,59.548s-1.924,0-2.138,1.282.642,2.353,1.069,3.422,1.284,3.42,1.284,3.42l-1.069,3.208L28.813,61.9s-2.566-3.42-3.422-1.924a2.638,2.638,0,0,0,.174,2.881l5.172,6.956-3.422.214-8.338-7.057s-1.5-.641-1.711,1.284a3.853,3.853,0,0,0,1.2,3.245l5.113,4.772L26.888,74.3l-9.837-4.062s-1.282,1.282-.854,1.924L26.888,80.5l-7.911-1.284s-1.07,1.5-.428,2.353l21.81,6.2s30.432,57.175,30.859,58.03,4.919,2.78,8.339,1.711,47.133-20.1,47.133-20.1" transform="translate(77.68 18.352)" fill="#dfbba0"/>
          <path id="Trazado_873619" data-name="Trazado 873619" d="M112.577,102.826,75.922,119.717,45.7,79.006s.427-10.264,0-11.76S41.641,60.4,41,59.548s-1.924,0-2.138,1.282.642,2.353,1.069,3.422,1.284,3.42,1.284,3.42l-1.069,3.208L28.813,61.9s-2.566-3.42-3.422-1.924a2.638,2.638,0,0,0,.174,2.881l5.172,6.956-3.422.214-8.338-7.057s-1.5-.641-1.711,1.284a3.853,3.853,0,0,0,1.2,3.245l5.113,4.772L26.888,74.3l-9.837-4.062s-1.282,1.282-.854,1.924L26.888,80.5l-7.911-1.284s-1.07,1.5-.428,2.353l21.81,6.2s30.432,57.175,30.859,58.03,4.919,2.78,8.339,1.711,47.133-20.1,47.133-20.1" transform="translate(77.68 18.352)" fill="none" stroke="#263238" stroke-miterlimit="10" stroke-width="1"/>
          <path id="Trazado_873620" data-name="Trazado 873620" d="M101.054,117.822c-7.9-14.845-15.991-30.049-15.991-30.049l-21.81-6.2c-.641-.855.428-2.351.428-2.351L71.593,80.5,60.9,72.163c-.428-.641.855-1.924.855-1.924L71.593,74.3,68.287,72.27,63.173,67.5a3.857,3.857,0,0,1-1.2-3.246c.214-1.924,1.711-1.282,1.711-1.282l8.338,7.056,3.422-.214L70.27,62.855a2.636,2.636,0,0,1-.174-2.879c.855-1.5,3.422,1.924,3.422,1.924L84.85,70.88l1.069-3.207s-.855-2.353-1.282-3.422-1.284-2.138-1.07-3.42,1.5-2.139,2.139-1.284,4.276,6.2,4.7,7.7,0,11.76,0,11.76l22.423,30.211Z" transform="translate(32.975 18.351)" fill="#fff"/>
          <path id="Trazado_873621" data-name="Trazado 873621" d="M101.054,117.822c-7.9-14.845-15.991-30.049-15.991-30.049l-21.81-6.2c-.641-.855.428-2.351.428-2.351L71.593,80.5,60.9,72.163c-.428-.641.855-1.924.855-1.924L71.593,74.3,68.287,72.27,63.173,67.5a3.857,3.857,0,0,1-1.2-3.246c.214-1.924,1.711-1.282,1.711-1.282l8.338,7.056,3.422-.214L70.27,62.855a2.636,2.636,0,0,1-.174-2.879c.855-1.5,3.422,1.924,3.422,1.924L84.85,70.88l1.069-3.207s-.855-2.353-1.282-3.422-1.284-2.138-1.07-3.42,1.5-2.139,2.139-1.284,4.276,6.2,4.7,7.7,0,11.76,0,11.76l22.423,30.211Z" transform="translate(32.975 18.351)" fill="none" stroke="#263238" stroke-miterlimit="10" stroke-width="1"/>
        </g>
      </g>
    </g>
  </g>
</svg>
