<svg xmlns="http://www.w3.org/2000/svg" width="400.654" height="399.844" viewBox="0 0 400.654 399.844">
  <g id="_1" data-name="1" transform="translate(-17.96 -21.8)">
    <g id="Floor_00000158747179933682543870000014200494217997990551_" transform="translate(27.967 406.01)">
      <g id="Grupo_1107869" data-name="Grupo 1107869">
        <line id="Línea_563" data-name="Línea 563" x2="18.297" transform="translate(372.35)" fill="none" stroke="#263238" stroke-linejoin="round" stroke-miterlimit="10" stroke-width="1"/>
        <line id="Línea_564" data-name="Línea 564" x2="365.587" fill="none" stroke="#263238" stroke-linejoin="round" stroke-miterlimit="10" stroke-width="1"/>
      </g>
    </g>
    <g id="Gears" transform="translate(284.814 283.569)">
      <g id="Grupo_1107870" data-name="Grupo 1107870">
        <path id="Trazado_902850" data-name="Trazado 902850" d="M374.854,406.237a21.284,21.284,0,0,1-2.515,7.718l4.162,4.422-4.943,5.81-5.029-3.469a20.563,20.563,0,0,1-7.284,3.642l-.173,6.07-7.544.607-1.127-5.983a21.285,21.285,0,0,1-7.718-2.515L338.26,426.7l-5.81-4.943,3.469-5.029a20.562,20.562,0,0,1-3.642-7.284l-6.07-.173-.607-7.544,5.983-1.127a21.285,21.285,0,0,1,2.515-7.718l-4.162-4.422,4.943-5.81,5.029,3.469a20.563,20.563,0,0,1,7.284-3.642l.173-6.07,7.544-.607,1.127,5.983a21.284,21.284,0,0,1,7.718,2.515l4.422-4.162,5.81,4.943-3.469,5.029a20.563,20.563,0,0,1,3.642,7.284l6.07.173.607,7.544Zm-32.431-5.463a13.4,13.4,0,0,0-.347,2.688,11.186,11.186,0,1,0,11.186-11.186,11.373,11.373,0,0,0-9.018,4.509" transform="translate(-325.6 -330.535)" fill="none" stroke="#263238" stroke-linejoin="round" stroke-miterlimit="10" stroke-width="1"/>
        <path id="Trazado_902851" data-name="Trazado 902851" d="M447.436,374.84a26.483,26.483,0,0,1-2.775,1.127l-.087,4.769-5.983.434-.867-4.683a16.172,16.172,0,0,1-6.07-1.994l-3.469,3.3-4.509-3.9,2.688-3.9a16.909,16.909,0,0,1-2.862-5.723l-4.769-.087-.434-5.983,4.683-.867a16.172,16.172,0,0,1,1.994-6.07l-3.3-3.469,3.9-4.509,3.9,2.688a16.909,16.909,0,0,1,5.723-2.862l.087-4.769,5.983-.434.867,4.683a16.172,16.172,0,0,1,6.07,1.994l3.469-3.3,4.509,3.9-2.688,3.9a16.909,16.909,0,0,1,2.862,5.723l4.769.087.434,5.983-4.683.867a16.172,16.172,0,0,1-1.994,6.07l3.3,3.469-3.9,4.509-3.9-2.688m-10.492-22.459a8.845,8.845,0,1,0,8.845,8.845A8.882,8.882,0,0,0,439.892,350.647Z" transform="translate(-337.916 -325.5)" fill="none" stroke="#263238" stroke-linejoin="round" stroke-miterlimit="10" stroke-width="1"/>
        <path id="Trazado_902852" data-name="Trazado 902852" d="M389.025,330.364a20.342,20.342,0,0,1,3.729,1.648l4.422-4.162,5.81,4.943-3.469,5.029a20.563,20.563,0,0,1,3.642,7.284l6.07.173.607,7.544-5.983,1.127a21.284,21.284,0,0,1-2.515,7.718l4.162,4.422-4.943,5.81-5.029-3.469a20.563,20.563,0,0,1-7.284,3.642l-.173,6.07-7.544.607-1.127-5.983a21.284,21.284,0,0,1-7.718-2.515l-4.422,4.162-5.81-4.943,3.469-5.029a20.563,20.563,0,0,1-3.642-7.284l-6.07-.173-.607-7.544,5.983-1.041a21.285,21.285,0,0,1,2.515-7.718l-4.162-4.422,4.943-5.81,5.029,3.469a20.564,20.564,0,0,1,7.284-3.642l.173-6.07,7.544-.607,1.127,5.983c.607.087,1.127.173,1.734.26m-2.255,32.171a11.119,11.119,0,1,0-6.59-.607" transform="translate(-329.453 -323.6)" fill="none" stroke="#263238" stroke-linejoin="round" stroke-miterlimit="10" stroke-width="1"/>
      </g>
      <g id="Grupo_1107872" data-name="Grupo 1107872" transform="translate(40.657 15.327)">
        <g id="Grupo_1107871" data-name="Grupo 1107871" transform="translate(9.291 5.571)">
          <path id="Trazado_902853" data-name="Trazado 902853" d="M385.888,360.794v-1.3a2.538,2.538,0,0,1-1.994-.867,3.686,3.686,0,0,1-.694-2.428l1.908-.26c0,.434.087.78.087,1.041a4.228,4.228,0,0,0,.26.607.93.93,0,0,0,.52.173c.26,0,.434-.087.434-.26a1.1,1.1,0,0,0,.087-.52,1.849,1.849,0,0,0-.26-1.041,3.525,3.525,0,0,0-.78-.867l-.867-.78a5.229,5.229,0,0,1-.694-.694,7.622,7.622,0,0,1-.52-.867,4.393,4.393,0,0,1-.173-1.127,2.7,2.7,0,0,1,.694-1.908,3.2,3.2,0,0,1,1.908-.78V347.7h.694v1.214a2.507,2.507,0,0,1,1.214.347,2.048,2.048,0,0,1,.694.78,3.106,3.106,0,0,1,.347.954,3.556,3.556,0,0,1,.087.954l-1.994.26a1.924,1.924,0,0,0-.087-.78.733.733,0,0,0-.173-.52.662.662,0,0,0-.434-.173.477.477,0,0,0-.434.26,1.232,1.232,0,0,0-.173.52,1.081,1.081,0,0,0,.347.954,2.639,2.639,0,0,0,.694.694l.867.78a7.819,7.819,0,0,1,.78.867,3.581,3.581,0,0,1,.607.954,2.962,2.962,0,0,1,.173,1.3,2.77,2.77,0,0,1-.26,1.214,2.711,2.711,0,0,1-.78.954,2.913,2.913,0,0,1-1.214.434v1.3h-.867Z" transform="translate(-383.2 -347.7)" fill="none" stroke="#263238" stroke-miterlimit="10" stroke-width="1"/>
        </g>
        <circle id="Elipse_12228" data-name="Elipse 12228" cx="8.585" cy="8.585" r="8.585" transform="translate(0 12.14) rotate(-45)" fill="none" stroke="#263238" stroke-miterlimit="10" stroke-width="1"/>
      </g>
    </g>
    <g id="Money" transform="translate(18.613 22.3)">
      <g id="Grupo_1107874" data-name="Grupo 1107874" transform="translate(0 61.655)">
        <g id="Grupo_1107873" data-name="Grupo 1107873" transform="translate(19.586 11.445)">
          <path id="Trazado_902854" data-name="Trazado 902854" d="M47.01,135.129v-2.775a5.569,5.569,0,0,1-4.249-1.821c-.954-1.127-1.474-2.862-1.561-5.29l4.249-.607a8.726,8.726,0,0,0,.26,2.341,2.321,2.321,0,0,0,.694,1.3,1.382,1.382,0,0,0,1.041.347,1.049,1.049,0,0,0,1.041-.52,2.4,2.4,0,0,0,.26-1.127,3.946,3.946,0,0,0-.694-2.341,9.245,9.245,0,0,0-1.821-1.908l-1.994-1.734c-.52-.52-1.041-1.041-1.474-1.561a9.285,9.285,0,0,1-1.127-1.821A7.251,7.251,0,0,1,41.2,115.1a5.943,5.943,0,0,1,1.474-4.162A6.3,6.3,0,0,1,46.75,109.2v-2.6h1.387v2.6a5.745,5.745,0,0,1,2.6.694,4.5,4.5,0,0,1,1.474,1.648,7.765,7.765,0,0,1,.694,1.994,16.932,16.932,0,0,1,.173,1.994l-4.336.52c0-.694-.087-1.214-.087-1.734a2.882,2.882,0,0,0-.347-1.127.9.9,0,0,0-.954-.347,1.132,1.132,0,0,0-1.041.607,1.907,1.907,0,0,0-.347,1.127,3.413,3.413,0,0,0,.694,2.168c.434.52.954,1.041,1.474,1.561l1.908,1.648c.607.607,1.214,1.214,1.734,1.821a9,9,0,0,1,1.3,2.168,6.919,6.919,0,0,1,.434,2.775,5.574,5.574,0,0,1-.607,2.688,5.465,5.465,0,0,1-1.734,1.994,6.623,6.623,0,0,1-2.688.954v2.775Z" transform="translate(-41.2 -106.6)" fill="none" stroke="#263238" stroke-miterlimit="10" stroke-width="1"/>
        </g>
        <path id="Trazado_902855" data-name="Trazado 902855" d="M68.119,114.564a23.976,23.976,0,1,0,0,9.8" transform="translate(-18.877 -93.667)" fill="none" stroke="#263238" stroke-miterlimit="10" stroke-width="1"/>
        <circle id="Elipse_12229" data-name="Elipse 12229" cx="19.684" cy="19.684" r="19.684" transform="translate(0 36.372) rotate(-67.5)" fill="none" stroke="#263238" stroke-miterlimit="10" stroke-width="1"/>
      </g>
      <g id="Grupo_1107876" data-name="Grupo 1107876" transform="translate(155.913 164.853)">
        <g id="Grupo_1107875" data-name="Grupo 1107875" transform="translate(16.723 10.483)">
          <path id="Trazado_902856" data-name="Trazado 902856" d="M222.383,246.959v-2.168A4.419,4.419,0,0,1,219,243.317c-.78-.867-1.127-2.255-1.214-4.162l3.382-.52a9.2,9.2,0,0,0,.173,1.821,1.978,1.978,0,0,0,.52,1.041,1.558,1.558,0,0,0,.78.347c.434,0,.694-.173.78-.434a3.081,3.081,0,0,0,.173-.867,3.018,3.018,0,0,0-.52-1.821,7.485,7.485,0,0,0-1.387-1.561l-1.561-1.3a16.023,16.023,0,0,1-1.214-1.214,6.012,6.012,0,0,1-.867-1.474,4.57,4.57,0,0,1-.347-1.994,4.523,4.523,0,0,1,1.214-3.3,4.913,4.913,0,0,1,3.208-1.3V224.5h1.127v2.081a4.546,4.546,0,0,1,2.081.607,3.241,3.241,0,0,1,1.127,1.3,5.512,5.512,0,0,1,.52,1.561,10.723,10.723,0,0,1,.173,1.561l-3.382.434c0-.52-.087-.954-.087-1.387a1.63,1.63,0,0,0-.347-.867.719.719,0,0,0-.694-.26.911.911,0,0,0-.78.434,1.977,1.977,0,0,0-.26.954,2.752,2.752,0,0,0,.52,1.734,8.035,8.035,0,0,0,1.214,1.214l1.474,1.3a11.167,11.167,0,0,1,1.387,1.474,5.772,5.772,0,0,1,1.041,1.734,5.694,5.694,0,0,1,.347,2.168,4.7,4.7,0,0,1-.52,2.168,4.751,4.751,0,0,1-1.387,1.561,4.284,4.284,0,0,1-2.168.694v2.168h-1.127Z" transform="translate(-217.7 -224.5)" fill="none" stroke="#263238" stroke-miterlimit="10" stroke-width="1"/>
        </g>
        <circle id="Elipse_12230" data-name="Elipse 12230" cx="18.904" cy="18.904" r="18.904" transform="translate(0 6.015) rotate(-9.154)" fill="none" stroke="#263238" stroke-miterlimit="10" stroke-width="1"/>
        <circle id="Elipse_12231" data-name="Elipse 12231" cx="15.522" cy="15.522" r="15.522" transform="translate(6.144 6.147)" fill="none" stroke="#263238" stroke-miterlimit="10" stroke-width="1"/>
      </g>
      <g id="Grupo_1107878" data-name="Grupo 1107878" transform="translate(17.411 335.713)">
        <g id="Grupo_1107877" data-name="Grupo 1107877" transform="translate(17.523 12.01)">
          <path id="Trazado_902857" data-name="Trazado 902857" d="M63.062,443.244v-1.908a4.294,4.294,0,0,1-3.035-1.3,5.474,5.474,0,0,1-1.041-3.729l2.948-.434a7.981,7.981,0,0,0,.173,1.648,1.617,1.617,0,0,0,.434.867.985.985,0,0,0,.694.26c.347,0,.607-.087.694-.347a2.532,2.532,0,0,0,.173-.78,3.321,3.321,0,0,0-.434-1.648,9.182,9.182,0,0,0-1.3-1.387l-1.387-1.214a11.768,11.768,0,0,1-1.041-1.041,3.265,3.265,0,0,1-.78-1.3,5.215,5.215,0,0,1-.26-1.734,3.867,3.867,0,0,1,1.041-2.862,4.356,4.356,0,0,1,2.862-1.214V423.3h.954v1.821a2.845,2.845,0,0,1,1.821.52,3.4,3.4,0,0,1,1.474,2.515,8.646,8.646,0,0,1,.173,1.387l-3.035.347a5.332,5.332,0,0,0-.087-1.214,4.03,4.03,0,0,0-.26-.78.853.853,0,0,0-.694-.26.687.687,0,0,0-.694.434,1.4,1.4,0,0,0-.26.78,2.04,2.04,0,0,0,.52,1.474,11.774,11.774,0,0,0,1.041,1.041l1.3,1.127a16.647,16.647,0,0,1,1.214,1.3,4.548,4.548,0,0,1,.867,1.561,4.411,4.411,0,0,1,.347,1.908,4.726,4.726,0,0,1-.434,1.908,3.155,3.155,0,0,1-1.214,1.387,4.17,4.17,0,0,1-1.908.694v1.908h-.867Z" transform="translate(-58.9 -423.3)" fill="none" stroke="#263238" stroke-miterlimit="10" stroke-width="1"/>
        </g>
        <circle id="Elipse_12232" data-name="Elipse 12232" cx="16.823" cy="16.823" r="16.823" transform="translate(0 31.085) rotate(-67.5)" fill="none" stroke="#263238" stroke-miterlimit="10" stroke-width="1"/>
        <circle id="Elipse_12233" data-name="Elipse 12233" cx="13.788" cy="13.788" r="13.788" transform="translate(3.966 29.442) rotate(-67.5)" fill="none" stroke="#263238" stroke-miterlimit="10" stroke-width="1"/>
      </g>
      <g id="Grupo_1107880" data-name="Grupo 1107880" transform="translate(333.057)">
        <g id="Grupo_1107879" data-name="Grupo 1107879" transform="translate(13.961 7.631)">
          <path id="Trazado_902858" data-name="Trazado 902858" d="M423.483,53.559V51.391a4.419,4.419,0,0,1-3.382-1.474c-.78-.867-1.127-2.255-1.214-4.162l3.382-.52a9.2,9.2,0,0,0,.173,1.821,1.978,1.978,0,0,0,.52,1.041,1.558,1.558,0,0,0,.78.347c.434,0,.694-.173.78-.434a3.081,3.081,0,0,0,.173-.867,3.018,3.018,0,0,0-.52-1.821,7.485,7.485,0,0,0-1.387-1.561l-1.561-1.3a16.021,16.021,0,0,1-1.214-1.214,6.012,6.012,0,0,1-.867-1.474,4.57,4.57,0,0,1-.347-1.994,4.523,4.523,0,0,1,1.214-3.3,4.913,4.913,0,0,1,3.208-1.3V31.1h1.127v2.081a4.546,4.546,0,0,1,2.081.607,3.241,3.241,0,0,1,1.127,1.3,5.513,5.513,0,0,1,.52,1.561,10.725,10.725,0,0,1,.173,1.561l-3.382.434c0-.52-.087-.954-.087-1.387a1.631,1.631,0,0,0-.347-.867.719.719,0,0,0-.694-.26.911.911,0,0,0-.78.434,1.976,1.976,0,0,0-.26.954,2.752,2.752,0,0,0,.52,1.734,8.034,8.034,0,0,0,1.214,1.214l1.474,1.3A11.168,11.168,0,0,1,427.3,43.24a5.773,5.773,0,0,1,1.041,1.734,5.694,5.694,0,0,1,.347,2.168,4.7,4.7,0,0,1-.52,2.168,4.752,4.752,0,0,1-1.387,1.561,4.284,4.284,0,0,1-2.168.694v1.994Z" transform="translate(-418.8 -31.1)" fill="none" stroke="#263238" stroke-miterlimit="10" stroke-width="1"/>
        </g>
        <path id="Trazado_902859" data-name="Trazado 902859" d="M416.227,22.994A19.166,19.166,0,1,0,421.6,22.3" transform="translate(-402.7 -22.3)" fill="none" stroke="#263238" stroke-miterlimit="10" stroke-width="1"/>
        <circle id="Elipse_12234" data-name="Elipse 12234" cx="15.522" cy="15.522" r="15.522" transform="translate(3.382 3.382)" fill="none" stroke="#263238" stroke-miterlimit="10" stroke-width="1"/>
      </g>
    </g>
    <g id="Calendar" transform="translate(339.444 75.282)">
      <g id="Grupo_1107885" data-name="Grupo 1107885">
        <rect id="Rectángulo_405155" data-name="Rectángulo 405155" width="73.36" height="65.122" transform="translate(0 5.116)" fill="#fff" stroke="#263238" stroke-linejoin="round" stroke-miterlimit="10" stroke-width="1"/>
        <rect id="Rectángulo_405156" data-name="Rectángulo 405156" width="73.36" height="11.186" transform="translate(0 5.116)" fill="#92e3a9" stroke="#263238" stroke-linejoin="round" stroke-miterlimit="10" stroke-width="1"/>
        <g id="Grupo_1107881" data-name="Grupo 1107881" transform="translate(5.029)">
          <path id="Trazado_902860" data-name="Trazado 902860" d="M395.961,92.939h0a1.554,1.554,0,0,1-1.561-1.561V84.961a1.554,1.554,0,0,1,1.561-1.561h0a1.554,1.554,0,0,1,1.561,1.561v6.417A1.5,1.5,0,0,1,395.961,92.939Z" transform="translate(-394.4 -83.4)" fill="#fff" stroke="#263238" stroke-linejoin="round" stroke-miterlimit="10" stroke-width="1"/>
          <path id="Trazado_902861" data-name="Trazado 902861" d="M409.861,92.939h0a1.554,1.554,0,0,1-1.561-1.561V84.961a1.554,1.554,0,0,1,1.561-1.561h0a1.554,1.554,0,0,1,1.561,1.561v6.417A1.554,1.554,0,0,1,409.861,92.939Z" transform="translate(-396.247 -83.4)" fill="#fff" stroke="#263238" stroke-linejoin="round" stroke-miterlimit="10" stroke-width="1"/>
          <path id="Trazado_902862" data-name="Trazado 902862" d="M423.661,92.939h0a1.554,1.554,0,0,1-1.561-1.561V84.961a1.554,1.554,0,0,1,1.561-1.561h0a1.554,1.554,0,0,1,1.561,1.561v6.417A1.456,1.456,0,0,1,423.661,92.939Z" transform="translate(-398.08 -83.4)" fill="#fff" stroke="#263238" stroke-linejoin="round" stroke-miterlimit="10" stroke-width="1"/>
          <path id="Trazado_902863" data-name="Trazado 902863" d="M437.561,92.939h0A1.554,1.554,0,0,1,436,91.378V84.961a1.554,1.554,0,0,1,1.561-1.561h0a1.554,1.554,0,0,1,1.561,1.561v6.417A1.5,1.5,0,0,1,437.561,92.939Z" transform="translate(-399.927 -83.4)" fill="#fff" stroke="#263238" stroke-linejoin="round" stroke-miterlimit="10" stroke-width="1"/>
          <path id="Trazado_902864" data-name="Trazado 902864" d="M451.461,92.939h0a1.554,1.554,0,0,1-1.561-1.561V84.961a1.554,1.554,0,0,1,1.561-1.561h0a1.554,1.554,0,0,1,1.561,1.561v6.417A1.554,1.554,0,0,1,451.461,92.939Z" transform="translate(-401.774 -83.4)" fill="#fff" stroke="#263238" stroke-linejoin="round" stroke-miterlimit="10" stroke-width="1"/>
          <path id="Trazado_902865" data-name="Trazado 902865" d="M465.361,92.939h0a1.554,1.554,0,0,1-1.561-1.561V84.961a1.554,1.554,0,0,1,1.561-1.561h0a1.554,1.554,0,0,1,1.561,1.561v6.417A1.554,1.554,0,0,1,465.361,92.939Z" transform="translate(-403.621 -83.4)" fill="#fff" stroke="#263238" stroke-linejoin="round" stroke-miterlimit="10" stroke-width="1"/>
        </g>
        <g id="Grupo_1107882" data-name="Grupo 1107882" transform="translate(2.775 22.372)">
          <rect id="Rectángulo_405157" data-name="Rectángulo 405157" width="10.059" height="10.059" fill="#fff" stroke="#263238" stroke-linejoin="round" stroke-miterlimit="10" stroke-width="1"/>
          <rect id="Rectángulo_405158" data-name="Rectángulo 405158" width="10.059" height="10.059" transform="translate(14.481)" fill="#fff" stroke="#263238" stroke-linejoin="round" stroke-miterlimit="10" stroke-width="1"/>
          <rect id="Rectángulo_405159" data-name="Rectángulo 405159" width="10.059" height="10.059" transform="translate(28.876)" fill="#fff" stroke="#263238" stroke-linejoin="round" stroke-miterlimit="10" stroke-width="1"/>
          <rect id="Rectángulo_405160" data-name="Rectángulo 405160" width="10.059" height="10.059" transform="translate(43.27)" fill="#fff" stroke="#263238" stroke-linejoin="round" stroke-miterlimit="10" stroke-width="1"/>
          <rect id="Rectángulo_405161" data-name="Rectángulo 405161" width="10.059" height="10.059" transform="translate(57.752)" fill="#fff" stroke="#263238" stroke-linejoin="round" stroke-miterlimit="10" stroke-width="1"/>
        </g>
        <g id="Grupo_1107883" data-name="Grupo 1107883" transform="translate(2.775 38.761)">
          <rect id="Rectángulo_405162" data-name="Rectángulo 405162" width="10.059" height="10.059" fill="#92e3a9" stroke="#263238" stroke-linejoin="round" stroke-miterlimit="10" stroke-width="1"/>
          <rect id="Rectángulo_405163" data-name="Rectángulo 405163" width="10.059" height="10.059" transform="translate(14.481)" fill="#fff" stroke="#263238" stroke-linejoin="round" stroke-miterlimit="10" stroke-width="1"/>
          <rect id="Rectángulo_405164" data-name="Rectángulo 405164" width="10.059" height="10.059" transform="translate(28.876)" fill="#92e3a9" stroke="#263238" stroke-linejoin="round" stroke-miterlimit="10" stroke-width="1"/>
          <rect id="Rectángulo_405165" data-name="Rectángulo 405165" width="10.059" height="10.059" transform="translate(43.27)" fill="#fff" stroke="#263238" stroke-linejoin="round" stroke-miterlimit="10" stroke-width="1"/>
          <rect id="Rectángulo_405166" data-name="Rectángulo 405166" width="10.059" height="10.059" transform="translate(57.752)" fill="#fff" stroke="#263238" stroke-linejoin="round" stroke-miterlimit="10" stroke-width="1"/>
        </g>
        <g id="Grupo_1107884" data-name="Grupo 1107884" transform="translate(2.775 55.237)">
          <rect id="Rectángulo_405167" data-name="Rectángulo 405167" width="10.059" height="10.059" fill="#fff" stroke="#263238" stroke-linejoin="round" stroke-miterlimit="10" stroke-width="1"/>
          <rect id="Rectángulo_405168" data-name="Rectángulo 405168" width="10.059" height="10.059" transform="translate(14.481)" fill="#fff" stroke="#263238" stroke-linejoin="round" stroke-miterlimit="10" stroke-width="1"/>
          <rect id="Rectángulo_405169" data-name="Rectángulo 405169" width="10.059" height="10.059" transform="translate(28.876)" fill="#fff" stroke="#263238" stroke-linejoin="round" stroke-miterlimit="10" stroke-width="1"/>
          <rect id="Rectángulo_405170" data-name="Rectángulo 405170" width="10.059" height="10.059" transform="translate(43.27)" fill="#fff" stroke="#263238" stroke-linejoin="round" stroke-miterlimit="10" stroke-width="1"/>
          <rect id="Rectángulo_405171" data-name="Rectángulo 405171" width="10.059" height="10.059" transform="translate(57.752)" fill="#92e3a9" stroke="#263238" stroke-linejoin="round" stroke-miterlimit="10" stroke-width="1"/>
        </g>
      </g>
    </g>
    <g id="Character_2" transform="translate(298.515 161.534)">
      <g id="Grupo_1107888" data-name="Grupo 1107888">
        <path id="Trazado_902866" data-name="Trazado 902866" d="M436.5,278.967a51.087,51.087,0,0,1-81.6,3.555c6.07-4.336,22.372-14.048,22.372-14.048s34.6-2.775,36.333-2.775a19.985,19.985,0,0,1,7.371,1.734C422.364,268.128,430.168,273.938,436.5,278.967Z" transform="translate(-343.194 -193.872)" fill="#92e3a9" stroke="#263238" stroke-linejoin="round" stroke-miterlimit="10" stroke-width="1"/>
        <path id="Trazado_902867" data-name="Trazado 902867" d="M442.509,250.267a49.734,49.734,0,0,1-7.891,18.383,51.281,51.281,0,1,1,8.671-23.76" transform="translate(-341.4 -183.642)" fill="none" stroke="#263238" stroke-linejoin="round" stroke-miterlimit="10" stroke-width="1"/>
        <g id="Grupo_1107887" data-name="Grupo 1107887" transform="translate(18.361)">
          <path id="Trazado_902868" data-name="Trazado 902868" d="M382.593,268.152s-3.555,20.811-3.3,21.765c.26.867,9.018-3.3,11.273-3.729s11.706.78,12.14,1.041,8.585,7.544,12.747,7.371c2.862-.087,8.411-21.592,8.585-25.407s-3.3-7.544-5.029-9.452-6.33-2.341-7.111-2.341S389.7,257.14,382.593,268.152Z" transform="translate(-364.794 -192.769)" fill="#92e3a9" stroke="#263238" stroke-linejoin="round" stroke-miterlimit="10" stroke-width="1"/>
          <path id="Trazado_902869" data-name="Trazado 902869" d="M384.9,267.7s7.111,17.6,9.8,19.771c5.636,4.683,11.88-6.417,14.308-9.972,1.821-2.775,3.555-5.55,5.2-8.411.78-1.387,2.341-3.3,2.428-4.943.173-2.081.607-26.448.607-26.448Z" transform="translate(-365.54 -190.152)" fill="#fff" stroke="#263238" stroke-linejoin="round" stroke-miterlimit="10" stroke-width="1"/>
          <g id="Grupo_1107886" data-name="Grupo 1107886">
            <path id="Trazado_902870" data-name="Trazado 902870" d="M381.64,187.838s-11.966,16.649-11.966,18.73,1.908,6.243,1.214,8.064-5.2,6.677-4.6,11.013c.607,4.249-.347,20.9.52,24.106.867,3.3,5.55,10.406,12.227,10.492s26.795-10.753,28.962-11.88c2.081-1.214,4.943-10.319,5.29-12.4a48.74,48.74,0,0,1,1.821-6.59s11.36-11.186,13.267-19.424c1.994-8.238-3.729-15.609-11.446-20.811s-24.453-7.284-30.35-5.81C380.513,184.89,381.64,187.838,381.64,187.838Z" transform="translate(-363.061 -182.867)" fill="#fff" stroke="#263238" stroke-linejoin="round" stroke-miterlimit="10" stroke-width="1"/>
            <path id="Trazado_902871" data-name="Trazado 902871" d="M416.84,189.139c-7.8-5.2-24.453-7.284-30.35-5.81-5.9,1.561-4.856,4.509-4.856,4.509s4.509-3.208,5.376-2.081c.867,1.214-.173,3.382,5.29,4.769s14.308-1.821,19.337.434,8.238,8.845,6.764,12.053-10.666,4.422-11.446,7.718,3.989,8.325,4.422,9.278-5.55,17.256-6.85,19.337c-1.387,2.081-10.319,5.376-10.319,5.376s-8.5-8.151-12.834-10.579c-4.249-2.428-8.151-2.428-10.666-.78a22.43,22.43,0,0,0-3.729,2.775l-.694-2.081c-.087,6.243-.26,13.614.347,15.609.867,3.3,5.55,10.406,12.227,10.492s26.795-10.753,28.962-11.88c2.081-1.214,4.943-10.319,5.29-12.4a48.738,48.738,0,0,1,1.821-6.59s11.36-11.186,13.267-19.424C430.194,201.713,424.558,194.342,416.84,189.139Z" transform="translate(-363.055 -182.867)" fill="#263238" stroke="#263238" stroke-linejoin="round" stroke-miterlimit="10" stroke-width="1"/>
            <path id="Trazado_902872" data-name="Trazado 902872" d="M420.3,232.383s5.029-8.064,8.238-6.417,1.648,8.932-1.3,12.227a10.954,10.954,0,0,1-6.937,3.469Z" transform="translate(-370.244 -188.563)" fill="#fff" stroke="#263238" stroke-linejoin="round" stroke-miterlimit="10" stroke-width="1"/>
            <path id="Trazado_902873" data-name="Trazado 902873" d="M377.946,214.4l1.041,7.2s-7.631,12.227-6.5,13.094c1.041.867,9.018,2.688,11.36,1.041" transform="translate(-363.875 -187.056)" fill="none" stroke="#263238" stroke-linejoin="round" stroke-miterlimit="10" stroke-width="1"/>
            <path id="Trazado_902874" data-name="Trazado 902874" d="M371.7,247.8a18.134,18.134,0,0,0,12.227,1.3s-1.127,4.509-5.723,5.029C373.608,254.737,371.7,247.8,371.7,247.8Z" transform="translate(-363.787 -191.494)" fill="#fff" stroke="#263238" stroke-linejoin="round" stroke-miterlimit="10" stroke-width="1"/>
            <path id="Trazado_902875" data-name="Trazado 902875" d="M389.176,210.248s-.52,1.3.347,1.821a93.8,93.8,0,0,0,9.1,2.948c1.474.347,2.081-.867.52-2.428S389.263,207.56,389.176,210.248Z" transform="translate(-366.088 -186.373)" fill="#263238" stroke="#263238" stroke-linejoin="round" stroke-miterlimit="10" stroke-width="1"/>
            <path id="Trazado_902876" data-name="Trazado 902876" d="M380,207.235s-.347,1.3-1.127,1.474-5.723-.867-6.764-1.214c-1.041-.26-.78-1.648.954-2.341S381.3,204.894,380,207.235Z" transform="translate(-363.759 -185.788)" fill="#263238" stroke="#263238" stroke-linejoin="round" stroke-miterlimit="10" stroke-width="1"/>
            <path id="Trazado_902877" data-name="Trazado 902877" d="M391.8,224.061c-.173,1.474-1.127,2.515-1.994,2.428s-1.474-1.387-1.214-2.862c.173-1.474,1.127-2.515,1.994-2.428S392.059,222.587,391.8,224.061Z" transform="translate(-366.023 -187.959)" fill="#263238" stroke="#263238" stroke-linejoin="round" stroke-miterlimit="10" stroke-width="1"/>
            <path id="Trazado_902878" data-name="Trazado 902878" d="M375.709,218.854c-.173,1.127-.867,1.994-1.561,1.908s-1.127-1.127-.954-2.255.867-1.994,1.561-1.908S375.882,217.726,375.709,218.854Z" transform="translate(-363.98 -187.348)" fill="#263238" stroke="#263238" stroke-linejoin="round" stroke-miterlimit="10" stroke-width="1"/>
            <path id="Trazado_902879" data-name="Trazado 902879" d="M401.363,223.776a9.068,9.068,0,0,1-10.232,7.891,9.229,9.229,0,0,1-7.544-10.492,8.988,8.988,0,1,1,17.776,2.6Z" transform="translate(-365.354 -186.894)" fill="none" stroke="#263238" stroke-linejoin="round" stroke-miterlimit="10" stroke-width="1"/>
            <path id="Trazado_902880" data-name="Trazado 902880" d="M376.9,218.167c-.694,4.509-4.336,7.8-8.325,7.2-3.9-.607-6.59-4.683-5.9-9.278.694-4.509,4.336-7.8,8.325-7.2C374.91,209.5,377.511,213.658,376.9,218.167Z" transform="translate(-362.574 -186.314)" fill="none" stroke="#263238" stroke-linejoin="round" stroke-miterlimit="10" stroke-width="1"/>
            <line id="Línea_565" data-name="Línea 565" x2="18.21" y2="0.867" transform="translate(35.489 38.27)" fill="none" stroke="#263238" stroke-linejoin="round" stroke-miterlimit="10" stroke-width="1"/>
            <path id="Trazado_902881" data-name="Trazado 902881" d="M383.315,220.269a3.365,3.365,0,0,0-3.815-1.3" transform="translate(-364.823 -187.636)" fill="none" stroke="#263238" stroke-linejoin="round" stroke-miterlimit="10" stroke-width="1"/>
          </g>
        </g>
      </g>
    </g>
    <g id="Character_1" transform="translate(40.068 60.167)">
      <g id="Grupo_1107895" data-name="Grupo 1107895">
        <path id="Trazado_902882" data-name="Trazado 902882" d="M198.476,200.672l-2.862-9.972-2.515,4.6Z" transform="translate(-63.25 -82.541)" fill="#263238" stroke="#263238" stroke-linejoin="round" stroke-miterlimit="10" stroke-width="1"/>
        <path id="Trazado_902883" data-name="Trazado 902883" d="M198.774,176.668l-4.422,18.644-8.151-7.2,2.948-10.666,1.561-13.874,5.029-1.474,2.688,4.509Z" transform="translate(-62.334 -78.741)" fill="#fff" stroke="#263238" stroke-linejoin="round" stroke-miterlimit="10" stroke-width="1"/>
        <path id="Trazado_902884" data-name="Trazado 902884" d="M194.4,179.8s.173,3.208,3.208,2.775" transform="translate(-63.423 -81.092)" fill="none" stroke="#263238" stroke-linejoin="round" stroke-miterlimit="10" stroke-width="1"/>
        <path id="Trazado_902885" data-name="Trazado 902885" d="M191.188,185.053h0a2.7,2.7,0,0,1-2.688-2.688V149.5h5.376v32.865A2.7,2.7,0,0,1,191.188,185.053Z" transform="translate(-62.639 -77.067)" fill="#263238" stroke="#263238" stroke-linejoin="round" stroke-miterlimit="10" stroke-width="1"/>
        <g id="Grupo_1107889" data-name="Grupo 1107889" transform="translate(127.161 76.335)">
          <path id="Trazado_902886" data-name="Trazado 902886" d="M196.07,154s-6.07,2.515-6.07,3.815,1.214,1.734,2.341,1.561c1.214-.173,4.856-1.3,5.376-2.775A1.733,1.733,0,0,0,196.07,154Z" transform="translate(-190 -154)" fill="#fff" stroke="#263238" stroke-linejoin="round" stroke-miterlimit="10" stroke-width="1"/>
          <path id="Trazado_902887" data-name="Trazado 902887" d="M197.962,159.5s-5.9.954-6.59,2.255.694,1.734,1.994,2.081c1.3.434,5.636.52,6.157-.26S200.737,159.587,197.962,159.5Z" transform="translate(-190.158 -154.731)" fill="#fff" stroke="#263238" stroke-linejoin="round" stroke-miterlimit="10" stroke-width="1"/>
          <path id="Trazado_902888" data-name="Trazado 902888" d="M199.229,166.2s-5.55-1.214-6.59-.26.173,1.821,1.041,2.6c.954.78,4.336,2.081,5.81,1.3S200.356,166.724,199.229,166.2Z" transform="translate(-190.297 -155.538)" fill="#fff" stroke="#263238" stroke-linejoin="round" stroke-miterlimit="10" stroke-width="1"/>
          <path id="Trazado_902889" data-name="Trazado 902889" d="M197.833,171.136s-5.376-1.041-5.636.173,1.561,2.341,2.862,2.775,2.6.434,3.3-.434C198.96,172.784,197.833,171.136,197.833,171.136Z" transform="translate(-190.288 -156.222)" fill="#fff" stroke="#263238" stroke-linejoin="round" stroke-miterlimit="10" stroke-width="1"/>
        </g>
        <path id="Trazado_902890" data-name="Trazado 902890" d="M187.209,160.6s-3.555.694-3.815,1.994.78,6.59,1.821,7.111,2.515-.694,2.515-2.862C187.729,164.589,187.209,160.6,187.209,160.6Z" transform="translate(-61.955 -78.541)" fill="#fff" stroke="#263238" stroke-linejoin="round" stroke-miterlimit="10" stroke-width="1"/>
        <path id="Trazado_902891" data-name="Trazado 902891" d="M189.9,206.7a18.3,18.3,0,0,0,2.6,2.341" transform="translate(-62.825 -84.666)" fill="none" stroke="#263238" stroke-linejoin="round" stroke-miterlimit="10" stroke-width="1"/>
        <path id="Trazado_902892" data-name="Trazado 902892" d="M181.5,197.2s2.515,3.035,5.116,5.983" transform="translate(-61.709 -83.404)" fill="none" stroke="#263238" stroke-linejoin="round" stroke-miterlimit="10" stroke-width="1"/>
        <g id="Grupo_1107894" data-name="Grupo 1107894">
          <g id="Grupo_1107890" data-name="Grupo 1107890" transform="translate(53.432 237.45)">
            <path id="Trazado_902893" data-name="Trazado 902893" d="M152.687,342.1s-3.9,26.361-6.157,37.114c-2.255,10.666-6.33,56.884-6.157,58.705s4.769,9.972,6.85,13.441a56.1,56.1,0,0,0,5.2,6.85s3.382,2.255.694,3.642-10.232.434-12.313-1.127-5.029-5.723-7.284-7.024c-2.255-1.387-4.509-.434-5.2-5.2s.434-7.024.867-13.874-1.387-92.35-1.387-92.35h24.887Z" transform="translate(-108.007 -340.106)" fill="#fff" stroke="#263238" stroke-linejoin="round" stroke-miterlimit="10" stroke-width="1"/>
            <path id="Trazado_902894" data-name="Trazado 902894" d="M153.152,477.336c2.688-1.387-.694-3.642-.694-3.642s-.867-.954-2.081-2.428c-3.208,2.428-7.631.954-10.579-1.994-3.208-3.208-11.186-9.972-11.186-9.972l-.52.173a19.43,19.43,0,0,0,.173,4.422c.694,4.769,2.948,3.9,5.2,5.2,2.255,1.387,5.2,5.463,7.284,7.024C142.92,477.77,150.464,478.724,153.152,477.336Z" transform="translate(-108.038 -355.677)" fill="#92e3a9" stroke="#263238" stroke-linejoin="round" stroke-miterlimit="10" stroke-width="1"/>
            <path id="Trazado_902895" data-name="Trazado 902895" d="M105.083,339.8s3.208,21.592,2.255,27.055c-.867,5.463-3.9,16.562-1.387,26.795s10.926,42.49,10.666,46.392-5.9,18.21-5.9,20.2,2.081,2.688,6.59,2.948,7.718-.26,9.539-2.948-.434-16.562-.434-20.725,2.081-61.394,2.948-70.5,1.561-27.749,1.561-27.749Z" transform="translate(-104.974 -339.8)" fill="#fff" stroke="#263238" stroke-linejoin="round" stroke-miterlimit="10" stroke-width="1"/>
            <path id="Trazado_902896" data-name="Trazado 902896" d="M113.521,471.187A37.731,37.731,0,0,0,111.7,477.6c0,2.081,2.081,2.688,6.59,2.948s7.718-.26,9.539-2.948c.78-1.127.78-4.249.607-7.8C123.753,472.748,116.816,471.881,113.521,471.187Z" transform="translate(-105.867 -357.072)" fill="#92e3a9" stroke="#263238" stroke-linejoin="round" stroke-miterlimit="10" stroke-width="1"/>
          </g>
          <path id="Trazado_902897" data-name="Trazado 902897" d="M88.532,264.2s-2.948,19.337-3.642,34.772,4.336,37.114,4.336,37.114h65.989s6.85-28.009,7.024-46.392c.26-18.383-1.387-22.025-1.387-22.025Z" transform="translate(-48.865 -92.306)" fill="#263238" stroke="#263238" stroke-linejoin="round" stroke-miterlimit="10" stroke-width="1"/>
          <g id="Grupo_1107892" data-name="Grupo 1107892" transform="translate(0 170.94)">
            <path id="Trazado_902898" data-name="Trazado 902898" d="M67.027,291.806l-1.127,7.8h5.116l.173-7.8A3.916,3.916,0,0,0,67.027,291.806Z" transform="translate(-46.351 -266.832)" fill="#ccc" stroke="#263238" stroke-linejoin="round" stroke-miterlimit="10" stroke-width="1"/>
            <path id="Trazado_902899" data-name="Trazado 902899" d="M77.789,263.1s-.607,5.55.26,7.111a27.653,27.653,0,0,0,3.035,4.076c.867,1.041,2.341,4.683,1.994,6.85s-.434,3.035-.434,3.035a6.558,6.558,0,0,1,.173,3.382c-.434,1.561-2.428,4.683-3.9,4.769-1.474.173-1.994-1.994-2.428-1.994a44.884,44.884,0,0,1-7.111-2.168c-1.908-.867-3.642.867-3.382-3.382s1.3-20.9,1.3-20.9Z" transform="translate(-46.36 -263.1)" fill="#fff" stroke="#263238" stroke-linejoin="round" stroke-miterlimit="10" stroke-width="1"/>
            <path id="Trazado_902900" data-name="Trazado 902900" d="M83.348,282.7a15.892,15.892,0,0,0-1.561,5.636,12.84,12.84,0,0,0,.173,4.509" transform="translate(-48.45 -265.704)" fill="none" stroke="#263238" stroke-linejoin="round" stroke-miterlimit="10" stroke-width="1"/>
            <path id="Trazado_902901" data-name="Trazado 902901" d="M82.42,286.7s4.943-.434,5.983,2.168.867,11.36.867,11.36H84.5s1.561-9.712.607-9.625a18.654,18.654,0,0,1-3.208,0A21.887,21.887,0,0,1,82.42,286.7Z" transform="translate(-48.476 -266.231)" fill="#ccc" stroke="#263238" stroke-linejoin="round" stroke-miterlimit="10" stroke-width="1"/>
            <g id="Grupo_1107891" data-name="Grupo 1107891" transform="translate(0 32.691)">
              <path id="Trazado_902902" data-name="Trazado 902902" d="M48.684,300.8s45.958,0,46.479,1.561,9.1,52.635,7.2,53.849-9.539,4.422-10.579,4.422-45.958-4.943-48.04-5.983C41.66,353.522,48.684,300.8,48.684,300.8Z" transform="translate(-43.355 -300.8)" fill="#ccc" stroke="#263238" stroke-linejoin="round" stroke-miterlimit="10" stroke-width="1"/>
              <path id="Trazado_902903" data-name="Trazado 902903" d="M100.877,303.942s-3.555,52.982-2.6,54.2c.867,1.214,1.041,1.561,1.908,1.214s8.238-2.428,8.238-4.769c0-2.255-6.33-49.774-6.33-49.774S101.4,302.728,100.877,303.942Z" transform="translate(-50.63 -301.167)" fill="#8c8c8c" stroke="#263238" stroke-linejoin="round" stroke-miterlimit="10" stroke-width="1"/>
              <path id="Trazado_902904" data-name="Trazado 902904" d="M51,302.8s13.527,29.743,17.776,30.61,22.372-28.182,24.107-28.876" transform="translate(-44.371 -301.066)" fill="#ccc" stroke="#263238" stroke-linejoin="round" stroke-miterlimit="10" stroke-width="1"/>
              <path id="Trazado_902905" data-name="Trazado 902905" d="M67.973,328.3,67.8,343.648l2.775,4.769,3.9-4.076L75,328.3Z" transform="translate(-46.603 -304.454)" fill="#707070" stroke="#263238" stroke-linejoin="round" stroke-miterlimit="10" stroke-width="1"/>
              <path id="Trazado_902906" data-name="Trazado 902906" d="M65.734,332.4l-.434,8.325,10.492.607.52-8.411Zm8.5,7.371-7.111-.347.26-5.636,7.111.347Z" transform="translate(-46.271 -304.998)" fill="#fff" stroke="#263238" stroke-linejoin="round" stroke-miterlimit="10" stroke-width="1"/>
            </g>
          </g>
          <path id="Trazado_902907" data-name="Trazado 902907" d="M105.249,149.214s-16.216-.607-21.939,0-10.059,8.411-10.492,17.6S72.038,185.461,71,190.4s-3.9,25.667-3.9,29.569-3.3,31.13-3.3,31.13l16.389.607s4.683-35.986,4.856-40.5,4.769-31.651,4.769-31.651,4.683,24.193,4.943,27.922-6.937,24.8-9.192,33.645-2.428,9.885-2.428,9.885,8.845,7.631,25.234,9.192c16.389,1.648,18.037,1.214,18.037,1.214l3.469-6.59,2.081,6.764a61.741,61.741,0,0,0,17.256-1.214c8.238-2.081,11.273-6.59,11.273-6.59l-13.527-48.56,3.729-8.411s9.625,18.644,11.88,21.332,5.29,2.081,7.8,0c2.428-2.081,11.1-22.979,11.1-22.979l-10.839-11.88-5.55,6.59s-5.723-21.505-7.371-26.274c-1.648-4.683-.434-12.92-9.452-14.395s-23.413.434-23.413.434Z" transform="translate(-46.072 -76.954)" fill="#92e3a9" stroke="#263238" stroke-linejoin="round" stroke-miterlimit="10" stroke-width="1"/>
          <path id="Trazado_902908" data-name="Trazado 902908" d="M134.8,185.4s4.422,10.666,4.422,15.348" transform="translate(-55.505 -81.836)" fill="none" stroke="#263238" stroke-linejoin="round" stroke-miterlimit="10" stroke-width="1"/>
          <path id="Trazado_902909" data-name="Trazado 902909" d="M139.232,217.9s-1.994,8.238-.607,10.926c1.387,2.6,1.648,3.642,1.648,5.463s-.607,2.6-.607,4.422-.173,20.985-.173,20.985" transform="translate(-55.948 -86.154)" fill="none" stroke="#263238" stroke-linejoin="round" stroke-miterlimit="10" stroke-width="1"/>
          <line id="Línea_566" data-name="Línea 566" y1="11.706" x2="3.208" transform="translate(43.829 90.903)" fill="none" stroke="#263238" stroke-linejoin="round" stroke-miterlimit="10" stroke-width="1"/>
          <line id="Línea_567" data-name="Línea 567" x1="1.561" y2="7.804" transform="translate(47.731 90.036)" fill="none" stroke="#263238" stroke-linejoin="round" stroke-miterlimit="10" stroke-width="1"/>
          <path id="Trazado_902910" data-name="Trazado 902910" d="M163.462,199.609s2.688-8.238,2.255-11.88C165.283,184,160.6,170.3,160.6,170.3" transform="translate(-58.932 -79.83)" fill="none" stroke="#263238" stroke-linejoin="round" stroke-miterlimit="10" stroke-width="1"/>
          <path id="Trazado_902911" data-name="Trazado 902911" d="M121.4,216.9a21.679,21.679,0,0,1-4.6,1.821" transform="translate(-53.113 -86.021)" fill="none" stroke="#263238" stroke-linejoin="round" stroke-miterlimit="10" stroke-width="1"/>
          <path id="Trazado_902912" data-name="Trazado 902912" d="M139.061,205.1s-7.371,5.29-13.961,8.932" transform="translate(-54.216 -84.454)" fill="none" stroke="#263238" stroke-linejoin="round" stroke-miterlimit="10" stroke-width="1"/>
          <line id="Línea_568" data-name="Línea 568" x2="4.249" transform="translate(29.088 166.171)" fill="none" stroke="#263238" stroke-linejoin="round" stroke-miterlimit="10" stroke-width="1"/>
          <line id="Línea_569" data-name="Línea 569" x2="7.024" transform="translate(18.942 166.171)" fill="none" stroke="#263238" stroke-linejoin="round" stroke-miterlimit="10" stroke-width="1"/>
          <path id="Trazado_902913" data-name="Trazado 902913" d="M186.972,100.4a22.372,22.372,0,1,0,22.372,22.372A22.371,22.371,0,0,0,186.972,100.4Zm0,39.975a17.6,17.6,0,1,1,17.6-17.6A17.616,17.616,0,0,1,186.972,140.375Z" transform="translate(-59.464 -70.543)" fill="#92e3a9" stroke="#263238" stroke-linejoin="round" stroke-miterlimit="10" stroke-width="1"/>
          <path id="Trazado_902914" data-name="Trazado 902914" d="M179.057,197.1s-5.81,7.8-6.157,12.14" transform="translate(-60.567 -83.391)" fill="none" stroke="#263238" stroke-linejoin="round" stroke-miterlimit="10" stroke-width="1"/>
          <path id="Trazado_902915" data-name="Trazado 902915" d="M174.229,203.4a52.733,52.733,0,0,0-5.029,3.815" transform="translate(-60.075 -84.228)" fill="none" stroke="#263238" stroke-linejoin="round" stroke-miterlimit="10" stroke-width="1"/>
          <line id="Línea_570" data-name="Línea 570" x1="0.434" y2="10.753" transform="translate(104.095 86.828)" fill="none" stroke="#263238" stroke-linejoin="round" stroke-miterlimit="10" stroke-width="1"/>
          <path id="Trazado_902916" data-name="Trazado 902916" d="M116.631,141.6s-4.076.347-5.55,2.255c-1.474,1.821-4.249,7.2-3.122,11.1s2.255,14.828,2.255,14.828l15.522-7.371s17.516,10.146,17.343,6.677-3.9-21.592-5.9-23.673a15.5,15.5,0,0,0-9.278-4.249C123.655,140.564,116.631,141.6,116.631,141.6Z" transform="translate(-51.904 -75.935)" fill="#92e3a9" stroke="#263238" stroke-linejoin="round" stroke-miterlimit="10" stroke-width="1"/>
          <path id="Trazado_902917" data-name="Trazado 902917" d="M114.947,127.2s.78,8.845.52,11.793c-.173,2.948-1.474,6.85-.52,8.151s15.348,36.073,17.516,26.448c2.255-9.625,2.775-27.749,2.775-27.749s-1.127-.173-1.648-4.249a53.488,53.488,0,0,1,0-9.625Z" transform="translate(-52.821 -74.104)" fill="#fff" stroke="#263238" stroke-linejoin="round" stroke-miterlimit="10" stroke-width="1"/>
          <path id="Trazado_902918" data-name="Trazado 902918" d="M123.4,133.1l11.36,10.839-.52-9.539Z" transform="translate(-53.99 -74.888)" fill="#263238" stroke="#263238" stroke-linejoin="round" stroke-miterlimit="10" stroke-width="1"/>
          <g id="Grupo_1107893" data-name="Grupo 1107893" transform="translate(33.363)">
            <path id="Trazado_902919" data-name="Trazado 902919" d="M104.61,71.979a8.487,8.487,0,0,0-6.5-5.81c-5.463-1.3-11.273,3.989-14.048,8.325s-2.688,8.585-1.214,12.747c1.474,4.076,6.07,6.764,8.845,6.59a7.889,7.889,0,0,0,6.85-4.509C100.187,86.287,105.13,73.713,104.61,71.979Z" transform="translate(-81.83 -65.969)" fill="#263238" stroke="#263238" stroke-linejoin="round" stroke-miterlimit="10" stroke-width="1"/>
            <path id="Trazado_902920" data-name="Trazado 902920" d="M106.318,72.49a22.694,22.694,0,0,0-11.1,15.088c-2.515,11.013,4.6,22.2,7.718,25.407,3.035,3.208,3.729,6.07,9.885,9.365,6.243,3.3,17.083,8.238,22.112,6.07C139.964,126.34,143,115.847,143,108.3s.173-8.325-.26-14.828A27.022,27.022,0,0,0,130.425,73.1C122.187,67.894,110.134,69.8,106.318,72.49Z" transform="translate(-83.538 -66.48)" fill="#fff" stroke="#263238" stroke-linejoin="round" stroke-miterlimit="10" stroke-width="1"/>
            <path id="Trazado_902921" data-name="Trazado 902921" d="M130.328,73.19c-8.238-5.29-20.291-3.3-24.107-.694a22.694,22.694,0,0,0-11.1,15.088c-1.387,6.243.26,12.487,2.515,17.343a3.058,3.058,0,0,1,2.515.52c2.341,1.3,5.81,4.249,7.284,2.341,1.474-1.821,1.474-3.208.434-8.064s1.041-15.348,10.753-19.684c7.891-3.555,13.874-2.775,17.516-1.908A26.933,26.933,0,0,0,130.328,73.19Z" transform="translate(-83.528 -66.486)" fill="#263238" stroke="#263238" stroke-linejoin="round" stroke-miterlimit="10" stroke-width="1"/>
            <path id="Trazado_902922" data-name="Trazado 902922" d="M107.065,116.344s-4.769-7.457-9.278-6.07-.52,9.1,2.081,10.579c2.688,1.474,7.024-.173,7.371-.434" transform="translate(-83.678 -71.832)" fill="#fff" stroke="#263238" stroke-linejoin="round" stroke-miterlimit="10" stroke-width="1"/>
            <path id="Trazado_902923" data-name="Trazado 902923" d="M137.41,102.5s-.954,6.33-.434,7.024,4.6,5.983,4.076,7.284a4.081,4.081,0,0,1-3.989,2.255" transform="translate(-89.136 -70.822)" fill="none" stroke="#263238" stroke-linejoin="round" stroke-miterlimit="10" stroke-width="1"/>
            <path id="Trazado_902924" data-name="Trazado 902924" d="M128.4,125.5s5.81,2.081,11.1,0" transform="translate(-88.017 -73.878)" fill="none" stroke="#263238" stroke-linejoin="round" stroke-miterlimit="10" stroke-width="1"/>
            <path id="Trazado_902925" data-name="Trazado 902925" d="M121.9,111.846a5.667,5.667,0,0,1,6.33-1.214" transform="translate(-87.153 -71.844)" fill="none" stroke="#263238" stroke-linejoin="round" stroke-miterlimit="10" stroke-width="1"/>
            <path id="Trazado_902926" data-name="Trazado 902926" d="M128.332,101.977s-6.764-1.3-10.232,3.815" transform="translate(-86.649 -70.733)" fill="none" stroke="#263238" stroke-linejoin="round" stroke-miterlimit="10" stroke-width="1"/>
            <path id="Trazado_902927" data-name="Trazado 902927" d="M138.6,97.295s3.729-6.243,8.325-3.035" transform="translate(-89.372 -69.606)" fill="none" stroke="#263238" stroke-linejoin="round" stroke-miterlimit="10" stroke-width="1"/>
            <path id="Trazado_902928" data-name="Trazado 902928" d="M144.6,108.128c0,1.387-.607,2.428-1.3,2.428s-1.3-1.127-1.3-2.428c0-1.387.607-2.428,1.3-2.428S144.6,106.827,144.6,108.128Z" transform="translate(-89.824 -71.247)" fill="#263238"/>
          </g>
        </g>
      </g>
    </g>
    <g id="Files" transform="translate(230.704 261.544)">
      <g id="Grupo_1107896" data-name="Grupo 1107896">
        <path id="Trazado_902929" data-name="Trazado 902929" d="M313.407,337.194,307.424,311.7H263.2l6.5,25.494Z" transform="translate(-263.2 -299.994)" fill="#92e3a9" stroke="#263238" stroke-linejoin="round" stroke-miterlimit="10" stroke-width="1"/>
        <path id="Trazado_902930" data-name="Trazado 902930" d="M270.062,336.144,265.9,303.8h48.473l-.607,32.344Z" transform="translate(-263.559 -298.944)" fill="#fff" stroke="#263238" stroke-linejoin="round" stroke-miterlimit="10" stroke-width="1"/>
        <path id="Trazado_902931" data-name="Trazado 902931" d="M271.449,330.544,267.2,298.2h48.56l-.694,32.344Z" transform="translate(-263.731 -298.2)" fill="#fff" stroke="#263238" stroke-linejoin="round" stroke-miterlimit="10" stroke-width="1"/>
        <path id="Trazado_902932" data-name="Trazado 902932" d="M316.879,336.4l3.642-28.356H284.188L282.02,305.7H269.1l1.387,30.7Z" transform="translate(-263.984 -299.196)" fill="#92e3a9" stroke="#263238" stroke-linejoin="round" stroke-miterlimit="10" stroke-width="1"/>
      </g>
      <g id="Grupo_1107897" data-name="Grupo 1107897" transform="translate(0 43.184)">
        <path id="Trazado_902933" data-name="Trazado 902933" d="M313.407,386.894,297.625,361.4H263.2l6.5,25.494Z" transform="translate(-263.2 -349.78)" fill="#92e3a9" stroke="#263238" stroke-linejoin="round" stroke-miterlimit="10" stroke-width="1"/>
        <path id="Trazado_902934" data-name="Trazado 902934" d="M270.062,385.844,265.9,353.5h48.473l-.607,32.344Z" transform="translate(-263.559 -348.731)" fill="#fff" stroke="#263238" stroke-linejoin="round" stroke-miterlimit="10" stroke-width="1"/>
        <path id="Trazado_902935" data-name="Trazado 902935" d="M271.449,380.344,267.2,348h48.56l-.694,32.344Z" transform="translate(-263.731 -348)" fill="#fff" stroke="#263238" stroke-linejoin="round" stroke-miterlimit="10" stroke-width="1"/>
        <path id="Trazado_902936" data-name="Trazado 902936" d="M316.879,386.1l3.642-28.355H284.188L282.02,355.4H269.1l1.387,30.7Z" transform="translate(-263.984 -348.983)" fill="#92e3a9" stroke="#263238" stroke-linejoin="round" stroke-miterlimit="10" stroke-width="1"/>
      </g>
      <g id="Grupo_1107898" data-name="Grupo 1107898" transform="translate(0 86.281)">
        <path id="Trazado_902937" data-name="Trazado 902937" d="M313.407,436.607,307.424,411.2H263.2l6.5,25.407Z" transform="translate(-263.2 -399.494)" fill="#92e3a9" stroke="#263238" stroke-linejoin="round" stroke-miterlimit="10" stroke-width="1"/>
        <path id="Trazado_902938" data-name="Trazado 902938" d="M270.062,435.544,265.9,403.2h48.473l-.607,32.344Z" transform="translate(-263.559 -398.431)" fill="#fff" stroke="#263238" stroke-linejoin="round" stroke-miterlimit="10" stroke-width="1"/>
        <path id="Trazado_902939" data-name="Trazado 902939" d="M271.449,430.044,267.2,397.7h48.56l-.694,32.344Z" transform="translate(-263.731 -397.7)" fill="#fff" stroke="#263238" stroke-linejoin="round" stroke-miterlimit="10" stroke-width="1"/>
        <path id="Trazado_902940" data-name="Trazado 902940" d="M316.879,435.8l3.642-28.356H284.188L282.02,405.1H269.1l1.387,30.7Z" transform="translate(-263.984 -398.683)" fill="#92e3a9" stroke="#263238" stroke-linejoin="round" stroke-miterlimit="10" stroke-width="1"/>
      </g>
    </g>
    <g id="Indicators" transform="translate(170.351 275.765)">
      <g id="Grupo_1107900" data-name="Grupo 1107900">
        <line id="Línea_571" data-name="Línea 571" x1="47.346" transform="translate(28.962 12.14)" fill="none" stroke="#263238" stroke-linejoin="round" stroke-miterlimit="10" stroke-width="1"/>
        <g id="Grupo_1107899" data-name="Grupo 1107899">
          <line id="Línea_572" data-name="Línea 572" x2="24.627" fill="none" stroke="#263238" stroke-linejoin="round" stroke-miterlimit="10" stroke-width="1"/>
          <line id="Línea_573" data-name="Línea 573" x2="24.627" transform="translate(0 5.376)" fill="none" stroke="#263238" stroke-linejoin="round" stroke-miterlimit="10" stroke-width="1"/>
          <line id="Línea_574" data-name="Línea 574" x2="24.627" transform="translate(0 10.666)" fill="none" stroke="#263238" stroke-linejoin="round" stroke-miterlimit="10" stroke-width="1"/>
          <line id="Línea_575" data-name="Línea 575" x2="24.627" transform="translate(0 15.955)" fill="none" stroke="#263238" stroke-linejoin="round" stroke-miterlimit="10" stroke-width="1"/>
        </g>
      </g>
      <g id="Grupo_1107902" data-name="Grupo 1107902" transform="translate(0 39.195)">
        <line id="Línea_576" data-name="Línea 576" x1="47.346" transform="translate(28.962 12.053)" fill="none" stroke="#263238" stroke-linejoin="round" stroke-miterlimit="10" stroke-width="1"/>
        <g id="Grupo_1107901" data-name="Grupo 1107901">
          <line id="Línea_577" data-name="Línea 577" x2="24.627" fill="none" stroke="#263238" stroke-linejoin="round" stroke-miterlimit="10" stroke-width="1"/>
          <line id="Línea_578" data-name="Línea 578" x2="24.627" transform="translate(0 5.29)" fill="none" stroke="#263238" stroke-linejoin="round" stroke-miterlimit="10" stroke-width="1"/>
          <line id="Línea_579" data-name="Línea 579" x2="24.627" transform="translate(0 10.579)" fill="none" stroke="#263238" stroke-linejoin="round" stroke-miterlimit="10" stroke-width="1"/>
          <line id="Línea_580" data-name="Línea 580" x2="24.627" transform="translate(0 15.955)" fill="none" stroke="#263238" stroke-linejoin="round" stroke-miterlimit="10" stroke-width="1"/>
        </g>
      </g>
      <g id="Grupo_1107904" data-name="Grupo 1107904" transform="translate(0 83.592)">
        <line id="Línea_581" data-name="Línea 581" x1="47.346" transform="translate(28.962 12.053)" fill="none" stroke="#263238" stroke-linejoin="round" stroke-miterlimit="10" stroke-width="1"/>
        <g id="Grupo_1107903" data-name="Grupo 1107903">
          <line id="Línea_582" data-name="Línea 582" x2="24.627" fill="none" stroke="#263238" stroke-linejoin="round" stroke-miterlimit="10" stroke-width="1"/>
          <line id="Línea_583" data-name="Línea 583" x2="24.627" transform="translate(0 5.29)" fill="none" stroke="#263238" stroke-linejoin="round" stroke-miterlimit="10" stroke-width="1"/>
          <line id="Línea_584" data-name="Línea 584" x2="24.627" transform="translate(0 10.666)" fill="none" stroke="#263238" stroke-linejoin="round" stroke-miterlimit="10" stroke-width="1"/>
          <line id="Línea_585" data-name="Línea 585" x2="24.627" transform="translate(0 15.955)" fill="none" stroke="#263238" stroke-linejoin="round" stroke-miterlimit="10" stroke-width="1"/>
        </g>
      </g>
    </g>
    <g id="Speech_Bubble" transform="translate(226.109 192.693)">
      <g id="Grupo_1107906" data-name="Grupo 1107906">
        <path id="Trazado_902941" data-name="Trazado 902941" d="M340.018,238.4l-14.741-3.815V223.743a4.94,4.94,0,0,0-4.943-4.943H262.843a4.94,4.94,0,0,0-4.943,4.943v28.616a4.94,4.94,0,0,0,4.943,4.943h57.491a4.94,4.94,0,0,0,4.943-4.943V242.213Z" transform="translate(-257.9 -218.8)" fill="#92e3a9" stroke="#263238" stroke-linejoin="round" stroke-miterlimit="10" stroke-width="1"/>
        <g id="Grupo_1107905" data-name="Grupo 1107905" transform="translate(18.383 16.562)">
          <path id="Trazado_902942" data-name="Trazado 902942" d="M284.129,240.415a2.515,2.515,0,1,1-2.515-2.515A2.516,2.516,0,0,1,284.129,240.415Z" transform="translate(-279.1 -237.9)" fill="#263238" stroke="#263238" stroke-linejoin="round" stroke-miterlimit="10" stroke-width="1"/>
          <path id="Trazado_902943" data-name="Trazado 902943" d="M299.029,240.415a2.515,2.515,0,1,1-2.515-2.515A2.516,2.516,0,0,1,299.029,240.415Z" transform="translate(-281.08 -237.9)" fill="#263238" stroke="#263238" stroke-linejoin="round" stroke-miterlimit="10" stroke-width="1"/>
          <circle id="Elipse_12235" data-name="Elipse 12235" cx="2.515" cy="2.515" r="2.515" transform="translate(25.841)" fill="#263238" stroke="#263238" stroke-linejoin="round" stroke-miterlimit="10" stroke-width="1"/>
        </g>
      </g>
    </g>
    <g id="Chart" transform="translate(180.757 24.381)">
      <g id="Grupo_1107907" data-name="Grupo 1107907" transform="translate(0.347 69.631)">
        <line id="Línea_586" data-name="Línea 586" x2="145.593" transform="translate(0 55.584)" fill="none" stroke="#263238" stroke-linejoin="round" stroke-miterlimit="10" stroke-width="1"/>
        <line id="Línea_587" data-name="Línea 587" x2="145.593" transform="translate(0 40.149)" fill="none" stroke="#263238" stroke-linejoin="round" stroke-miterlimit="10" stroke-width="1"/>
        <line id="Línea_588" data-name="Línea 588" x2="145.593" transform="translate(0 26.708)" fill="none" stroke="#263238" stroke-linejoin="round" stroke-miterlimit="10" stroke-width="1"/>
        <line id="Línea_589" data-name="Línea 589" x2="145.593" transform="translate(0 13.354)" fill="none" stroke="#263238" stroke-linejoin="round" stroke-miterlimit="10" stroke-width="1"/>
        <line id="Línea_590" data-name="Línea 590" x2="145.593" fill="none" stroke="#263238" stroke-linejoin="round" stroke-miterlimit="10" stroke-width="1"/>
        <line id="Línea_591" data-name="Línea 591" y2="4.943" transform="translate(25.927 56.017)" fill="none" stroke="#263238" stroke-linejoin="round" stroke-miterlimit="10" stroke-width="1"/>
        <line id="Línea_592" data-name="Línea 592" y2="4.943" transform="translate(56.451 56.017)" fill="none" stroke="#263238" stroke-linejoin="round" stroke-miterlimit="10" stroke-width="1"/>
        <line id="Línea_593" data-name="Línea 593" y2="4.943" transform="translate(86.974 56.017)" fill="none" stroke="#263238" stroke-linejoin="round" stroke-miterlimit="10" stroke-width="1"/>
        <line id="Línea_594" data-name="Línea 594" y2="4.943" transform="translate(117.411 56.017)" fill="none" stroke="#263238" stroke-linejoin="round" stroke-miterlimit="10" stroke-width="1"/>
      </g>
      <g id="Grupo_1107908" data-name="Grupo 1107908">
        <rect id="Rectángulo_405172" data-name="Rectángulo 405172" width="23.413" height="50.034" transform="translate(0 70.152)" fill="#263238" stroke="#263238" stroke-linejoin="round" stroke-miterlimit="10" stroke-width="1"/>
        <rect id="Rectángulo_405173" data-name="Rectángulo 405173" width="23.413" height="43.617" transform="translate(30.783 76.655)" fill="#92e3a9" stroke="#263238" stroke-linejoin="round" stroke-miterlimit="10" stroke-width="1"/>
        <rect id="Rectángulo_405174" data-name="Rectángulo 405174" width="23.413" height="66.336" transform="translate(61.567 53.936)" fill="#263238" stroke="#263238" stroke-linejoin="round" stroke-miterlimit="10" stroke-width="1"/>
        <rect id="Rectángulo_405175" data-name="Rectángulo 405175" width="23.413" height="54.803" transform="translate(92.35 65.382)" fill="#92e3a9" stroke="#263238" stroke-linejoin="round" stroke-miterlimit="10" stroke-width="1"/>
        <rect id="Rectángulo_405176" data-name="Rectángulo 405176" width="23.413" height="87.234" transform="translate(123.134 33.038)" fill="#263238" stroke="#263238" stroke-linejoin="round" stroke-miterlimit="10" stroke-width="1"/>
        <path id="Trazado_902944" data-name="Trazado 902944" d="M344.893,24.7l-21.679,7.284,5.983,5.29L309.513,59.646,282.459,52.8a3.408,3.408,0,0,0-2.862.52l-30.61,21.679L211.7,79.417l.78,6.85,38.154-4.6a3.117,3.117,0,0,0,1.561-.607l30-21.332,27.488,7.024a3.446,3.446,0,0,0,3.469-1.041l21.158-23.933,5.983,5.29Z" transform="translate(-206.41 -24.7)" fill="#92e3a9" stroke="#263238" stroke-linejoin="round" stroke-miterlimit="10" stroke-width="1"/>
      </g>
    </g>
  </g>
</svg>
