<svg xmlns="http://www.w3.org/2000/svg" width="190" height="166.083" viewBox="0 0 190 166.083">
  <g id="OBJECTS" transform="translate(-57.116 -83.137)">
    <g id="Grupo_1107858" data-name="Grupo 1107858" transform="translate(57.116 83.137)">
      <path id="Trazado_902796" data-name="Trazado 902796" d="M78.283,229.042s-27.7-17.479-19.724-35.035c4.69-10.323,25.045-6.479,22.9-23.659-2.808-22.525-25.177-37.7-12.268-56.961,13.292-19.834,46.476,3.824,78.912-17.164,20.936-13.547,58.2-21.125,71.7.412,12.9,20.576-12.889,43.463,5.836,58.836s40.172,38.568-7.167,65.9-85.237,6.23-85.237,6.23" transform="translate(-57.116 -83.137)" fill="#cbe6ff"/>
      <path id="Trazado_902797" data-name="Trazado 902797" d="M129.991,107.785c1.312,3.879,17.486,3.618,25.832,2.168s9.145-4.418,3.914-7.886S127.46,100.3,129.991,107.785Z" transform="translate(-94.087 -91.887)" fill="#cbe6ff"/>
      <path id="Trazado_902798" data-name="Trazado 902798" d="M212.628,105.557c-3.679-2.568-11.035,4.6-4.188,4.6S215.164,107.326,212.628,105.557Z" transform="translate(-132.633 -94.255)" fill="#cbe6ff"/>
      <path id="Trazado_902799" data-name="Trazado 902799" d="M91.343,195.087c-4.9-.783-.315,13.6,6.7,11.748S95.46,195.745,91.343,195.087Z" transform="translate(-73.482 -140.047)" fill="#e2f1ff"/>
      <path id="Trazado_902800" data-name="Trazado 902800" d="M86.22,178.423c-2.806,1.012-1.849,7.11,2.3,5.817S88.979,177.428,86.22,178.423Z" transform="translate(-71.101 -131.528)" fill="#e2f1ff"/>
      <g id="Grupo_1107857" data-name="Grupo 1107857" transform="translate(3.782 10.179)">
        <g id="Grupo_1107842" data-name="Grupo 1107842" transform="translate(0 91.3)">
          <g id="Grupo_1107838" data-name="Grupo 1107838" transform="translate(29.012)">
            <path id="Trazado_902801" data-name="Trazado 902801" d="M129.129,306.661a4.231,4.231,0,0,1,1.492,2.626,4.432,4.432,0,0,1-2.735-1.293.925.925,0,0,1-.045-1.288A.947.947,0,0,1,129.129,306.661Z" transform="translate(-125.751 -298.159)" fill="#246d79"/>
            <path id="Trazado_902802" data-name="Trazado 902802" d="M124,292.917a.947.947,0,0,1,1.272-.209,4.018,4.018,0,0,1,1.6,1.838c-.412-1.221-.841-2.437-1.3-3.641-.145-.377.432-.626.577-.248.086.224.166.451.25.675a2.57,2.57,0,0,1,.194-1.314.636.636,0,0,1,.774-.387.621.621,0,0,1,.387.774,3.007,3.007,0,0,1-1.112,1.584q.653,1.779,1.234,3.583a3.9,3.9,0,0,1,.254-2.189.938.938,0,0,1,1.141-.572.917.917,0,0,1,.572,1.141,4.409,4.409,0,0,1-1.723,2.394c.327,1.049.642,2.1.933,3.162.041.149.077.3.116.447a4.892,4.892,0,0,1,.341-2.644,1.19,1.19,0,0,1,1.448-.725,1.163,1.163,0,0,1,.725,1.447,5.58,5.58,0,0,1-2.219,3.058q.315,1.236.6,2.48a4.54,4.54,0,0,1,.382-1.635,1.191,1.191,0,0,1,1.447-.726,1.163,1.163,0,0,1,.725,1.448,5.614,5.614,0,0,1-2.113,2.988c.2.976.383,1.954.549,2.936.061.366.119.732.176,1.1a3.027,3.027,0,0,1,.443-1.52.744.744,0,0,1,.959-.32.727.727,0,0,1,.32.959,3.5,3.5,0,0,1-1.6,1.677q.239,1.63.422,3.269c.044.4-.577.493-.621.091-.146-1.328-.328-2.653-.532-3.973a3.517,3.517,0,0,1-2.25-.283.726.726,0,0,1-.364-.944.743.743,0,0,1,.944-.364,3.219,3.219,0,0,1,1.628,1.3q-.387-2.454-.9-4.885c-.008-.04-.018-.079-.027-.118a4.432,4.432,0,0,1-2.722-1.292.925.925,0,0,1-.045-1.288.947.947,0,0,1,1.288-.045,3.977,3.977,0,0,1,1.321,1.928q-.909-4.075-2.179-8.057c-.075-.234-.158-.465-.235-.7a4.446,4.446,0,0,1-2.859-.935A.924.924,0,0,1,124,292.917Z" transform="translate(-123.837 -289.601)" fill="#246d79"/>
          </g>
          <path id="Trazado_902803" data-name="Trazado 902803" d="M101.976,315a17.151,17.151,0,0,1-3.641,2.307,16.831,16.831,0,0,1-4.345,1.321,16.831,16.831,0,0,1,3.819-2.459,17.194,17.194,0,0,1,4.028-1.269q-.838-.613-1.694-1.2a13.6,13.6,0,0,1-6.688,3.074,13.887,13.887,0,0,1,3.153-2.03,14.083,14.083,0,0,1,3.487-1.075c-.722-.49-1.456-.961-2.2-1.419a9.608,9.608,0,0,1-1.821,1.117,9.42,9.42,0,0,1-2.43.739,9.4,9.4,0,0,1,2.135-1.375,9.538,9.538,0,0,1,1.868-.63c-.385-.235-.768-.475-1.159-.7a.643.643,0,0,1-.123-.9.656.656,0,0,1,.9-.123c.909.526,1.8,1.084,2.676,1.657a14.259,14.259,0,0,1-.765-2.99,13.9,13.9,0,0,1,.008-3.75A13.879,13.879,0,0,1,100.2,308.9a14.248,14.248,0,0,1,.046,3.331c.761.5,1.515,1.019,2.253,1.557a19.193,19.193,0,0,1-.323-4.4,18.688,18.688,0,0,1,.933-4.956,18.681,18.681,0,0,1,.458,5.023,19.129,19.129,0,0,1-.8,4.539c.461.34.92.683,1.371,1.037a21.092,21.092,0,0,1,.682-4.768,20.562,20.562,0,0,1,2.165-5.113,20.563,20.563,0,0,1-.684,5.51,21.062,21.062,0,0,1-1.871,4.608q.734.582,1.451,1.185a21.077,21.077,0,0,1,1.4-4.345,20.565,20.565,0,0,1,2.973-4.689,20.579,20.579,0,0,1-1.577,5.324,21.07,21.07,0,0,1-2.435,4.028c.385.33.77.661,1.146,1a21.091,21.091,0,0,1,3.59-2.811,20.56,20.56,0,0,1,5.088-2.224,20.561,20.561,0,0,1-4.285,3.53,21,21,0,0,1-3.99,1.88q.668.613,1.32,1.245a21.078,21.078,0,0,1,4.507-2.009,20.562,20.562,0,0,1,5.483-.874,20.581,20.581,0,0,1-5.035,2.34,21.059,21.059,0,0,1-4.656.841c.3.3.605.592.9.9.166.17.324.347.488.518a21.054,21.054,0,0,1,4.369-1.126,20.582,20.582,0,0,1,5.552-.006,20.564,20.564,0,0,1-5.339,1.524,20.925,20.925,0,0,1-4.07.151q.593.638,1.165,1.295a21.088,21.088,0,0,1,4.767.139,20.574,20.574,0,0,1,5.326,1.568,20.568,20.568,0,0,1-5.552-.052,20.919,20.919,0,0,1-3.986-1.023c.761.893,1.492,1.812,2.2,2.747a21.1,21.1,0,0,1,4.453,1.132,20.573,20.573,0,0,1,4.867,2.671,19.972,19.972,0,0,1-8.544-2.757,62.162,62.162,0,0,1,4.159,6.548,59.523,59.523,0,0,1,3.842,8.51c.278.773-.9,1.281-1.176.5a59.462,59.462,0,0,0-7.6-14.469c-.049-.069-.1-.135-.15-.2a15.882,15.882,0,0,1-.545,3.24,15.519,15.519,0,0,1-1.685,3.834,15.518,15.518,0,0,1,.572-4.149,15.777,15.777,0,0,1,1.375-3.306q-1.323-1.8-2.777-3.505a18.127,18.127,0,0,1-.651,4.366,17.715,17.715,0,0,1-1.923,4.376,17.71,17.71,0,0,1,.653-4.735,18.066,18.066,0,0,1,1.791-4.161c-.542-.631-1.093-1.253-1.661-1.861a21.468,21.468,0,0,1-.759,4.832,20.951,20.951,0,0,1-2.275,5.178,20.962,20.962,0,0,1,.773-5.6,21.435,21.435,0,0,1,1.989-4.7c-.53-.561-1.074-1.109-1.625-1.65A19.687,19.687,0,0,1,106.593,325a19.3,19.3,0,0,1-3.078,4.2,19.3,19.3,0,0,1,1.812-4.882,19.71,19.71,0,0,1,2.9-4.015q-.759-.739-1.544-1.451a18.874,18.874,0,0,1-5.9,8.384,18.866,18.866,0,0,1,5.877-8.408q-.762-.691-1.548-1.356a18.88,18.88,0,0,1-7.616,6.837,18.873,18.873,0,0,1,7.578-6.869c-.321-.271-.639-.545-.965-.809-.22-.178-.448-.346-.671-.522a17.168,17.168,0,0,1-3.111,2.637,16.834,16.834,0,0,1-4.108,1.936,16.845,16.845,0,0,1,3.422-2.986,17.3,17.3,0,0,1,3.574-1.761C102.8,315.619,102.391,315.3,101.976,315Z" transform="translate(-79.376 -297.145)" fill="#249c9c"/>
          <g id="Grupo_1107839" data-name="Grupo 1107839" transform="translate(3.743 50.87)">
            <path id="Trazado_902804" data-name="Trazado 902804" d="M91.871,403.208a5.085,5.085,0,0,1,3.537-.813,5.324,5.324,0,0,1-2.431,2.7,1.112,1.112,0,0,1-1.5-.392A1.139,1.139,0,0,1,91.871,403.208Z" transform="translate(-82.042 -397.801)" fill="#4eb5b2"/>
            <path id="Trazado_902805" data-name="Trazado 902805" d="M75.178,400.415a1.139,1.139,0,0,1,.2-1.536,4.826,4.826,0,0,1,2.668-1.21c-1.548.054-3.1.129-4.641.248-.484.037-.572-.712-.087-.75.288-.022.576-.035.864-.055a3.093,3.093,0,0,1-1.446-.675.765.765,0,0,1-.18-1.024.747.747,0,0,1,1.024-.18,3.617,3.617,0,0,1,1.442,1.825q2.274-.139,4.551-.187a4.683,4.683,0,0,1-2.433-1.046,1.128,1.128,0,0,1-.265-1.511,1.1,1.1,0,0,1,1.511-.265,5.3,5.3,0,0,1,2.163,2.809c1.321-.015,2.642-.016,3.963.015.185,0,.37.015.555.02a5.884,5.884,0,0,1-2.927-1.3,1.431,1.431,0,0,1-.337-1.917,1.4,1.4,0,0,1,1.917-.337,6.709,6.709,0,0,1,2.757,3.608q1.532.063,3.061.167a5.451,5.451,0,0,1-1.751-1,1.431,1.431,0,0,1-.337-1.917,1.4,1.4,0,0,1,1.916-.337,6.746,6.746,0,0,1,2.713,3.463c1.192.11,2.382.231,3.57.38q.664.083,1.327.176a3.636,3.636,0,0,1-1.6-1.033.894.894,0,0,1-.038-1.215.873.873,0,0,1,1.215-.038,4.209,4.209,0,0,1,1.378,2.424q1.96.287,3.909.64c.477.087.37.834-.109.747-1.58-.288-3.167-.536-4.758-.756a4.224,4.224,0,0,1-1.1,2.493.873.873,0,0,1-1.212.094.893.893,0,0,1-.094-1.212,3.865,3.865,0,0,1,2.062-1.425q-2.959-.4-5.936-.644l-.146-.01a5.331,5.331,0,0,1-2.426,2.69,1.112,1.112,0,0,1-1.5-.392,1.139,1.139,0,0,1,.392-1.5,4.783,4.783,0,0,1,2.675-.858c-3.337-.238-6.684-.333-10.028-.265-.3.006-.59.022-.885.03a5.341,5.341,0,0,1-2.061,2.97A1.112,1.112,0,0,1,75.178,400.415Z" transform="translate(-72.427 -393.098)" fill="#4eb5b2"/>
          </g>
          <g id="Grupo_1107841" data-name="Grupo 1107841" transform="translate(0 26.702)">
            <g id="Grupo_1107840" data-name="Grupo 1107840" transform="translate(20.78)">
              <path id="Trazado_902806" data-name="Trazado 902806" d="M126.235,369.625s-5.94.368-10.526-6.6l2.449-1.825-3.543.412-2.506-3.364,3.593-.343-4.711-1.156,4.218-1.927-5.383.363a24.265,24.265,0,0,1-2.737-11.262s6.168-.061,12.76,7.442l-1.009,3.22,1.8-2.165s4.42,5.394,5.985,9.916l-1.207,2.416,1.564-1.447A8.919,8.919,0,0,1,126.235,369.625Z" transform="translate(-107.088 -343.928)" fill="#165965"/>
              <path id="Trazado_902807" data-name="Trazado 902807" d="M124.66,358.8a29.265,29.265,0,0,0-.38,4.792c-.63-1.056-1.273-2.1-1.941-3.134,0,0,0-.01,0-.015a10.123,10.123,0,0,1-.083-1.526c0-.137,0-.184.013-.314s.018-.249.03-.373c.027-.263.064-.525.11-.787a.385.385,0,0,0-.334-.449.444.444,0,0,0-.475.353,10.8,10.8,0,0,0-.16,1.762q-2.617-3.9-5.593-7.54c-.149-.182-.3-.362-.453-.543a.346.346,0,0,0,.008-.082,8.613,8.613,0,0,1-.074-.989c0-.081,0-.161,0-.241a1.94,1.94,0,0,1,0-.206.13.13,0,0,0,0-.023c0-.02,0-.04,0-.06,0-.045.006-.091.009-.136.006-.086.014-.171.023-.257a.388.388,0,0,0-.334-.449.441.441,0,0,0-.474.353,9.533,9.533,0,0,0-.05,1.044q-1.338-1.56-2.738-3.066c-.344-.369-1.019.127-.671.5q2.771,2.973,5.286,6.165a33.659,33.659,0,0,0-3.789-.921.44.44,0,0,0-.474.353.388.388,0,0,0,.334.449,32.025,32.025,0,0,1,4.569,1.184.411.411,0,0,0,.192.019,97.909,97.909,0,0,1,6.708,9.945q1.54,2.622,2.914,5.34c.229.451,1,.142.773-.314q-1.211-2.393-2.548-4.716a.408.408,0,0,0,.052-.222,28.174,28.174,0,0,1,.349-5.8C125.553,358.375,124.745,358.28,124.66,358.8Z" transform="translate(-109.081 -345.38)" fill="#0b4951"/>
            </g>
            <path id="Trazado_902808" data-name="Trazado 902808" d="M105.8,382.074s-8.113,3.793-18.379-3.424l2.422-3.906-4.733,2.532-5.366-3.327,4.842-2.464-7.233.982,4.842-5.026-7.337,3.479a36.52,36.52,0,0,1-10.048-14.257s8.6-3.49,21.974,3.376l.365,5.065,1.318-4.022s9.166,5.113,13.854,10.58l-.356,4.049,1.391-2.89S106.647,377.191,105.8,382.074Z" transform="translate(-64.811 -349.953)" fill="#246d79"/>
            <path id="Trazado_902809" data-name="Trazado 902809" d="M97.812,368.391a44.008,44.008,0,0,0,2.113,6.92c-1.464-1.131-2.943-2.242-4.448-3.317,0-.007,0-.015-.006-.022a15.2,15.2,0,0,1-.957-2.091c-.072-.194-.094-.26-.154-.446s-.112-.358-.163-.539q-.162-.574-.28-1.162a.58.58,0,0,0-.716-.444.668.668,0,0,0-.469.757,16.183,16.183,0,0,0,.748,2.555c-3.878-2.676-7.875-5.178-11.993-7.469-.31-.173-.623-.34-.934-.51a.479.479,0,0,0-.033-.118,12.764,12.764,0,0,1-.649-1.344q-.069-.168-.134-.338a2.924,2.924,0,0,1-.109-.291.183.183,0,0,0-.009-.032l-.029-.086c-.021-.065-.042-.13-.062-.2-.038-.123-.075-.248-.11-.372a.584.584,0,0,0-.716-.444.664.664,0,0,0-.469.757,14.4,14.4,0,0,0,.506,1.49Q76,360.2,73.213,358.867c-.686-.327-1.357.74-.664,1.071q5.52,2.634,10.8,5.713a50.591,50.591,0,0,0-5.814.8.662.662,0,0,0-.469.757.584.584,0,0,0,.716.444,48.343,48.343,0,0,1,7.05-.866.623.623,0,0,0,.279-.08A147.285,147.285,0,0,1,100,376.93q3.6,2.821,7.028,5.868c.569.506,1.482-.356.909-.866q-3.017-2.681-6.171-5.2a.614.614,0,0,0-.049-.34A42.386,42.386,0,0,1,99,368.079C98.831,367.307,97.645,367.619,97.812,368.391Z" transform="translate(-68.597 -351.493)" fill="#1a5463"/>
          </g>
        </g>
        <g id="Grupo_1107847" data-name="Grupo 1107847" transform="translate(134.346 75.152)">
          <g id="Grupo_1107843" data-name="Grupo 1107843" transform="translate(2.936 16.148)">
            <path id="Trazado_902810" data-name="Trazado 902810" d="M354.381,306.661a4.229,4.229,0,0,0-1.492,2.626,4.432,4.432,0,0,0,2.735-1.293.925.925,0,0,0,.045-1.288A.947.947,0,0,0,354.381,306.661Z" transform="translate(-348.577 -298.159)" fill="#246d79"/>
            <path id="Trazado_902811" data-name="Trazado 902811" d="M353.13,292.917a.947.947,0,0,0-1.272-.209,4.018,4.018,0,0,0-1.6,1.838c.412-1.221.841-2.437,1.3-3.641.145-.377-.432-.626-.577-.248-.086.224-.166.451-.25.675a2.574,2.574,0,0,0-.193-1.314.636.636,0,0,0-.774-.387.622.622,0,0,0-.388.774,3.007,3.007,0,0,0,1.112,1.584q-.653,1.779-1.234,3.583a3.9,3.9,0,0,0-.254-2.189.938.938,0,0,0-1.141-.572.917.917,0,0,0-.572,1.141,4.408,4.408,0,0,0,1.723,2.394c-.327,1.049-.642,2.1-.932,3.162-.041.149-.077.3-.117.447a4.891,4.891,0,0,0-.341-2.644,1.19,1.19,0,0,0-1.447-.725,1.163,1.163,0,0,0-.725,1.447,5.582,5.582,0,0,0,2.219,3.058q-.315,1.236-.6,2.48a4.541,4.541,0,0,0-.382-1.635,1.191,1.191,0,0,0-1.448-.726,1.163,1.163,0,0,0-.725,1.448,5.614,5.614,0,0,0,2.113,2.988c-.2.976-.383,1.954-.549,2.936-.061.366-.119.732-.176,1.1a3.026,3.026,0,0,0-.442-1.52.744.744,0,0,0-.959-.32.727.727,0,0,0-.321.959,3.5,3.5,0,0,0,1.6,1.677q-.239,1.63-.422,3.269c-.044.4.577.493.621.091.147-1.328.328-2.653.532-3.973a3.517,3.517,0,0,0,2.25-.283.726.726,0,0,0,.364-.944.743.743,0,0,0-.943-.364,3.22,3.22,0,0,0-1.628,1.3q.387-2.454.9-4.885c.008-.04.018-.079.027-.118a4.432,4.432,0,0,0,2.722-1.292.925.925,0,0,0,.045-1.288.947.947,0,0,0-1.288-.045,3.977,3.977,0,0,0-1.321,1.928q.909-4.075,2.179-8.057c.075-.234.158-.465.235-.7a4.446,4.446,0,0,0,2.859-.935A.925.925,0,0,0,353.13,292.917Z" transform="translate(-344.116 -289.601)" fill="#246d79"/>
          </g>
          <path id="Trazado_902812" data-name="Trazado 902812" d="M372.891,272.643a25.849,25.849,0,0,0,5.48,3.472,25.331,25.331,0,0,0,6.54,1.988,25.317,25.317,0,0,0-5.747-3.7,25.9,25.9,0,0,0-6.062-1.911q1.26-.923,2.549-1.8a20.463,20.463,0,0,0,10.065,4.627,20.912,20.912,0,0,0-4.745-3.055,21.178,21.178,0,0,0-5.249-1.619q1.63-1.106,3.31-2.136a14.471,14.471,0,0,0,2.74,1.681,14.163,14.163,0,0,0,3.656,1.112,14.181,14.181,0,0,0-3.213-2.069,14.343,14.343,0,0,0-2.812-.948c.58-.353,1.156-.715,1.744-1.055a.968.968,0,0,0,.185-1.349.988.988,0,0,0-1.349-.185c-1.368.791-2.706,1.631-4.028,2.494a21.414,21.414,0,0,0,1.151-4.5,20.911,20.911,0,0,0-.012-5.644,20.91,20.91,0,0,0-1.532,5.432,21.427,21.427,0,0,0-.069,5.013c-1.146.758-2.281,1.534-3.39,2.344a28.881,28.881,0,0,0,.487-6.623,28.119,28.119,0,0,0-1.4-7.46,28.137,28.137,0,0,0-.69,7.56,28.807,28.807,0,0,0,1.2,6.832c-.694.512-1.385,1.028-2.063,1.561a31.737,31.737,0,0,0-1.027-7.177,30.964,30.964,0,0,0-3.258-7.7,30.977,30.977,0,0,0,1.029,8.293,31.726,31.726,0,0,0,2.816,6.935q-1.1.877-2.184,1.783a31.717,31.717,0,0,0-2.114-6.54,30.959,30.959,0,0,0-4.475-7.058,30.974,30.974,0,0,0,2.374,8.012,31.731,31.731,0,0,0,3.666,6.062c-.579.5-1.158.995-1.725,1.506a31.722,31.722,0,0,0-5.4-4.231,30.962,30.962,0,0,0-7.657-3.347,30.953,30.953,0,0,0,6.45,5.313,31.68,31.68,0,0,0,6,2.829q-1.006.923-1.986,1.873a31.722,31.722,0,0,0-6.784-3.024,30.953,30.953,0,0,0-8.253-1.315,30.961,30.961,0,0,0,7.578,3.522,31.676,31.676,0,0,0,7.008,1.266c-.453.447-.911.891-1.355,1.347-.249.256-.488.521-.734.78a31.659,31.659,0,0,0-6.575-1.694,30.966,30.966,0,0,0-8.357-.008,30.951,30.951,0,0,0,8.036,2.293,31.419,31.419,0,0,0,6.126.228q-.892.961-1.754,1.949a31.724,31.724,0,0,0-7.175.208,30.962,30.962,0,0,0-8.017,2.36,30.963,30.963,0,0,0,8.356-.078,31.512,31.512,0,0,0,6-1.539c-1.146,1.344-2.245,2.727-3.312,4.135a31.759,31.759,0,0,0-6.7,1.7,30.945,30.945,0,0,0-7.326,4.02,30.063,30.063,0,0,0,12.859-4.15,93.57,93.57,0,0,0-6.259,9.856,89.46,89.46,0,0,0-5.783,12.81c-.418,1.163,1.35,1.928,1.77.76a89.51,89.51,0,0,1,11.439-21.777c.074-.1.152-.2.227-.306a23.827,23.827,0,0,0,.82,4.876,23.34,23.34,0,0,0,2.536,5.771,23.351,23.351,0,0,0-.861-6.245,23.79,23.79,0,0,0-2.069-4.977q1.993-2.715,4.179-5.276a27.3,27.3,0,0,0,.98,6.572,26.656,26.656,0,0,0,2.895,6.587,26.659,26.659,0,0,0-.983-7.127,27.2,27.2,0,0,0-2.695-6.263c.815-.95,1.646-1.886,2.5-2.8A32.351,32.351,0,0,0,361.6,291a31.533,31.533,0,0,0,3.424,7.793,31.559,31.559,0,0,0-1.162-8.432,32.271,32.271,0,0,0-2.993-7.075c.8-.844,1.617-1.67,2.447-2.483a29.626,29.626,0,0,0,2.627,6.9,29.046,29.046,0,0,0,4.633,6.323,29.035,29.035,0,0,0-2.727-7.349,29.631,29.631,0,0,0-4.36-6.042q1.142-1.113,2.323-2.185a28.4,28.4,0,0,0,8.885,12.619,28.406,28.406,0,0,0-8.845-12.655q1.147-1.04,2.33-2.041a28.407,28.407,0,0,0,11.464,10.29,29.042,29.042,0,0,0-5.04-6,29.356,29.356,0,0,0-6.366-4.336c.483-.407.962-.819,1.453-1.217.332-.268.675-.522,1.011-.785a25.8,25.8,0,0,0,4.683,3.969,25.332,25.332,0,0,0,6.183,2.914,25.318,25.318,0,0,0-5.151-4.494,25.973,25.973,0,0,0-5.38-2.65C371.653,273.578,372.267,273.1,372.891,272.643Z" transform="translate(-338.528 -256.747)" fill="#249c9c"/>
          <g id="Grupo_1107844" data-name="Grupo 1107844" transform="translate(7.665 67.018)">
            <path id="Trazado_902813" data-name="Trazado 902813" d="M390.55,403.208a5.085,5.085,0,0,0-3.537-.813,5.324,5.324,0,0,0,2.431,2.7,1.112,1.112,0,0,0,1.5-.392A1.14,1.14,0,0,0,390.55,403.208Z" transform="translate(-370.658 -397.801)" fill="#4eb5b2"/>
            <path id="Trazado_902814" data-name="Trazado 902814" d="M380.707,400.415a1.139,1.139,0,0,0-.2-1.536,4.826,4.826,0,0,0-2.668-1.21c1.548.054,3.1.129,4.641.248.484.037.572-.712.087-.75-.288-.022-.576-.035-.864-.055a3.091,3.091,0,0,0,1.446-.675.764.764,0,0,0,.18-1.024.747.747,0,0,0-1.024-.18,3.619,3.619,0,0,0-1.441,1.825q-2.274-.139-4.551-.187a4.683,4.683,0,0,0,2.433-1.046,1.128,1.128,0,0,0,.265-1.511,1.1,1.1,0,0,0-1.511-.265,5.3,5.3,0,0,0-2.163,2.809c-1.321-.015-2.642-.016-3.963.015-.185,0-.37.015-.555.02a5.884,5.884,0,0,0,2.927-1.3,1.431,1.431,0,0,0,.337-1.917,1.4,1.4,0,0,0-1.917-.337,6.709,6.709,0,0,0-2.757,3.608q-1.532.063-3.061.167a5.451,5.451,0,0,0,1.751-1,1.431,1.431,0,0,0,.337-1.917,1.4,1.4,0,0,0-1.917-.337,6.746,6.746,0,0,0-2.713,3.463c-1.192.11-2.382.231-3.57.38q-.664.083-1.327.176a3.636,3.636,0,0,0,1.6-1.033.894.894,0,0,0,.038-1.215.873.873,0,0,0-1.215-.038,4.209,4.209,0,0,0-1.378,2.424q-1.96.287-3.908.64c-.477.087-.37.834.109.747,1.58-.288,3.167-.536,4.758-.756a4.224,4.224,0,0,0,1.1,2.493.873.873,0,0,0,1.212.094.893.893,0,0,0,.094-1.212,3.865,3.865,0,0,0-2.062-1.425q2.959-.4,5.936-.644l.146-.01a5.329,5.329,0,0,0,2.426,2.69,1.112,1.112,0,0,0,1.5-.392,1.139,1.139,0,0,0-.392-1.5,4.783,4.783,0,0,0-2.675-.858c3.337-.238,6.684-.333,10.028-.265.295.006.59.022.885.03a5.341,5.341,0,0,0,2.061,2.97A1.112,1.112,0,0,0,380.707,400.415Z" transform="translate(-353.738 -393.098)" fill="#4eb5b2"/>
          </g>
          <g id="Grupo_1107846" data-name="Grupo 1107846" transform="translate(0 42.85)">
            <g id="Grupo_1107845" data-name="Grupo 1107845" transform="translate(0.185)">
              <path id="Trazado_902815" data-name="Trazado 902815" d="M339.537,369.625s5.94.368,10.526-6.6l-2.449-1.825,3.543.412,2.506-3.364-3.593-.343,4.711-1.156-4.218-1.927,5.383.363a24.265,24.265,0,0,0,2.737-11.262s-6.168-.061-12.76,7.442l1.009,3.22-1.8-2.165s-4.42,5.394-5.985,9.916l1.207,2.416-1.564-1.447A8.919,8.919,0,0,0,339.537,369.625Z" transform="translate(-338.52 -343.928)" fill="#165965"/>
              <path id="Trazado_902816" data-name="Trazado 902816" d="M344.748,358.8a29.265,29.265,0,0,1,.38,4.792c.63-1.056,1.273-2.1,1.941-3.134,0,0,0-.01,0-.015a10.116,10.116,0,0,0,.083-1.526c0-.137,0-.184-.013-.314s-.018-.249-.03-.373c-.027-.263-.064-.525-.11-.787a.385.385,0,0,1,.334-.449.444.444,0,0,1,.475.353,10.74,10.74,0,0,1,.16,1.762q2.617-3.9,5.593-7.54c.149-.182.3-.362.453-.543a.346.346,0,0,1-.008-.082,8.611,8.611,0,0,0,.074-.989c0-.081,0-.161,0-.241a1.948,1.948,0,0,0,0-.206.127.127,0,0,1,0-.023c0-.02,0-.04,0-.06,0-.045-.006-.091-.009-.136q-.01-.128-.023-.257a.388.388,0,0,1,.334-.449.441.441,0,0,1,.474.353,9.541,9.541,0,0,1,.05,1.044q1.338-1.56,2.738-3.066c.344-.369,1.019.127.671.5q-2.771,2.973-5.286,6.165a33.66,33.66,0,0,1,3.789-.921.44.44,0,0,1,.474.353.388.388,0,0,1-.334.449,32.025,32.025,0,0,0-4.569,1.184.409.409,0,0,1-.192.019,97.917,97.917,0,0,0-6.708,9.945q-1.54,2.622-2.914,5.34c-.229.451-1,.142-.773-.314q1.211-2.393,2.549-4.716a.408.408,0,0,1-.052-.222,28.175,28.175,0,0,0-.349-5.8C343.854,358.375,344.663,358.28,344.748,358.8Z" transform="translate(-340.162 -345.38)" fill="#0b4951"/>
            </g>
            <path id="Trazado_902817" data-name="Trazado 902817" d="M338.282,382.074s8.114,3.793,18.379-3.424l-2.422-3.906,4.733,2.532,5.366-3.327-4.842-2.464,7.233.982-4.842-5.026,7.337,3.479a36.52,36.52,0,0,0,10.048-14.257s-8.6-3.49-21.974,3.376l-.365,5.065-1.318-4.022s-9.166,5.113-13.854,10.58l.356,4.049-1.391-2.89S337.436,377.191,338.282,382.074Z" transform="translate(-338.143 -349.953)" fill="#246d79"/>
            <path id="Trazado_902818" data-name="Trazado 902818" d="M351.724,368.391a44.009,44.009,0,0,1-2.113,6.92c1.464-1.131,2.943-2.242,4.448-3.317,0-.007,0-.015.006-.022a15.2,15.2,0,0,0,.957-2.091c.072-.194.094-.26.154-.446s.112-.358.163-.539c.109-.383.2-.771.28-1.162a.58.58,0,0,1,.716-.444.668.668,0,0,1,.469.757,16.179,16.179,0,0,1-.748,2.555c3.878-2.676,7.875-5.178,11.993-7.469.31-.173.623-.34.934-.51a.476.476,0,0,1,.033-.118,12.772,12.772,0,0,0,.649-1.344q.069-.168.134-.338a2.93,2.93,0,0,0,.109-.291.182.182,0,0,1,.009-.032l.029-.086c.021-.065.042-.13.062-.2.038-.123.075-.248.11-.372a.584.584,0,0,1,.716-.444.664.664,0,0,1,.469.757,14.392,14.392,0,0,1-.506,1.49q2.734-1.445,5.526-2.781c.686-.327,1.357.74.664,1.071q-5.52,2.634-10.8,5.713a50.593,50.593,0,0,1,5.814.8.662.662,0,0,1,.469.757.584.584,0,0,1-.716.444,48.343,48.343,0,0,0-7.05-.866.621.621,0,0,1-.279-.08,147.34,147.34,0,0,0-14.881,10.221q-3.6,2.821-7.028,5.868c-.569.506-1.482-.356-.909-.866q3.017-2.681,6.171-5.2a.614.614,0,0,1,.049-.34,42.391,42.391,0,0,0,2.715-8.318C350.705,367.307,351.891,367.619,351.724,368.391Z" transform="translate(-339.809 -351.493)" fill="#1a5463"/>
          </g>
        </g>
        <g id="Grupo_1107852" data-name="Grupo 1107852" transform="translate(36.193)">
          <path id="Trazado_902819" data-name="Trazado 902819" d="M191.071,261.506l.625-4.734c.334-2.526-1.276-4.574-3.6-4.574H150.286l-1.23,9.308-.759,5.743-7.1,53.771c-.774,5.857,2.958,10.6,8.336,10.6h82.556c5.377,0,10.364-4.748,11.138-10.6l7.862-59.514Z" transform="translate(-139.793 -179.282)" fill="#060a0e"/>
          <g id="Grupo_1107850" data-name="Grupo 1107850" transform="translate(28.893)">
            <path id="Trazado_902820" data-name="Trazado 902820" d="M249.562,197.823l-52.33-30.911c24.977-13.6,12.275-49.462,37.251-63.064l52.33,30.911C261.837,148.362,274.539,184.22,249.562,197.823Z" transform="translate(-197.232 -103.848)" fill="#fff"/>
            <g id="Grupo_1107848" data-name="Grupo 1107848" transform="translate(20.62 5.719)">
              <path id="Trazado_902821" data-name="Trazado 902821" d="M259.4,161.634l-20.215-11.941c3.383-12.363,5.126-25.693,15.017-34.211l20.215,11.941C264.526,135.942,262.783,149.272,259.4,161.634Z" transform="translate(-239.185 -115.483)" fill="#d9d9d9"/>
            </g>
            <g id="Grupo_1107849" data-name="Grupo 1107849" transform="translate(57.381 19.835)">
              <path id="Trazado_902822" data-name="Trazado 902822" d="M335.384,158.911l-21.408-12.646a28.532,28.532,0,0,1,2.155-2.062l21.408,12.646A28.341,28.341,0,0,0,335.384,158.911Z" transform="translate(-313.976 -144.203)" fill="#feae1a"/>
            </g>
            <path id="Trazado_902823" data-name="Trazado 902823" d="M320.291,160.375l-11.7-6.91q.534-.755,1.115-1.481l11.7,6.91Q320.824,159.62,320.291,160.375Z" transform="translate(-253.858 -128.325)" fill="#868686"/>
            <path id="Trazado_902824" data-name="Trazado 902824" d="M249.094,196.308l-11.7-6.91q.277-.906.538-1.822l11.7,6.91Q249.371,195.4,249.094,196.308Z" transform="translate(-217.655 -146.423)" fill="#868686"/>
            <path id="Trazado_902825" data-name="Trazado 902825" d="M256.517,205.738,236.3,193.8q.147-.448.29-.9l20.215,11.941Q256.666,205.29,256.517,205.738Z" transform="translate(-217.099 -149.129)" fill="#d9d9d9"/>
            <path id="Trazado_902826" data-name="Trazado 902826" d="M255.345,209.148,235.13,197.208q.159-.441.312-.886l20.215,11.941Q255.5,208.708,255.345,209.148Z" transform="translate(-216.503 -150.87)" fill="#d9d9d9"/>
            <path id="Trazado_902827" data-name="Trazado 902827" d="M326.1,173.266,304.7,160.621c.105-.188.211-.375.32-.561l21.408,12.646Q326.261,172.984,326.1,173.266Z" transform="translate(-251.876 -132.431)" fill="#d9d9d9"/>
            <path id="Trazado_902828" data-name="Trazado 902828" d="M322.977,179.456,301.569,166.81q.134-.3.272-.589l21.408,12.646Q323.111,179.16,322.977,179.456Z" transform="translate(-250.286 -135.564)" fill="#d9d9d9"/>
            <path id="Trazado_902829" data-name="Trazado 902829" d="M320.312,185.921,298.9,173.275q.115-.307.233-.612l21.408,12.646Q320.427,185.614,320.312,185.921Z" transform="translate(-248.931 -138.84)" fill="#d9d9d9"/>
            <path id="Trazado_902830" data-name="Trazado 902830" d="M318.012,192.609,296.6,179.964c.066-.211.134-.421.2-.631l21.408,12.646Q318.112,192.293,318.012,192.609Z" transform="translate(-247.762 -142.231)" fill="#d9d9d9"/>
            <path id="Trazado_902831" data-name="Trazado 902831" d="M315.986,199.464l-21.408-12.646q.089-.322.18-.643l21.408,12.646Q316.075,199.141,315.986,199.464Z" transform="translate(-246.731 -145.71)" fill="#d9d9d9"/>
            <path id="Trazado_902832" data-name="Trazado 902832" d="M314.14,206.43l-21.408-12.646q.083-.326.167-.651l21.408,12.646Q314.223,206.1,314.14,206.43Z" transform="translate(-245.793 -149.248)" fill="#d9d9d9"/>
            <path id="Trazado_902833" data-name="Trazado 902833" d="M312.382,213.453l-21.408-12.646.162-.654L312.544,212.8C312.49,213.017,312.436,213.235,312.382,213.453Z" transform="translate(-244.899 -152.818)" fill="#d9d9d9"/>
            <path id="Trazado_902834" data-name="Trazado 902834" d="M310.618,220.478,289.21,207.833c.056-.217.111-.434.166-.652l21.408,12.646Z" transform="translate(-244.002 -156.392)" fill="#d9d9d9"/>
            <path id="Trazado_902835" data-name="Trazado 902835" d="M308.755,227.451,287.347,214.8q.091-.321.179-.644l21.408,12.646Q308.845,227.129,308.755,227.451Z" transform="translate(-243.054 -159.941)" fill="#d9d9d9"/>
            <path id="Trazado_902836" data-name="Trazado 902836" d="M306.7,234.314l-21.408-12.646c.067-.21.134-.42.2-.632L306.9,233.683C306.834,233.893,306.768,234.1,306.7,234.314Z" transform="translate(-242.009 -163.437)" fill="#d9d9d9"/>
            <path id="Trazado_902837" data-name="Trazado 902837" d="M304.36,241.016,282.952,228.37q.116-.306.23-.614L304.591,240.4Q304.477,240.71,304.36,241.016Z" transform="translate(-240.82 -166.854)" fill="#d9d9d9"/>
            <path id="Trazado_902838" data-name="Trazado 902838" d="M301.643,247.5l-21.408-12.646q.136-.294.269-.591l21.408,12.646Q301.779,247.2,301.643,247.5Z" transform="translate(-239.438 -170.162)" fill="#d9d9d9"/>
          </g>
          <g id="Grupo_1107851" data-name="Grupo 1107851" transform="translate(4.721 17.575)">
            <path id="Trazado_902839" data-name="Trazado 902839" d="M153.579,235.568h73.592l7.77-81.811H161.349Z" transform="translate(-150.863 -146.802)" fill="#d9d9d9"/>
            <path id="Trazado_902840" data-name="Trazado 902840" d="M150.872,232.812h73.592l6.575-83.954H157.447Z" transform="translate(-149.486 -144.311)" fill="#fe811a"/>
            <path id="Trazado_902841" data-name="Trazado 902841" d="M148.053,227.3h74.69l5.478-83.954H163.11Z" transform="translate(-148.053 -141.508)" fill="#feae1a"/>
            <path id="Trazado_902842" data-name="Trazado 902842" d="M225.236,228.293H151.644V148.471l8.865-8.865h64.727Z" transform="translate(-149.879 -139.606)" fill="#fff"/>
            <rect id="Rectángulo_405244" data-name="Rectángulo 405244" width="28.429" height="44.914" transform="translate(6.832 6.955)" fill="#d9d9d9"/>
            <line id="Línea_1758" data-name="Línea 1758" x1="24.622" y2="41.168" transform="translate(8.641 8.694)" fill="none" stroke="#fff" stroke-linecap="round" stroke-linejoin="round" stroke-miterlimit="10" stroke-width="1"/>
            <line id="Línea_1759" data-name="Línea 1759" x2="24.622" y2="41.168" transform="translate(8.641 8.694)" fill="none" stroke="#fff" stroke-linecap="round" stroke-linejoin="round" stroke-miterlimit="10" stroke-width="1"/>
            <rect id="Rectángulo_405245" data-name="Rectángulo 405245" width="30.107" height="3.477" transform="translate(40.441 6.955)" fill="#feae1a"/>
            <rect id="Rectángulo_405246" data-name="Rectángulo 405246" width="16.45" height="2.23" transform="translate(40.441 13.212)" fill="#868686"/>
            <rect id="Rectángulo_405247" data-name="Rectángulo 405247" width="16.451" height="2.23" transform="translate(6.832 53.356)" fill="#868686"/>
            <rect id="Rectángulo_405248" data-name="Rectángulo 405248" width="28.429" height="1.115" transform="translate(6.832 56.567)" fill="#d9d9d9"/>
            <rect id="Rectángulo_405249" data-name="Rectángulo 405249" width="28.429" height="1.115" transform="translate(6.832 58.663)" fill="#d9d9d9"/>
            <rect id="Rectángulo_405250" data-name="Rectángulo 405250" width="30.107" height="0.782" transform="translate(40.441 19.02)" fill="#d9d9d9"/>
            <rect id="Rectángulo_405251" data-name="Rectángulo 405251" width="30.107" height="0.782" transform="translate(40.441 23.153)" fill="#d9d9d9"/>
            <rect id="Rectángulo_405252" data-name="Rectángulo 405252" width="30.107" height="0.782" transform="translate(40.441 27.285)" fill="#d9d9d9"/>
            <rect id="Rectángulo_405253" data-name="Rectángulo 405253" width="30.107" height="0.782" transform="translate(40.441 31.418)" fill="#d9d9d9"/>
            <rect id="Rectángulo_405254" data-name="Rectángulo 405254" width="30.107" height="0.782" transform="translate(40.441 35.55)" fill="#d9d9d9"/>
            <rect id="Rectángulo_405255" data-name="Rectángulo 405255" width="30.107" height="0.782" transform="translate(40.441 39.683)" fill="#d9d9d9"/>
            <rect id="Rectángulo_405256" data-name="Rectángulo 405256" width="30.107" height="0.782" transform="translate(40.441 43.815)" fill="#d9d9d9"/>
            <rect id="Rectángulo_405257" data-name="Rectángulo 405257" width="30.107" height="0.782" transform="translate(40.441 47.948)" fill="#d9d9d9"/>
            <rect id="Rectángulo_405258" data-name="Rectángulo 405258" width="30.107" height="0.782" transform="translate(40.441 52.08)" fill="#d9d9d9"/>
            <rect id="Rectángulo_405259" data-name="Rectángulo 405259" width="30.107" height="0.782" transform="translate(40.441 56.213)" fill="#d9d9d9"/>
            <rect id="Rectángulo_405260" data-name="Rectángulo 405260" width="30.107" height="0.782" transform="translate(40.441 60.345)" fill="#d9d9d9"/>
            <rect id="Rectángulo_405261" data-name="Rectángulo 405261" width="30.107" height="0.782" transform="translate(40.441 64.478)" fill="#d9d9d9"/>
          </g>
          <path id="Trazado_902843" data-name="Trazado 902843" d="M225.222,272.3l-36.59-1.785V267.31a4.938,4.938,0,0,0-4.93-4.938l-32.057-.05v5.632L192.678,286.8" transform="translate(-145.158 -184.43)" fill="#d9d9d9"/>
          <path id="Trazado_902844" data-name="Trazado 902844" d="M180.463,273.976V269.63a4.2,4.2,0,0,0-4.2-4.2H138.448v63.187a9.736,9.736,0,0,0,9.736,9.736H230.74a9.736,9.736,0,0,0,9.736-9.736V273.976Z" transform="translate(-138.448 -186.011)" fill="#1d262d"/>
          <rect id="Rectángulo_405262" data-name="Rectángulo 405262" width="38.454" height="21.188" transform="translate(6.708 121.486)" fill="#061122"/>
          <rect id="Rectángulo_405263" data-name="Rectángulo 405263" width="15.655" height="15.655" transform="translate(10.28 124.432)" fill="#feae1a"/>
          <rect id="Rectángulo_405264" data-name="Rectángulo 405264" width="13.708" height="3.325" transform="translate(28.979 124.432)" fill="#feae1a"/>
          <rect id="Rectángulo_405265" data-name="Rectángulo 405265" width="13.708" height="0.905" transform="translate(28.979 128.852)" fill="#feae1a"/>
          <rect id="Rectángulo_405266" data-name="Rectángulo 405266" width="13.708" height="0.905" transform="translate(28.979 130.852)" fill="#feae1a"/>
          <rect id="Rectángulo_405267" data-name="Rectángulo 405267" width="1.833" height="1.833" transform="translate(28.979 134.053)" fill="#feae1a"/>
          <rect id="Rectángulo_405268" data-name="Rectángulo 405268" width="1.833" height="1.833" transform="translate(32.565 134.053)" fill="#feae1a"/>
          <rect id="Rectángulo_405269" data-name="Rectángulo 405269" width="1.833" height="1.833" transform="translate(36.151 134.053)" fill="#feae1a"/>
          <rect id="Rectángulo_405270" data-name="Rectángulo 405270" width="1.833" height="1.833" transform="translate(40.853 138.253)" fill="#feae1a"/>
        </g>
        <g id="Grupo_1107854" data-name="Grupo 1107854" transform="translate(97.806 48.028)">
          <path id="Trazado_902845" data-name="Trazado 902845" d="M271.678,298.492a28.421,28.421,0,1,0,.876-40.185A28.454,28.454,0,0,0,271.678,298.492Zm5.912-34.924a21.139,21.139,0,1,1-.652,29.889A21.163,21.163,0,0,1,277.59,263.568Z" transform="translate(-263.8 -226.411)" fill="#fe881a"/>
          <circle id="Elipse_12232" data-name="Elipse 12232" cx="22.596" cy="22.596" r="22.596" transform="translate(5.518 30.125)" fill="#006bff" opacity="0.19"/>
          <circle id="Elipse_12233" data-name="Elipse 12233" cx="8.642" cy="8.642" r="8.642" transform="translate(23.104 52.72)" fill="#fff" opacity="0.35"/>
          <circle id="Elipse_12234" data-name="Elipse 12234" cx="2.32" cy="2.32" r="2.32" transform="translate(40.388 51.11)" fill="#fff" opacity="0.35"/>
          <path id="Trazado_902846" data-name="Trazado 902846" d="M290.665,279.533a14.614,14.614,0,0,1,6.486-3.773l-2.248-4.114a19.282,19.282,0,0,0-7.485,31.909l3.247-3.247A14.69,14.69,0,0,1,290.665,279.533Z" transform="translate(-272.938 -237.2)" fill="#fff" opacity="0.35"/>
          <path id="Trazado_902847" data-name="Trazado 902847" d="M274.036,300a26.965,26.965,0,1,0,0-38.134A26.965,26.965,0,0,0,274.036,300Zm35.045-35.044a22.6,22.6,0,1,1-31.955,0A22.6,22.6,0,0,1,309.08,264.951Z" transform="translate(-264.989 -228.208)" fill="#feae1a"/>
          <g id="Grupo_1107853" data-name="Grupo 1107853" transform="translate(31.746 33.784)" opacity="0.54">
            <path id="Trazado_902848" data-name="Trazado 902848" d="M328.389,275a14.615,14.615,0,0,1,6.755,3.846l3.247-3.247a19.191,19.191,0,0,0-10-5.3Z" transform="translate(-328.389 -270.298)" fill="#fff"/>
          </g>
          <path id="Trazado_902849" data-name="Trazado 902849" d="M394.757,203.5h0a6.6,6.6,0,0,1,0,9.336L375.51,232.079l-9.336-9.336L385.421,203.5A6.6,6.6,0,0,1,394.757,203.5Z" transform="translate(-315.856 -201.563)" fill="#feae1a"/>
          <path id="Trazado_902850" data-name="Trazado 902850" d="M360.488,242.8l7.9,7.9a2.609,2.609,0,0,1,0,3.679l-4.916,4.916a2.609,2.609,0,0,1-3.679,0l-7.9-7.9a2.609,2.609,0,0,1,0-3.679l4.916-4.916A2.61,2.61,0,0,1,360.488,242.8Z" transform="translate(-308.208 -222.146)" fill="#1d262d"/>
        </g>
        <path id="Trazado_902851" data-name="Trazado 902851" d="M151.644,148.471l8.864-8.865-1.383,10Z" transform="translate(-108.965 -122.031)" fill="#d9d9d9"/>
        <path id="Trazado_902852" data-name="Trazado 902852" d="M151.644,148.471l8.865-8.865v8.865Z" transform="translate(-108.965 -122.031)" fill="#ebe6fc"/>
        <path id="Trazado_902853" data-name="Trazado 902853" d="M119.212,246.181h-4.779V241.4a.349.349,0,0,0-.7,0v4.779h-4.779a.349.349,0,1,0,0,.7h4.779v4.779a.349.349,0,1,0,.7,0V246.88h4.779a.349.349,0,1,0,0-.7Z" transform="translate(-87.08 -173.615)" fill="#1d262d"/>
        <path id="Trazado_902854" data-name="Trazado 902854" d="M359.345,218.341h-4.779v-4.779a.349.349,0,0,0-.7,0v4.779h-4.779a.349.349,0,1,0,0,.7h4.779v4.779a.349.349,0,1,0,.7,0V219.04h4.779a.349.349,0,1,0,0-.7Z" transform="translate(-209.185 -159.458)" fill="#1d262d"/>
        <path id="Trazado_902855" data-name="Trazado 902855" d="M396.413,340.246h-3.734v-3.733a.273.273,0,1,0-.547,0v3.733H388.4a.273.273,0,0,0,0,.547h3.734v3.734a.273.273,0,1,0,.547,0v-3.734h3.734a.273.273,0,0,0,0-.547Z" transform="translate(-229.213 -222.016)" fill="#feae1a"/>
        <path id="Trazado_902856" data-name="Trazado 902856" d="M157.581,302.808H152.8v-4.779a.349.349,0,1,0-.7,0v4.779h-4.779a.349.349,0,1,0,0,.7H152.1v4.779a.349.349,0,1,0,.7,0v-4.779h4.779a.349.349,0,0,0,0-.7Z" transform="translate(-106.59 -202.409)" fill="#feae1a"/>
        <path id="Trazado_902857" data-name="Trazado 902857" d="M175.036,292.834H172.8V290.6a.164.164,0,0,0-.327,0v2.237h-2.237a.164.164,0,0,0,0,.327h2.237V295.4a.164.164,0,1,0,.327,0v-2.237h2.237a.164.164,0,0,0,0-.327Z" transform="translate(-118.334 -198.724)" fill="#feae1a"/>
        <path id="Trazado_902858" data-name="Trazado 902858" d="M385.132,280.593H382.59v-2.542a.186.186,0,1,0-.372,0v2.542h-2.542a.186.186,0,0,0,0,.372h2.542v2.542a.186.186,0,0,0,.372,0v-2.542h2.542a.186.186,0,1,0,0-.372Z" transform="translate(-224.822 -192.334)" fill="#1d262d"/>
        <path id="Trazado_902859" data-name="Trazado 902859" d="M399.836,268.595h-1.352v-1.352a.1.1,0,1,0-.2,0v1.352h-1.352a.1.1,0,0,0,0,.2h1.352v1.352a.1.1,0,1,0,.2,0v-1.352h1.352a.1.1,0,1,0,0-.2Z" transform="translate(-233.641 -186.882)" fill="#1d262d"/>
        <path id="Trazado_902860" data-name="Trazado 902860" d="M132.537,217.211h-3.118v-3.119a.228.228,0,0,0-.456,0v3.119h-3.118a.228.228,0,0,0,0,.456h3.118v3.119a.228.228,0,1,0,.456,0v-3.119h3.118a.228.228,0,1,0,0-.456Z" transform="translate(-95.73 -159.79)" fill="#1d262d"/>
        <path id="Trazado_902861" data-name="Trazado 902861" d="M125.756,273.189h-2.694V270.5a.2.2,0,1,0-.394,0v2.694h-2.694a.2.2,0,1,0,0,.394h2.694v2.694a.2.2,0,1,0,.394,0v-2.694h2.694a.2.2,0,0,0,0-.394Z" transform="translate(-92.761 -188.486)" fill="#1d262d"/>
        <path id="Trazado_902862" data-name="Trazado 902862" d="M102.5,290.3h-1.433v-1.433a.1.1,0,1,0-.209,0V290.3H99.427a.1.1,0,0,0,0,.209h1.433v1.433a.1.1,0,1,0,.209,0v-1.433H102.5a.1.1,0,0,0,0-.209Z" transform="translate(-82.359 -197.875)" fill="#1d262d"/>
        <path id="Trazado_902863" data-name="Trazado 902863" d="M366.811,142.4h-1.433v-1.433a.1.1,0,0,0-.209,0V142.4h-1.433a.1.1,0,1,0,0,.209h1.433v1.433a.1.1,0,1,0,.209,0v-1.433h1.433a.1.1,0,1,0,0-.209Z" transform="translate(-216.757 -122.668)" fill="#1d262d"/>
        <path id="Trazado_902864" data-name="Trazado 902864" d="M347.38,124.463h-3.51v-3.51a.257.257,0,0,0-.513,0v3.51h-3.51a.257.257,0,1,0,0,.513h3.51v3.509a.257.257,0,1,0,.513,0v-3.509h3.51a.257.257,0,0,0,0-.513Z" transform="translate(-204.533 -112.416)" fill="#1d262d"/>
        <path id="Trazado_902865" data-name="Trazado 902865" d="M235.951,125.653h-3.509v-3.51a.257.257,0,1,0-.513,0v3.51h-3.51a.257.257,0,0,0,0,.513h3.51v3.509a.257.257,0,1,0,.513,0v-3.509h3.509a.257.257,0,0,0,0-.513Z" transform="translate(-147.873 -113.021)" fill="#1d262d"/>
        <path id="Trazado_902866" data-name="Trazado 902866" d="M219.764,131H217.9v-1.867a.137.137,0,1,0-.273,0V131h-1.867a.137.137,0,1,0,0,.273h1.867v1.867a.137.137,0,1,0,.273,0v-1.867h1.867a.137.137,0,0,0,0-.273Z" transform="translate(-141.496 -116.634)" fill="#1d262d"/>
        <g id="Grupo_1107855" data-name="Grupo 1107855" transform="translate(115.332 135.886)">
          <path id="Trazado_902867" data-name="Trazado 902867" d="M301.02,399.473s4.433-.164,6.7-5.313l-2.1-1.092,2.675.036L309.6,390.6l-2.7.015,3.284-1.133-3.415-1.038,4.022-.128a15.2,15.2,0,0,0,.212-8s-4.552.392-8.2,6.057l1.258,2.16-1.668-1.374s-2.391,4.05-2.82,7.295l1.275,1.589-1.383-.893A6.352,6.352,0,0,0,301.02,399.473Z" transform="translate(-299.459 -380.314)" fill="#246d79"/>
          <path id="Trazado_902868" data-name="Trazado 902868" d="M303.359,391.891a20.9,20.9,0,0,1,1.047,3.294c.294-.776.6-1.547.927-2.309,0,0,0-.006,0-.01a6.8,6.8,0,0,0-.183-1.063c-.024-.095-.033-.127-.06-.216s-.053-.171-.082-.256q-.092-.271-.207-.538a.238.238,0,0,1,.174-.335.382.382,0,0,1,.406.212,7.709,7.709,0,0,1,.4,1.21,57.3,57.3,0,0,1,2.912-5.62c.081-.137.165-.272.247-.408a.228.228,0,0,1-.019-.056,5.68,5.68,0,0,0-.1-.691c-.012-.056-.025-.112-.038-.167a1.348,1.348,0,0,0-.036-.143.14.14,0,0,1-.005-.015c0-.014-.008-.028-.012-.042-.009-.031-.019-.062-.029-.093-.018-.059-.038-.117-.058-.176a.239.239,0,0,1,.174-.335.38.38,0,0,1,.406.212,6.671,6.671,0,0,1,.2.721q.735-1.175,1.526-2.317c.194-.28.771.016.574.3q-1.565,2.256-2.906,4.645a23.7,23.7,0,0,1,2.643-.905.379.379,0,0,1,.406.211.239.239,0,0,1-.174.335,22.408,22.408,0,0,0-3.175,1.142.309.309,0,0,1-.138.027,57.568,57.568,0,0,0-3.347,7.365q-.714,1.926-1.291,3.906c-.1.329-.716.169-.619-.163q.509-1.744,1.122-3.448a.313.313,0,0,1-.074-.15,19.958,19.958,0,0,0-1.186-4C302.633,391.661,303.213,391.538,303.359,391.891Z" transform="translate(-301.135 -381.494)" fill="#1a5463"/>
          <path id="Trazado_902869" data-name="Trazado 902869" d="M303.573,410.382a6.642,6.642,0,0,0,6.9-.4l-.879-1.7,1.753,1.268,2.031-1.052-1.8-1.246,2.7.778-1.777-2.275,2.721,1.786a12.294,12.294,0,0,0,3.86-5.194s-3.195-1.857-8.247.192l-.172,2.015-.465-1.685a19.571,19.571,0,0,0-5.259,3.516l.1,1.645-.5-1.234A5.146,5.146,0,0,0,303.573,410.382Z" transform="translate(-301.53 -391.125)" fill="#248988"/>
          <path id="Trazado_902870" data-name="Trazado 902870" d="M308.708,405.612a16.861,16.861,0,0,1-.839,2.667c.556-.376,1.117-.745,1.688-1.1,0,0,0-.006,0-.008a5.5,5.5,0,0,0,.373-.789c.028-.074.037-.1.061-.171s.044-.138.065-.208c.043-.148.081-.3.113-.452a.192.192,0,0,1,.271-.141.309.309,0,0,1,.17.329,6.233,6.233,0,0,1-.3.987,46.349,46.349,0,0,1,4.541-2.365c.117-.053.235-.1.353-.155a.2.2,0,0,1,.013-.046,4.616,4.616,0,0,0,.252-.505c.018-.042.035-.086.053-.129a1.176,1.176,0,0,0,.043-.111.057.057,0,0,1,0-.013l.011-.033c.008-.025.017-.05.025-.075.015-.048.029-.1.044-.143a.194.194,0,0,1,.271-.141.307.307,0,0,1,.17.329,5.33,5.33,0,0,1-.2.572q1.034-.436,2.087-.824c.259-.095.5.369.241.465q-2.084.765-4.083,1.722a19.067,19.067,0,0,1,2.17.63.306.306,0,0,1,.17.329.193.193,0,0,1-.271.14,18.183,18.183,0,0,0-2.632-.721.249.249,0,0,1-.1-.047,46.535,46.535,0,0,0-5.641,3.317q-1.368.942-2.671,1.985c-.217.173-.552-.222-.334-.4q1.148-.917,2.346-1.76a.253.253,0,0,1,.021-.134,16.11,16.11,0,0,0,1.074-3.2C308.334,405.123,308.775,405.311,308.708,405.612Z" transform="translate(-302.151 -391.846)" fill="#1a5463"/>
        </g>
        <g id="Grupo_1107856" data-name="Grupo 1107856" transform="translate(42.125 141.921)">
          <path id="Trazado_902871" data-name="Trazado 902871" d="M164.5,404.426a6.911,6.911,0,0,1-6.924-1.946l1.271-1.529-2.064.9-1.83-1.522,2.1-.867-2.917.189,2.312-1.916-3.163,1.209a12.787,12.787,0,0,1-2.766-6.138s3.661-1.176,8.338,2.032l-.274,2.086.848-1.609a20.344,20.344,0,0,1,4.561,4.745l-.473,1.649.783-1.143A5.352,5.352,0,0,1,164.5,404.426Z" transform="translate(-150.517 -392.592)" fill="#246d79"/>
          <path id="Trazado_902872" data-name="Trazado 902872" d="M162.5,398.447a17.527,17.527,0,0,0,.259,2.9c-.481-.506-.969-1.006-1.471-1.49,0,0,0-.006,0-.009a5.759,5.759,0,0,1-.2-.885c-.012-.082-.016-.109-.024-.187s-.014-.15-.02-.226c-.011-.16-.015-.322-.014-.485a.2.2,0,0,0-.244-.2.321.321,0,0,0-.246.3,6.45,6.45,0,0,0,.083,1.069,48.181,48.181,0,0,0-4.087-3.415c-.107-.08-.216-.158-.324-.236a.186.186,0,0,0,0-.05,4.734,4.734,0,0,1-.144-.57c-.009-.047-.017-.095-.025-.143a1.181,1.181,0,0,1-.019-.122.132.132,0,0,0,0-.014c0-.012,0-.024,0-.036s-.006-.055-.008-.082c0-.052-.009-.1-.012-.156a.2.2,0,0,0-.244-.2.319.319,0,0,0-.246.3,5.552,5.552,0,0,0,.076.626q-.953-.673-1.938-1.3c-.242-.154-.593.263-.348.419q1.948,1.242,3.766,2.66a20.059,20.059,0,0,0-2.346.157.319.319,0,0,0-.246.3.2.2,0,0,0,.244.2,18.9,18.9,0,0,1,2.836-.146.265.265,0,0,0,.116-.024,48.462,48.462,0,0,1,4.993,4.628q1.181,1.262,2.272,2.612c.181.224.61-.1.428-.328q-.962-1.188-1.992-2.311a.26.26,0,0,0,.009-.141,16.739,16.739,0,0,1-.379-3.488C162.992,398.033,162.5,398.125,162.5,398.447Z" transform="translate(-151.887 -393.198)" fill="#1a5463"/>
        </g>
      </g>
    </g>
  </g>
</svg>
