<svg xmlns="http://www.w3.org/2000/svg" width="387.369" height="391.183" viewBox="0 0 387.369 391.183">
  <g id="Grupo_1108191" data-name="Grupo 1108191" transform="translate(17284.406 8818.108)">
    <path id="Trazado_903133" data-name="Trazado 903133" d="M467.488,344.254c-2.871-1.91-5.81-3.718-8.641-5.684a2.5,2.5,0,0,1-.924-1.9c.344-3.979.916-7.938,1.233-11.919a2.112,2.112,0,0,1,1.458-2.209c3.9-1.556,7.763-3.217,11.637-4.843.628-.264,1.247-.549,2.33-1.028L468.891,298.8c-4.995,1.026-9.55,1.886-14.063,2.931a2.769,2.769,0,0,1-3.5-1.281c-2.117-3.005-4.651-5.714-6.928-8.612a2.264,2.264,0,0,1-.306-1.867c1.509-3.986,3.014-7.982,4.762-11.866.839-1.864.408-2.861-1.264-3.714a11.609,11.609,0,0,1-1.744-1.342l-8.652-4.578a5.9,5.9,0,0,1-1.081-.217c-3.516-1.411-2.84-1.386-4.812,1.554-2.4,3.582-4.744,7.2-6.8,10.334L408.92,278.8l-6.176-14.711a59.884,59.884,0,0,0-17.809,5.669c1.019,4.911,2,9.7,3.017,14.485a1.657,1.657,0,0,1-.7,2.015c-3.282,2.489-6.5,5.066-9.607,7.774a1.95,1.95,0,0,1-2.442.388c-4-1.651-8.038-3.208-12.045-4.842a1.678,1.678,0,0,0-2.367.6,53.39,53.39,0,0,0-7.294,14.372c-.358,1.011.13,1.445.9,1.935,3.54,2.267,7.024,4.62,10.579,6.862a2.1,2.1,0,0,1,1.145,2.525c-.674,4.558-1.082,9.156-1.632,14.108l-14.116,5.926a55.816,55.816,0,0,0,5.547,18.067l15.278-3.247c2.969,3.376,5.647,6.586,8.523,9.608a2.677,2.677,0,0,1,.662,3.432c-1.655,3.794-3.163,7.652-4.691,11.5-.3.76-.9,1.647.288,2.265q7.249,3.765,14.5,7.534c1.027.533,1.671.185,2.284-.784,2.281-3.6,4.721-7.108,6.94-10.749.856-1.4,1.787-1.464,3.24-1.279a98.025,98.025,0,0,0,10.815.9,2.354,2.354,0,0,1,2.664,1.807c1.717,4.435,3.609,8.8,5.4,13.1,3.856-.027,14.339-3.389,18.109-5.767-1.023-4.726-2.008-9.516-3.127-14.274a2.03,2.03,0,0,1,.978-2.429c2.927-2.335,5.689-4.876,8.593-7.242a2.471,2.471,0,0,1,2.047-.406c3.571,1.37,7.1,2.866,10.617,4.36,1.969.836,2.761,1.18,3.511.67l8.123-15.353C470.668,346.381,469.81,345.8,467.488,344.254ZM436.883,339.1a28.112,28.112,0,0,1-37.995,11.7h0a28.112,28.112,0,0,1-11.7-37.995h0a28.112,28.112,0,0,1,37.995-11.7h0a28.112,28.112,0,0,1,11.7,37.995Z" transform="translate(-17586.742 -9050.896)" fill="#a8a4a4"/>
    <path id="Trazado_903134" data-name="Trazado 903134" d="M1393.594,458c-1.054-.7-2.133-1.365-3.172-2.086a.917.917,0,0,1-.339-.7c.126-1.461.336-2.914.453-4.375a.776.776,0,0,1,.535-.811c1.433-.571,2.85-1.181,4.272-1.778.23-.1.458-.2.855-.378l-2.089-6.558c-1.833.377-3.506.692-5.162,1.076a1.016,1.016,0,0,1-1.283-.47c-.777-1.1-1.707-2.1-2.543-3.161a.832.832,0,0,1-.112-.685c.554-1.463,1.106-2.93,1.748-4.356a.883.883,0,0,0-.464-1.364,4.249,4.249,0,0,1-.641-.493l-3.176-1.68a2.174,2.174,0,0,1-.4-.08c-1.291-.518-1.042-.509-1.766.57-.882,1.315-1.742,2.645-2.5,3.794l-5.721-.5-2.267-5.4a21.978,21.978,0,0,0-6.537,2.081c.374,1.8.734,3.562,1.108,5.317a.609.609,0,0,1-.259.74c-1.2.914-2.388,1.86-3.527,2.854a.716.716,0,0,1-.9.143c-1.469-.606-2.951-1.178-4.422-1.778a.616.616,0,0,0-.869.222,19.6,19.6,0,0,0-2.678,5.276c-.131.371.048.53.329.71,1.3.832,2.579,1.7,3.884,2.519a.772.772,0,0,1,.42.927c-.247,1.673-.4,3.361-.6,5.179l-5.182,2.175a20.489,20.489,0,0,0,2.036,6.632l5.608-1.192c1.09,1.239,2.073,2.417,3.129,3.527a.983.983,0,0,1,.243,1.26c-.607,1.393-1.161,2.809-1.722,4.222-.111.279-.331.6.105.831q2.662,1.382,5.322,2.766c.377.2.613.068.838-.288.838-1.323,1.733-2.609,2.548-3.946.314-.516.656-.537,1.189-.47a35.974,35.974,0,0,0,3.97.332.864.864,0,0,1,.978.663c.631,1.628,1.325,3.231,1.981,4.81a19.65,19.65,0,0,0,6.647-2.117c-.376-1.735-.738-3.493-1.148-5.24a.745.745,0,0,1,.359-.892c1.074-.857,2.088-1.79,3.154-2.658a.907.907,0,0,1,.751-.149c1.311.5,2.6,1.052,3.9,1.6.723.307,1.013.433,1.289.246l2.982-5.636C1394.762,458.783,1394.448,458.57,1393.594,458Zm-11.234-1.894a10.319,10.319,0,0,1-13.947,4.3h0a10.32,10.32,0,0,1-4.3-13.947h0a10.319,10.319,0,0,1,13.947-4.3h0a10.32,10.32,0,0,1,4.3,13.947Z" transform="translate(-18397.686 -9184.255)" fill="#9bc1f9" opacity="0.2"/>
    <g id="Grupo_1108171" data-name="Grupo 1108171" transform="translate(-17266.451 -8658.791)">
      <g id="Grupo_1108170" data-name="Grupo 1108170" transform="translate(0 0)">
        <path id="Trazado_903135" data-name="Trazado 903135" d="M271.319,1068.38s-53.925-26.589-63.2-40.456,4.359-14.653,4.359-14.653-24.064-23.4-20.679-33.257,15.852-.816,15.852-.816-15.473-34.444-8.178-37.907c13.589-6.45,32.653,30.611,32.653,30.611s-4.1-16.1,5.261-15.576c14.112.789,13.529,37.207,13.529,37.207s1.594-13.964,10.1-9.428C276.279,992.242,271.319,1068.38,271.319,1068.38Z" transform="translate(-191.474 -940.536)" fill="#3c8f7c"/>
      </g>
      <path id="Trazado_903136" data-name="Trazado 903136" d="M298.363,978.472c-6.642-3.686-13.257,7.087-13.257,7.087s.67-28.445-13.442-29.234C262.305,955.8,266.4,971.9,266.4,971.9s-19.064-37.06-32.653-30.61l71.907,126.5C306.164,1058.957,311.521,985.773,298.363,978.472Z" transform="translate(-225.748 -940.538)" fill="#50bfa5"/>
    </g>
    <g id="Grupo_1108173" data-name="Grupo 1108173" transform="translate(-17284.406 -8591.498)">
      <g id="Grupo_1108172" data-name="Grupo 1108172" transform="translate(0 4.148)">
        <path id="Trazado_903137" data-name="Trazado 903137" d="M193,1374.762s-44.1,5.478-55.523.6-3.236-10.91-3.236-10.91-24.52-4.82-26.412-12.341,9.419-6.922,9.419-6.922-23.511-15.225-20.368-20.35c5.855-9.545,32.805,5.824,32.805,5.824s-9.1-8.377-3.048-11.853c9.123-5.242,23.558,17.71,23.558,17.71s-.9-5.657,6.252-6.284C169.276,1329.105,193,1374.762,193,1374.762Z" transform="translate(-96.594 -1318.028)" fill="#3c8f7c"/>
      </g>
      <path id="Trazado_903138" data-name="Trazado 903138" d="M157.978,1308.352c-7.148.627-6.541,10.4-6.541,10.4s-14.7-27.207-23.819-21.965c-6.049,3.476,1.108,14.893,1.108,14.893s-24.749-14.154-30.6-4.609l96.253,49.682C191.1,1351.032,169.959,1307.3,157.978,1308.352Z" transform="translate(-97.833 -1296.112)" fill="#50bfa5"/>
    </g>
    <path id="Trazado_903139" data-name="Trazado 903139" d="M1835.062,1231.036l2.369-5.725a8.086,8.086,0,0,1,10.505-4.491h0c9.989,4.36,14.331,16.5,9.7,27.108l-3.386,7.757a9.74,9.74,0,0,0,1.033,9.774,8.6,8.6,0,0,1,.854,8.609l-1.785,4.09a16.263,16.263,0,0,1-10.154,9.06,9.866,9.866,0,0,0-6.131,5.54l-2.528,5.791c-2.795,6.4-9.946,9.459-15.972,6.828l-3.438-1.5c-6.027-2.631-8.647-9.954-5.852-16.356h0c4.519-7.655,4.159-13.368,2.557-17.243a23.181,23.181,0,0,1,.22-18.089l.357-.818a23.017,23.017,0,0,1,14.063-12.727C1830.2,1237.773,1833.049,1235.65,1835.062,1231.036Z" transform="translate(-18769.457 -9826.063)" fill="#50bfa5"/>
    <path id="Trazado_903140" data-name="Trazado 903140" d="M388.976,1529.121c-6.4-8.3-41.505-52.766-64.395-60.176-25.266-8.179-1.453,24.307-1.453,24.307s-44.821-49.01-61.268-44.592c-15.077,4.05,0,34.429,0,34.429s-16.981-16.823-37.574-16.823c-20.042,0,14,59.661,15.838,62.854Z" transform="translate(-17479.422 -10011.06)" fill="#96d9c9"/>
    <g id="Grupo_1108174" data-name="Grupo 1108174" transform="translate(-16974.418 -8676.653)">
      <path id="Trazado_903141" data-name="Trazado 903141" d="M1855.609,934.4s-6.462,8.342-10.267,11.616-7.431,6.407-12.281,16.821-4.711,11.607-6,14.288-8.056,13.186-8.568,15.282-11.562,12.134-14.982,17.24-9.031,12.23-9.767,16.351l1-.02a44.975,44.975,0,0,1,11.743-17.389c8.767-8.074,8.253-10.1,16.822-13.306s16.529-15.7,16.529-15.7,10.989-13.033,12.426-20.8S1857.315,944.538,1855.609,934.4Z" transform="translate(-1782.545 -917.696)" fill="#256653"/>
      <path id="Trazado_903142" data-name="Trazado 903142" d="M1841.83,846.151s-1.677,6.077-4.5,9.261-5.046,5-6.322,8.861-4.883,13.736-11.555,17.416-10.835,18.387-16.082,21.908-6.547,6.627-7.566,14.523-.87,19.2-10.209,31.74l-.57-3.792s7.029-10.468,7.537-17.437-.8-17.981,1.675-22.54-2.3-6.673,2.424-13.343,4.082-9.517,9.661-14.936c0,0,.49-.2,2.82-5.34s13.312-13,18.1-15.442S1839.05,850.529,1841.83,846.151Z" transform="translate(-1775.474 -846.151)" fill="#256653"/>
      <path id="Trazado_903143" data-name="Trazado 903143" d="M1817.988,986.628s-6.7,7.09-8,12.355-1.723,9.694-5.829,16.361-.357,12.359-2.672,16.029-3.522,8.372-4.313,11.967-9.082,14.172-11.321,19.984-1.167,6.082-1.167,6.082,2.761-7.718,4.644-10.044,7.855-10.468,9.573-13.756,4.69-4.963,8.182-10.4,7.657-9.723,9.383-18.183S1823.64,1000.482,1817.988,986.628Z" transform="translate(-1774.994 -960.042)" fill="#3c8f7c"/>
      <path id="Trazado_903144" data-name="Trazado 903144" d="M1806.213,1269.893s4.656-9.893,14.322-8.741,14.768,4.3,23.194-1.757,15.1-17.233,17.71-18.817c0,0-2.945-2.5-9.715,1.407s-11.593,6.941-15.516,9.219-6.079-.3-9.942.9c-3.237,1.01-8.045,4.987-10.256,7.141a11.734,11.734,0,0,1-2.391,1.8c-.793.451-1.742,1.008-2.367,1.436-1.25.855-5.776,7.272-5.776,7.272Z" transform="translate(-1792.056 -1165.294)" fill="#3c8f7c"/>
      <path id="Trazado_903145" data-name="Trazado 903145" d="M1745.828,1138.067s6.282-11.962,5.507-18.711-6.667-12.98-5.477-16.829,8.121-13.39,6.308-22.115c0,0-3.019,6.7-4.749,7.949s-12.573,5.368-12.847,14.079,8.391,12.777,10.066,15.75,4.707,3.675,4.347,5.308-1.146,7.7-3.513,13.308Z" transform="translate(-1734.564 -1036.078)" fill="#3c8f7c"/>
      <path id="Trazado_903146" data-name="Trazado 903146" d="M1791.874,1054.354l7.791-12.355s5.255-10.172,8.939-18.817,9.386-36.554,9.386-36.554-6.7,7.091-8,12.355-1.723,9.694-5.829,16.361-.357,12.359-2.672,16.029-3.522,8.372-4.314,11.967-9.082,14.172-11.321,19.984c-1.226,3.184-1.459,4.7-1.419,5.427C1784.913,1063.323,1791.874,1054.354,1791.874,1054.354Z" transform="translate(-1774.997 -960.042)" fill="#327f6b"/>
      <path id="Trazado_903147" data-name="Trazado 903147" d="M1833.774,1260.317c-4.356-.137-8.011-1.286-13.807,1.243a42.439,42.439,0,0,0-9.615,5.78s-3.144,3.453-4.549,5.332c-.207.289-.328.462-.328.462l.737.132s4.656-9.893,14.322-8.741,14.768,4.3,23.194-1.757,15.1-17.233,17.71-18.816a109.425,109.425,0,0,0-13.871,7.719C1842.058,1255.528,1838.131,1260.453,1833.774,1260.317Z" transform="translate(-1792.054 -1168.666)" fill="#327f6b"/>
      <path id="Trazado_903148" data-name="Trazado 903148" d="M1747.418,1088.364c-1.73,1.245-12.573,5.367-12.847,14.079s8.391,12.777,10.066,15.75,4.707,3.675,4.347,5.308-1.146,7.7-3.512,13.308l.156.55a76.666,76.666,0,0,0,3.35-8.07c1.359-4.2,1.077-6.136.507-9.927s-7.483-12.851-8.764-17.067,6.444-8.969,8.536-11.645,2.91-10.237,2.91-10.237S1749.147,1087.119,1747.418,1088.364Z" transform="translate(-1734.565 -1036.08)" fill="#327f6b"/>
    </g>
    <path id="Trazado_903149" data-name="Trazado 903149" d="M1189.89,1529.121c6.4-8.3,41.505-52.766,64.395-60.176,25.266-8.179,1.453,24.307,1.453,24.307s44.821-49.01,61.268-44.592c15.077,4.05,0,34.429,0,34.429s16.981-16.823,37.574-16.823c20.042,0-14,59.661-15.839,62.854Z" transform="translate(-18267.391 -10011.06)" fill="#96d9c9"/>
    <g id="Grupo_1108178" data-name="Grupo 1108178" transform="translate(-17272.736 -8600.216)">
      <g id="Grupo_1108175" data-name="Grupo 1108175" transform="translate(7.182 42.054)">
        <path id="Trazado_903150" data-name="Trazado 903150" d="M271.632,1548.227a369.068,369.068,0,0,0-74.924-75.915c-.3-.223-.694.292-.4.52a368.677,368.677,0,0,1,73.765,75.812Z" transform="translate(-196.207 -1472.257)" fill="#256653"/>
      </g>
      <path id="Trazado_903151" data-name="Trazado 903151" d="M261.176,1577.848c.684-.485,2.456-2.325,4.821-2.9a10.048,10.048,0,0,1,4.973-.187,10.844,10.844,0,0,0-4.869-2.687c-2.886-.843-6.852-.135-8.148,1.01-2.941,1.991-3.177,5.372-1.719,6C257.682,1579.749,259.618,1578.827,261.176,1577.848Z" transform="translate(-236.984 -1510.828)" fill="#256653"/>
      <path id="Trazado_903152" data-name="Trazado 903152" d="M197.512,1521.759c.684-.485,2.456-2.325,4.821-2.9a10.043,10.043,0,0,1,4.973-.187,10.841,10.841,0,0,0-4.869-2.687c-2.886-.843-6.852-.135-8.148,1.01-2.942,1.991-3.177,5.372-1.719,6C194.019,1523.659,195.954,1522.739,197.512,1521.759Z" transform="translate(-185.369 -1465.354)" fill="#256653"/>
      <path id="Trazado_903153" data-name="Trazado 903153" d="M362.831,1555.326c-.641.4-2.921,1.2-3.969,3.024a7.077,7.077,0,0,0-1.114,4.241,11.73,11.73,0,0,1-1.959-5.3c-.364-2.841,1.117-6,2.571-6.667,2.655-1.757,6.29-.61,6.688.906C365.492,1553.053,364.158,1554.365,362.831,1555.326Z" transform="translate(-318.361 -1493.02)" fill="#256653"/>
      <g id="Grupo_1108177" data-name="Grupo 1108177" transform="translate(25.612 0)">
        <g id="Grupo_1108176" data-name="Grupo 1108176" transform="translate(6.443 7.716)">
          <path id="Trazado_903154" data-name="Trazado 903154" d="M343.166,1307.475a295.347,295.347,0,0,1,39.319,94.125l1.255-.336a297.232,297.232,0,0,0-39.167-93.331c-4.249-6.64-8.837-14.517-16.793-17.107-.153-.05-.212.183-.065.239C334.981,1293.8,339.19,1301.268,343.166,1307.475Z" transform="translate(-327.631 -1290.819)" fill="#256653"/>
        </g>
        <path id="Trazado_903155" data-name="Trazado 903155" d="M374.712,1260.243c-.471.693-2.276,2.5-2.806,4.877a10.042,10.042,0,0,0-.089,4.976,10.846,10.846,0,0,1-2.783-4.815c-.9-2.868-.27-6.848.849-8.166,1.932-2.98,5.309-3.282,5.964-1.837C376.542,1256.714,375.66,1258.667,374.712,1260.243Z" transform="translate(-354.408 -1253.608)" fill="#256653"/>
        <path id="Trazado_903156" data-name="Trazado 903156" d="M352.814,1393.679c.684-.485,2.456-2.325,4.821-2.9a10.048,10.048,0,0,1,4.973-.187,10.84,10.84,0,0,0-4.869-2.687c-2.886-.843-6.852-.135-8.148,1.01-2.941,1.991-3.177,5.372-1.719,6C349.32,1395.579,351.256,1394.657,352.814,1393.679Z" transform="translate(-336.891 -1361.513)" fill="#256653"/>
        <path id="Trazado_903157" data-name="Trazado 903157" d="M387.747,1452.8c.684-.485,2.456-2.325,4.821-2.9a10.039,10.039,0,0,1,4.973-.187,10.843,10.843,0,0,0-4.869-2.688c-2.886-.843-6.852-.135-8.148,1.01-2.942,1.991-3.177,5.372-1.719,6C384.253,1454.7,386.189,1453.777,387.747,1452.8Z" transform="translate(-365.213 -1409.444)" fill="#256653"/>
        <path id="Trazado_903158" data-name="Trazado 903158" d="M421.949,1326.907c-.575.61-2.642,2.111-3.54,4.374a10.048,10.048,0,0,0-.873,4.9,10.844,10.844,0,0,1-1.989-5.194c-.436-2.974.813-6.8,2.126-7.93,2.378-2.638,5.76-2.4,6.179-.874C424.313,1323.711,423.134,1325.5,421.949,1326.907Z" transform="translate(-392.395 -1307.61)" fill="#256653"/>
        <path id="Trazado_903159" data-name="Trazado 903159" d="M463.44,1389.167c-.818.434-3.676,1.221-5.114,3.36a8.678,8.678,0,0,0-1.726,5.093c.153.14-2.037-3.141-1.943-6.652-.2-3.507,1.88-7.245,3.716-7.937,3.4-1.922,7.748-.208,8.1,1.681C466.889,1386.614,465.145,1388.105,463.44,1389.167Z" transform="translate(-424.164 -1357.181)" fill="#256653"/>
        <path id="Trazado_903160" data-name="Trazado 903160" d="M516.076,1489.429c-.88.29-3.829.585-5.606,2.452a8.679,8.679,0,0,0-2.558,4.73c.127.163-1.48-3.438-.8-6.884.39-3.491,3.072-6.825,5-7.2,3.674-1.323,7.672,1.1,7.707,3.02C519.9,1487.493,517.935,1488.668,516.076,1489.429Z" transform="translate(-466.567 -1438.225)" fill="#256653"/>
        <path id="Trazado_903161" data-name="Trazado 903161" d="M297.055,1292.837a7.727,7.727,0,0,1,2.725-1.928,5.96,5.96,0,0,1,2.934-.328,6.431,6.431,0,0,0-3-1.377,6.3,6.3,0,0,0-4.776.954c-1.653,1.306-1.644,3.317-.754,3.624C295.072,1294.115,296.176,1293.484,297.055,1292.837Z" transform="translate(-293.589 -1281.701)" fill="#256653"/>
        <path id="Trazado_903162" data-name="Trazado 903162" d="M316.622,1253.015a7.726,7.726,0,0,0,.137,3.335,5.959,5.959,0,0,0,1.531,2.524,6.43,6.43,0,0,1-2.921-1.534,6.306,6.306,0,0,1-2.16-4.365c.026-2.107,1.623-3.327,2.41-2.81C316.423,1250.666,316.6,1251.925,316.622,1253.015Z" transform="translate(-309.484 -1250.047)" fill="#256653"/>
      </g>
      <path id="Trazado_903163" data-name="Trazado 903163" d="M161.725,1474.907a7.724,7.724,0,0,1,2.725-1.928,5.956,5.956,0,0,1,2.934-.328,6.433,6.433,0,0,0-3-1.377,6.306,6.306,0,0,0-4.776.954c-1.653,1.306-1.644,3.317-.754,3.624C159.741,1476.184,160.846,1475.556,161.725,1474.907Z" transform="translate(-158.258 -1429.314)" fill="#256653"/>
      <path id="Trazado_903164" data-name="Trazado 903164" d="M185.25,1434.256a7.728,7.728,0,0,0-.137,3.335,5.96,5.96,0,0,0,1.319,2.641,6.436,6.436,0,0,1-2.785-1.768,6.3,6.3,0,0,1-1.8-4.527c.2-2.1,1.89-3.183,2.632-2.6C185.244,1431.9,185.316,1433.166,185.25,1434.256Z" transform="translate(-177.354 -1396.899)" fill="#256653"/>
    </g>
    <g id="Grupo_1108179" data-name="Grupo 1108179" transform="translate(-17260.969 -8508.065)">
      <path id="Trazado_903165" data-name="Trazado 903165" d="M220.509,1737.116c18.7,2.05,36.115,10.3,52.88,18.353,11.306,5.428,10.735,6.974,13.038,7.782a.463.463,0,0,0,.565-.634c-.886-1.755-3.208-2.942-4.825-3.951a62.707,62.707,0,0,0-5.841-3.182c-4.267-2.072-8.646-3.936-13-5.826a188.474,188.474,0,0,0-27.19-9.909,95.545,95.545,0,0,0-15.619-2.786.076.076,0,0,0-.012.152Z" transform="translate(-220.441 -1736.964)" fill="#256653"/>
    </g>
    <path id="Trazado_903166" data-name="Trazado 903166" d="M278.371,1684.929a12.064,12.064,0,0,0-.428,5.195,9.3,9.3,0,0,0,1.888,4.206,10.043,10.043,0,0,1-4.232-2.938c-1.886-2.05-2.928-5.633-2.51-7.179.444-3.26,3.155-4.845,4.274-3.893C278.513,1681.248,278.544,1683.233,278.371,1684.929Z" transform="translate(-17524.02 -10198.884)" fill="#256653"/>
    <path id="Trazado_903167" data-name="Trazado 903167" d="M365.417,1716.1a12.065,12.065,0,0,0-.428,5.195,9.309,9.309,0,0,0,1.888,4.206,10.051,10.051,0,0,1-4.232-2.938c-1.886-2.05-2.928-5.633-2.51-7.18.444-3.26,3.154-4.845,4.274-3.893C365.559,1712.418,365.589,1714.4,365.417,1716.1Z" transform="translate(-17594.592 -10224.154)" fill="#256653"/>
    <path id="Trazado_903168" data-name="Trazado 903168" d="M453.861,1755.52c-.122.767-.921,2.995-.428,5.195a9.3,9.3,0,0,0,1.888,4.206,10.043,10.043,0,0,1-4.232-2.937c-1.886-2.05-2.928-5.633-2.51-7.18.444-3.26,3.154-4.845,4.274-3.892C454,1751.839,454.033,1753.824,453.861,1755.52Z" transform="translate(-17666.297 -10256.115)" fill="#256653"/>
    <path id="Trazado_903169" data-name="Trazado 903169" d="M253.969,1759.133a11.153,11.153,0,0,1,2.584-4.067,8.6,8.6,0,0,1,3.739-2.046,9.284,9.284,0,0,0-4.759-.2c-2.533.458-5.3,2.517-5.857,3.889-1.492,2.65-.379,5.331.977,5.254C252.019,1761.924,253.15,1760.478,253.969,1759.133Z" transform="translate(-17504.535 -10257.694)" fill="#256653"/>
    <path id="Trazado_903170" data-name="Trazado 903170" d="M344.51,1791.173a11.155,11.155,0,0,1,2.584-4.067,8.606,8.606,0,0,1,3.739-2.046,9.292,9.292,0,0,0-4.759-.2c-2.533.458-5.3,2.517-5.857,3.89-1.492,2.65-.379,5.331.977,5.254C342.56,1793.964,343.691,1792.52,344.51,1791.173Z" transform="translate(-17577.941 -10283.672)" fill="#256653"/>
    <path id="Trazado_903171" data-name="Trazado 903171" d="M192.638,1738.08a7.157,7.157,0,0,1,2.16-2.212,5.521,5.521,0,0,1,2.618-.791,5.96,5.96,0,0,0-2.962-.752,5.838,5.838,0,0,0-4.191,1.669c-1.287,1.467-.943,3.3-.08,3.428C191.045,1739.575,191.946,1738.816,192.638,1738.08Z" transform="translate(-17456.254 -10242.887)" fill="#256653"/>
    <path id="Trazado_903172" data-name="Trazado 903172" d="M203.32,1701a7.157,7.157,0,0,0,.683,3.016,5.52,5.52,0,0,0,1.818,2.043,5.962,5.962,0,0,1-2.918-.909,5.84,5.84,0,0,1-2.7-3.615c-.329-1.924.922-3.3,1.725-2.964C202.744,1698.888,203.115,1700.006,203.32,1701Z" transform="translate(-17464.957 -10213.858)" fill="#256653"/>
    <ellipse id="Elipse_12253" data-name="Elipse 12253" cx="132.397" cy="132.397" rx="132.397" ry="132.397" transform="translate(-17271.51 -8614.162) rotate(-45)" fill="#b75742"/>
    <circle id="Elipse_12254" data-name="Elipse 12254" cx="120.735" cy="120.735" r="120.735" transform="translate(-17255.02 -8614.162) rotate(-45)" fill="#f47458"/>
    <circle id="Elipse_12255" data-name="Elipse 12255" cx="101.527" cy="101.527" r="101.527" transform="translate(-17227.854 -8614.162) rotate(-45)" fill="#fcf5eb"/>
    <circle id="Elipse_12256" data-name="Elipse 12256" cx="76.317" cy="76.317" r="76.317" transform="translate(-17192.201 -8614.162) rotate(-45)" fill="#f47458"/>
    <ellipse id="Elipse_12257" data-name="Elipse 12257" cx="54.194" cy="54.194" rx="54.194" ry="54.194" transform="translate(-17160.914 -8614.162) rotate(-45)" fill="#fcf5eb"/>
    <path id="Trazado_903173" data-name="Trazado 903173" d="M1108.725,1117.148a13.82,13.82,0,1,1-13.819-13.82A13.819,13.819,0,0,1,1108.725,1117.148Z" transform="translate(-18179.176 -9731.311)" fill="#b75742"/>
    <g id="Grupo_1108180" data-name="Grupo 1108180" transform="translate(-17085.738 -8715.511)">
      <path id="Trazado_903174" data-name="Trazado 903174" d="M1596.14,673.582l-.49-8.978,30.394-23.773-1.588,13-29.786,23.3Z" transform="translate(-1509.824 -640.83)" fill="#184655"/>
      <path id="Trazado_903175" data-name="Trazado 903175" d="M1598.055,732.518l8.6,2.639,30.4-23.773-13-1.589-29.786,23.3Z" transform="translate(-1509.492 -696.743)" fill="#12353d"/>
      <path id="Trazado_903176" data-name="Trazado 903176" d="M1146.779,883.253h0a2.031,2.031,0,0,0,2.851.348l85.632-66.978-2.5-3.2L1147.127,880.4A2.029,2.029,0,0,0,1146.779,883.253Z" transform="translate(-1146.346 -780.76)" fill="#184655"/>
    </g>
    <path id="Trazado_903177" data-name="Trazado 903177" d="M1823.75,1307.142c0,.859.321,1.554.716,1.554s.717-.7.717-1.554-.321-1.554-.717-1.554S1823.75,1306.285,1823.75,1307.142Z" transform="translate(-18781.289 -9895.293)" fill="#f7a491"/>
    <path id="Trazado_903178" data-name="Trazado 903178" d="M1761.994,1821.532a44.336,44.336,0,0,0,.226-5.765h4.686c-.487,3.359-.869,5.972-.869,5.972l.116,1.062,0,3.135h-10.251a46.146,46.146,0,0,0,5.219-2.9A2.1,2.1,0,0,0,1761.994,1821.532Z" transform="translate(-18726.283 -10308.919)" fill="#f7a491"/>
    <path id="Trazado_903179" data-name="Trazado 903179" d="M1887.844,1825.346l-1.362-3.9h3.567c.186,2.506.255,4.2.255,4.2l.907,2.567.921,3.05s-3.034.782-4.626-.1l.177-3.036Z" transform="translate(-18832.148 -10313.521)" fill="#f7a491"/>
    <path id="Trazado_903180" data-name="Trazado 903180" d="M1789.173,1365.543c1.237-1.691,6.341-6.589,6.908-6.58,1.653.029,7.078.031,8.139.57l-.052,9.325c-.173.783-3.918,12.975-3.7,15.644l-.026.025a7.505,7.505,0,0,1-10.961-.528h0a61.618,61.618,0,0,0-.43-7.072C1788.357,1371.645,1786.1,1369.745,1789.173,1365.543Z" transform="translate(-18751.98 -9938.567)" fill="#f7cc7f"/>
    <path id="Trazado_903181" data-name="Trazado 903181" d="M1824.858,1325.94a27.388,27.388,0,0,0,.166,4.745c.309,1.3.721,1.4-1.932,1.8-1.042.156-2.047.389-2.047.389s.272-1.916.313-2.724c.068-1.332-.307-5.444-.307-5.444Z" transform="translate(-18779.098 -9910.792)" fill="#f7a491"/>
    <path id="Trazado_903182" data-name="Trazado 903182" d="M1822.87,1327.655a4.75,4.75,0,0,1-1.526.541c-.09-1.625-.26-3.489-.26-3.489l3.631,1.178A4.771,4.771,0,0,1,1822.87,1327.655Z" transform="translate(-18779.127 -9910.794)" fill="#f47458"/>
    <path id="Trazado_903183" data-name="Trazado 903183" d="M1892.069,1856.68a5.082,5.082,0,0,0,3.513.049l.2.542.772,2.574s-3.072.762-4.664-.116Z" transform="translate(-18836.535 -10342.09)" fill="#e25a44"/>
    <path id="Trazado_903184" data-name="Trazado 903184" d="M1763.21,1856.82h-10.657c-.394-.036-.49-.358-.354-.556.281-.409,1.525-.709,2.922-1.36,2.451.258,7.594-1.434,7.981-2C1763.327,1854.042,1763.429,1856.773,1763.21,1856.82Z" transform="translate(-18723.232 -10339.026)" fill="#e25a44"/>
    <path id="Trazado_903185" data-name="Trazado 903185" d="M1814.9,1494.1l6.246,44.43,5.688,20.486h6.188s-1.436-16.5-4.514-22.351c0,0-1.344-15.668-2.689-25.25-.2-1.432.794-5.15.535-6.11a88.656,88.656,0,0,0-3.752-11.383Z" transform="translate(-18774.115 -10047.981)" fill="#355389"/>
    <path id="Trazado_903186" data-name="Trazado 903186" d="M1784.977,1511.155l-1.445,17.068s1.477,9.754.463,16.226-2.358,12.412-2.358,12.412h-5.688l-1.13-32.231s-2.186-17.513-1.429-22.262,4.44-11.1,4.44-11.1l8.947.409s2.426,8.694,2.016,11.611C1788.488,1505.451,1784.977,1511.155,1784.977,1511.155Z" transform="translate(-18740.332 -10045.828)" fill="#466eb6"/>
    <path id="Trazado_903187" data-name="Trazado 903187" d="M1825.908,1306.695c6.762-2.03,4.951-7.991,4.914-7.764.02-.184.657-.935.972-1.576,1.313-2.673-.419-5.892-2.4-7,1.316-3.4.009-6.659-2.469-8.018a9.947,9.947,0,0,1-3.148-2.789c-1.876-2.5-5.288-5.023-9.391-4.2-4.059,1.039,1.375,3.39.837,7.295-.273,1.98.511,1.7,1.734,3.287-1.761,3.094-.743,8.288,1.956,10.643C1817.587,1302.143,1819.008,1308.767,1825.908,1306.695Z" transform="translate(-18772.465 -9870.642)" fill="#184655"/>
    <path id="Trazado_903188" data-name="Trazado 903188" d="M1809.483,1279.863c.8,3.294-3.525,5.686-6.948,5.774-2.225.057-3.248-.172-3.607-2.517-.583-3.8.983-6.122,3.179-7.081C1804.939,1274.8,1808.824,1277.146,1809.483,1279.863Z" transform="translate(-18761.064 -9871.061)" fill="#184655"/>
    <path id="Trazado_903189" data-name="Trazado 903189" d="M1806.042,1285.35a4.5,4.5,0,0,1,2.307,2.026c.8,1.52.4,6.386-2.935,7.991s-4.872-2.039-4.63-4.729S1801.994,1284.43,1806.042,1285.35Z" transform="translate(-18762.65 -9878.764)" fill="#f7a491"/>
    <path id="Trazado_903190" data-name="Trazado 903190" d="M1807.5,1325.415l-2.369-.036a1.046,1.046,0,0,0,1.082.964C1807.485,1326.4,1807.5,1325.415,1807.5,1325.415Z" transform="translate(-18766.195 -9911.338)" fill="#fff"/>
    <path id="Trazado_903191" data-name="Trazado 903191" d="M1818.166,1288.574c.494-2.515.3-4.421-1.487-5.342s-3.314-1.833-4.913-.179l-.361.2s3.017.834,3.186,2.437,1.772,3.507,1.525,4.294-.532,2.357-.532,2.357l.66-.543A4.44,4.44,0,0,0,1818.166,1288.574Z" transform="translate(-18771.281 -9876.279)" fill="#184655"/>
    <path id="Trazado_903192" data-name="Trazado 903192" d="M1830.219,1306.813c-.249.695-.061,1.392.421,1.557s1.074-.263,1.323-.958.061-1.392-.421-1.557S1830.469,1306.119,1830.219,1306.813Z" transform="translate(-18786.445 -9895.48)" fill="#f7a491"/>
    <path id="Trazado_903193" data-name="Trazado 903193" d="M444.419,700h30.735l-7.335,46.665h3.17l41.37-263.192h-3.171l-.623,3.965h-30.8l.622-3.965h-3.171L433.808,746.67h3.17ZM497.145,560.1l-5.074,32.279H461.3l5.064-32.279Zm-30.354-2.7,5.064-32.279h30.787L497.569,557.4Zm24.856,37.675-5.074,32.279H455.817l5.064-32.279Zm-5.5,34.977-5.074,32.279H450.329l5.064-32.279Zm21.992-139.909-5.074,32.279H472.279l5.064-32.279Zm-63.3,207.165,5.064-32.279h30.745l-5.074,32.279Z" transform="translate(-17654.396 -9228.769)" fill="#f7cc7f"/>
    <g id="Grupo_1108182" data-name="Grupo 1108182" transform="translate(-17123.553 -8818.108)">
      <path id="Trazado_903194" data-name="Trazado 903194" d="M1167.506,203.1c-.034.118-.289.928-.681,2.134l4.111.829c.043-.673.084-1.234.133-1.642.338-2.851,1.678-3.625,2.367-5.209s3.364-2.587,3.034-3.124-2.821,1.638-3.419,1.4,2.131-3.5,1.8-3.941c-.6-.8-3.2,3.431-3.5,3.081s2.161-4.819,1.174-4.875-2.081,4.837-2.6,4.621,1.435-4.509.442-5.149c-.531-.342-2.414,7.64-3.255,8.1s-2.023-2.686-2.825-2.419S1167.646,202.6,1167.506,203.1Z" transform="translate(-1122.995 -173.708)" fill="#f79c8d"/>
      <path id="Trazado_903195" data-name="Trazado 903195" d="M956.556,111.127c-.018.121-.119.964-.26,2.225l-4.087-.94c.238-.63.433-1.159.557-1.551.868-2.737-.033-3.995-.008-5.721s-2-3.745-1.475-4.1,1.895,2.656,2.536,2.69-.5-4.072-.017-4.334c.882-.482,1.5,4.445,1.921,4.252s.019-5.281.942-4.925-.1,5.264.462,5.282.552-4.7,1.721-4.873c.625-.093-.952,7.956-.376,8.722s2.951-1.613,3.571-1.039S956.633,110.619,956.556,111.127Z" transform="translate(-950.317 -98.708)" fill="#f79c8d"/>
      <path id="Trazado_903196" data-name="Trazado 903196" d="M1114.067,259.538s-4.9-1.172-4.944-.779c-1.029,8.615-1.491,11.731-1.665,11.82-.594.305-8.461-6.889-9.864-7.376a5.849,5.849,0,0,0-2.1-.174c-1.669.049-2,.055-2,.055l-.061,0,.009,1.569c1.88,1.692,6.184,27.313,6.546,27.3.405-.019,8.912,2.122,8.762,1.405-.025-.117-5.768-4.816-7.4-11.6-.547-2.277-.817-4.729-1.113-6.874,1.89.948,9.272,4.581,10.442,4.1C1114.324,277.495,1114.067,259.538,1114.067,259.538Z" transform="translate(-1065.635 -228.404)" fill="#f7cc7f"/>
      <path id="Trazado_903197" data-name="Trazado 903197" d="M1279.87,491.745s7.915,6.2,8.179,7.3c.38,1.583,7.628-.5,5.88-.82-.4-.074-1.689-.4-1.795-.457-.566-.3-7.609-8.789-7.609-8.789Z" transform="translate(-1216.789 -415.118)" fill="#f7a491"/>
      <path id="Trazado_903198" data-name="Trazado 903198" d="M1331.151,536.07l-5.053-.411a7.163,7.163,0,0,1-4.22,1.251,6.471,6.471,0,0,0-.233,2.75c.036.256.079,1.029.337,1.011.934-.063,3.421-.682,6.255-1.249a24.42,24.42,0,0,0,6.009-2.123C1336.446,535.984,1331.151,536.07,1331.151,536.07Z" transform="translate(-1250.611 -452.965)" fill="#f7cc7f"/>
      <path id="Trazado_903199" data-name="Trazado 903199" d="M1083.912,408.575a34.6,34.6,0,0,0,12.206-.526c7.417-1.735,15.619-3.339,18.022-1.942,1.934,1.125,14.013,19.377,14.013,19.377l-4.665,3.4-13.3-14.893s-16.968,6.261-20.779,5.567C1080.729,417.981,1080.606,411.049,1083.912,408.575Z" transform="translate(-1056.292 -347.5)" fill="#355389"/>
      <path id="Trazado_903200" data-name="Trazado 903200" d="M1185.758,568.3s-.353,9.573-.571,11.194,4.062,6.475,3.515,4.784c-.126-.389-.45-1.676-.45-1.8,0-.642,1.587-11.562,1.587-11.562Z" transform="translate(-1140.018 -479.433)" fill="#f7a491"/>
      <path id="Trazado_903201" data-name="Trazado 903201" d="M1174.017,635.783l-3.161-5.139a7.163,7.163,0,0,1-3.106-3.119,6.47,6.47,0,0,0-2.531,1.1c-.208.153-1.623,1.189-1.525,1.427.363.879,2.291,2.762,4.4,4.819a56.74,56.74,0,0,0,5.191,3.72C1175.487,639.9,1174.017,635.783,1174.017,635.783Z" transform="translate(-1122.595 -527.446)" fill="#f7cc7f"/>
      <path id="Trazado_903202" data-name="Trazado 903202" d="M1096.378,408.451c-2.027-2.7-18.384-5.27-18.384-5.27l-4.561-8.766-10.086,6.219s1.008,8.025,1.765,10.17c1.009,2.858,7.786,3,11.926,2.961,3.809-.039,10.767.737,10.767.737l-2.353,20.76s4.625,1.053,5.925.882C1091.524,436.125,1098.9,411.813,1096.378,408.451Z" transform="translate(-1041.244 -338.452)" fill="#466eb6"/>
      <path id="Trazado_903203" data-name="Trazado 903203" d="M1067.757,282.058l-5.69.318s-.131.04-.17.047c-.463.086-.042,16.668.371,22.861a41.425,41.425,0,0,0,1.252,8.8s7.718-1.37,10.085-2.29c.983-.382,3.362-3.356,3.362-3.356a24.947,24.947,0,0,1-3.655-8.575c-.944-4.093-2.109-11.35-2.775-12.864A21.563,21.563,0,0,0,1067.757,282.058Z" transform="translate(-1039.903 -247.359)" fill="#184655"/>
      <path id="Trazado_903204" data-name="Trazado 903204" d="M1063.828,253.858l-.162,5.024s3.684,6.347,5.575,5.462c1.587-.742.178-5.57.178-5.57s-.275-1.107-.656-2.379a9.208,9.208,0,0,1-.471-2.558C1068.332,252.121,1063.828,253.858,1063.828,253.858Z" transform="translate(-1041.501 -223.865)" fill="#f7a491"/>
      <path id="Trazado_903205" data-name="Trazado 903205" d="M1068.919,253.838c.04-1.717-4.464.02-4.464.02l-.016.491a2.539,2.539,0,0,0,.5.572,6.2,6.2,0,0,0,4.386,1.263A8.664,8.664,0,0,1,1068.919,253.838Z" transform="translate(-1042.128 -223.865)" fill="#f47458"/>
      <g id="Grupo_1108181" data-name="Grupo 1108181" transform="translate(16.24 15.83)">
        <path id="Trazado_903206" data-name="Trazado 903206" d="M1069.057,196.643a13.115,13.115,0,0,1,2.017,5.211,12.354,12.354,0,0,1-.364,4.006l-6.023-7.2Z" transform="translate(-1058.569 -193.938)" fill="#f7cc7f"/>
        <path id="Trazado_903207" data-name="Trazado 903207" d="M1094.154,215.507c.085.834-.239,1.55-.724,1.6s-.946-.586-1.031-1.42.239-1.55.724-1.6S1094.068,214.673,1094.154,215.507Z" transform="translate(-1081.025 -208.078)" fill="#f48c7f"/>
        <path id="Trazado_903208" data-name="Trazado 903208" d="M1054.166,203.117c-.138-.029-.125,6.9,1.885,8.533s5.506,1.774,6.527.131c1.13-1.817.055-9.121-2.933-10.672S1054.166,203.117,1054.166,203.117Z" transform="translate(-1049.999 -197.242)" fill="#f7a491"/>
        <path id="Trazado_903209" data-name="Trazado 903209" d="M1036.019,183.929a11.13,11.13,0,0,0-3.314,4.718c-1.276,2.94,1.256,5.985,3.379,7.2s2.3,2.674,2.3,2.674l.088-.9a2.249,2.249,0,0,0-.027-.83,3.888,3.888,0,0,0-.3-.732c-.181-.386-.761-1.71-.988-2.059-.6-.921-.715-1.121-.42-2,.227-.674-.036-2.16.315-3.271l2.858-.616a5.98,5.98,0,0,0,2.691-1.472C1045.19,183.647,1040.063,180.312,1036.019,183.929Z" transform="translate(-1032.361 -182.352)" fill="#f7cc7f"/>
        <path id="Trazado_903210" data-name="Trazado 903210" d="M1051.247,232.8c.352.761.279,1.543-.163,1.748s-1.086-.246-1.438-1.007-.279-1.543.163-1.748S1050.9,232.041,1051.247,232.8Z" transform="translate(-1046.194 -222.397)" fill="#f7a491"/>
      </g>
      <path id="Trazado_903211" data-name="Trazado 903211" d="M968.714,184.4s-5.642-.263-7.1-.921c-.883-.4-8.131-6.24-8.131-6.24l.081-15.639-5.1-.388s-2.643,17.286-1.728,19.178c.945,1.954,11.556,10,13.678,13.489,1.222,2.011,3.772,29.361,4.158,29.607,2.745,1.429,11.224,2.856,11.024,1.989A314.4,314.4,0,0,1,968.714,184.4Z" transform="translate(-946.549 -149.382)" fill="#f7cc7f"/>
      <path id="Trazado_903212" data-name="Trazado 903212" d="M1076.39,242.4l3.284-1.043a1.506,1.506,0,0,1-1.111,1.772C1076.818,243.736,1076.39,242.4,1076.39,242.4Z" transform="translate(-1051.818 -214.358)" fill="#fff"/>
    </g>
    <g id="Grupo_1108185" data-name="Grupo 1108185" transform="translate(-17043.656 -8599.725)">
      <g id="Grupo_1108184" data-name="Grupo 1108184" transform="translate(0 0)">
        <path id="Trazado_903218" data-name="Trazado 903218" d="M1509.766,1439.657a3.322,3.322,0,0,1-.347.841,31.945,31.945,0,0,1-3.318,4.414l-1.794-4.041s.292-1.269.8-3.083C1506.84,1438.241,1508.489,1438.5,1509.766,1439.657Z" transform="translate(-1478.646 -1402.75)" fill="#f8a492"/>
        <path id="Trazado_903219" data-name="Trazado 903219" d="M1478.81,1368.615s10,4.308,10.327,4.226c.208-.053,4.1-6.572,4.145-12.7.019-2.832-2.921-6.238-6.2-5.564-1.652.339-1.626.8-4.07,4.35S1478.81,1368.615,1478.81,1368.615Z" transform="translate(-1457.973 -1335.213)" fill="#466eb6"/>
        <path id="Trazado_903220" data-name="Trazado 903220" d="M1408.537,1837.24s.237,3.929.239,3.937a21.53,21.53,0,0,1,.431,2.185c0,1.7-8.089-1.446-6.276-2.2.164-.068,1.024-.585,1.078-1.165.083-.893.294-2.7.294-2.7Z" transform="translate(-1396.24 -1726.604)" fill="#f7a491"/>
        <path id="Trazado_903221" data-name="Trazado 903221" d="M1375.421,1857.57s1.9.521,2.872.651,2.255-.966,2.943-.67c.758.326.728,3.262.728,3.262s-10.184.836-13.048-.029C1367.781,1860.443,1371.539,1858.785,1375.421,1857.57Z" transform="translate(-1368.71 -1743.03)" fill="#3c8f7c"/>
        <path id="Trazado_903222" data-name="Trazado 903222" d="M1495.976,1837.24s.237,3.929.239,3.937a21.53,21.53,0,0,1,.431,2.185c0,1.7-8.089-1.446-6.276-2.2.164-.068,1.279-.971,1.333-1.551.083-.893.039-2.314.039-2.314Z" transform="translate(-1467.131 -1726.604)" fill="#f7a491"/>
        <path id="Trazado_903223" data-name="Trazado 903223" d="M1462.88,1857.57s1.9.521,2.872.651,2.255-.966,2.943-.67c.757.326.788,3.262.788,3.262s-10.23.974-13.108-.029C1455.257,1860.4,1459,1858.785,1462.88,1857.57Z" transform="translate(-1439.621 -1743.03)" fill="#3c8f7c"/>
        <g id="Grupo_1108183" data-name="Grupo 1108183" transform="translate(22.098)">
          <path id="Trazado_903224" data-name="Trazado 903224" d="M1493.411,1319.614l.917,5.8s-3.495,2.806-5.531,2.214c-1.709-.5-.537-2.731-.537-2.731a14.515,14.515,0,0,0,.631-4.719C1488.612,1318.554,1493.411,1319.614,1493.411,1319.614Z" transform="translate(-1487.415 -1306.664)" fill="#f7a491"/>
          <path id="Trazado_903225" data-name="Trazado 903225" d="M1496.737,1321.365a14.272,14.272,0,0,1-3.955,1.115,7.693,7.693,0,0,0,.093-2.3c-.129-.749.824-.926,1.888-.9,1.392.119,2.633.337,2.633.337l.177,1.115A2.834,2.834,0,0,1,1496.737,1321.365Z" transform="translate(-1491.399 -1306.663)" fill="#fe875e"/>
          <path id="Trazado_903226" data-name="Trazado 903226" d="M1495.88,1272.366c.144,0-1.381,6.479-3.742,7.594s-5.882.534-6.543-1.211c-.731-1.93,1.935-8.541,5.256-9.38S1495.88,1272.366,1495.88,1272.366Z" transform="translate(-1485.474 -1266.106)" fill="#f7a491"/>
          <path id="Trazado_903227" data-name="Trazado 903227" d="M1509.784,1252.949a7.434,7.434,0,0,1,3.042,3.362c.885.42,1.956,1.329,2.47,3.776.632,3.01-1.615,5.33-4,6.028s-2.75,2.275-2.75,2.275l-.27-1.7a6.714,6.714,0,0,1,1.327-2.217c.8-.74-.377-1.817-.48-2.7-.08-.677.419-1.991.311-3.1a7.664,7.664,0,0,0-2.629-2.5C1504.582,1255.332,1507.364,1251.554,1509.784,1252.949Z" transform="translate(-1502.109 -1252.643)" fill="#13375b"/>
          <path id="Trazado_903228" data-name="Trazado 903228" d="M1520,1302.241c-.309.748-.183,1.491.281,1.66s1.091-.3,1.4-1.051.183-1.491-.282-1.66S1520.3,1301.491,1520,1302.241Z" transform="translate(-1513.326 -1291.974)" fill="#f7a491"/>
        </g>
        <path id="Trazado_903229" data-name="Trazado 903229" d="M1415.389,1433.548l-13.742-2.24s1.564-3.937,2.122-3.937,10.391,4.292,10.391,4.292l.782,1.571Z" transform="translate(-1395.413 -1394.304)" fill="#f8a492"/>
        <path id="Trazado_903230" data-name="Trazado 903230" d="M1465.978,1507.109s1.371,6.627.812,11.652-.6,22.876-.6,22.876l2.132,28.562-5.058.11s-6-28.548-5.886-27.815-2.011-20.1-2.011-20.1l7.151-15.913Z" transform="translate(-1438.964 -1458.441)" fill="#184655"/>
        <path id="Trazado_903231" data-name="Trazado 903231" d="M1418.68,1498.722s.894,5.967-.224,8.584-9.583,28.3-9.695,30.391-2.927,25.237-2.927,25.237l-5.882-.166-1.273-25.73,2.665-32.339,2.587-8.176Z" transform="translate(-1393.008 -1450.368)" fill="#13375b"/>
        <path id="Trazado_903232" data-name="Trazado 903232" d="M1496.012,1343.679a5.28,5.28,0,0,1-2.8.841,9.32,9.32,0,0,1-3.266-1.359l.266-.9s3.5-.51,3.588-.454S1496.012,1343.679,1496.012,1343.679Z" transform="translate(-1467 -1324.929)" fill="#f7a491"/>
        <path id="Trazado_903233" data-name="Trazado 903233" d="M1400.086,1405.508s-5.2,4.905-7.545,4.068-3.317-3.7,2.408-7.889C1400.073,1397.94,1400.086,1405.508,1400.086,1405.508Z" transform="translate(-1386.534 -1372.636)" fill="#f8a492"/>
        <path id="Trazado_903234" data-name="Trazado 903234" d="M1414.052,1369.277c.772-4.2,6.369-17.274,6.816-19.682.217-1.171,3.236-1.2,6.111-1.044,3.037.161,6.054.546,6.054.546a9.239,9.239,0,0,1,3.872,1.55c1.183,1.108,1.5,4.174-.2,9.993-1.342,4.594-3.006,7.116-3.83,10.462-.167,1.123-.31,2.23-.5,3.523-.3,5,0,11.612,0,11.612s-14.637,3.036-20.112-1.57C1412.265,1384.667,1413.261,1373.581,1414.052,1369.277Z" transform="translate(-1404.021 -1330.347)" fill="#50bfa5"/>
        <path id="Trazado_903235" data-name="Trazado 903235" d="M1401.99,1360.963s5.743,4.741,6.078,4.741c.216,0,8.2-5.87,10.038-10.693,1.018-2.666-1.118-5.649-3.557-5.639-1.691.007-2.443.443-5.795,3.269S1401.99,1360.963,1401.99,1360.963Z" transform="translate(-1395.692 -1331.066)" fill="#466eb6"/>
      </g>
      <path id="Trazado_903236" data-name="Trazado 903236" d="M1487.728,1304.64l2.155,1.181a1.164,1.164,0,0,1-1.53.418A1.139,1.139,0,0,1,1487.728,1304.64Z" transform="translate(-1465.099 -1294.8)" fill="#fff"/>
    </g>
    <g id="Grupo_1108188" data-name="Grupo 1108188" transform="translate(-17158.361 -8610.833)">
      <path id="Trazado_903237" data-name="Trazado 903237" d="M763.45,1407.888c-.169-.484,2.183-.874,2.308-1.363s-2.969-.527-3.08-.957c-.2-.792,3.391-.167,3.321-.537s-3.747-1.2-3.35-1.833,3.722,1.255,3.823.824-3.25-1.48-3.19-2.425c.032-.5,5.5,2.519,6.134,2.244s-.682-2.648-.177-3,1.954,4.825,2.3,5,7.735,4.388,10.364,5.059c.319-.88,4.083-6.33,4.365-7.163,1.475,1.05,2.988,1.193,4.51,2.15-1.1,2.764-6.164,10.435-6.932,10.782-2.339,1.057-11.386-6.446-13.192-7.73s-2.842-.869-4.064-1.275S763.619,1408.371,763.45,1407.888Z" transform="translate(-762.619 -1361.672)" fill="#f7a491"/>
      <path id="Trazado_903238" data-name="Trazado 903238" d="M928.9,1293.966a7.735,7.735,0,0,0-8.575-5.117,8.082,8.082,0,0,0-5.066-3.618c-4.045-.867-9.514.731-9.367,5.014-1.569,2.877-1.629,6.99.772,9.179-.835,3.868,2.788,7.609,7.5,7.473a8.327,8.327,0,0,0,7.873,4.073,18.882,18.882,0,0,1,2.072-.229c-.237-.043,4.992,3.965,9.423-2.2C938.049,1302.253,934.873,1294.638,928.9,1293.966Z" transform="translate(-877.872 -1267.771)" fill="#184655"/>
      <g id="Grupo_1108186" data-name="Grupo 1108186" transform="translate(15.635 60.985)">
        <path id="Trazado_903239" data-name="Trazado 903239" d="M880.776,1516.19a21.9,21.9,0,0,1-3.64,4.262,15.91,15.91,0,0,0-3.395,6.547c-.737,3.7-.124,21.969-.766,23.269-5.511,5.387-9.5,18.908-10.621,23.033a4.415,4.415,0,0,1-1.274,2.092h0l.245,4.661,2.738,2.522a13.971,13.971,0,0,1,.608-6.616s13.874-21.012,14.7-22.618c1.574-4.574,7.3-28.008,7.3-28.008l1.33-5.386S880.788,1516.194,880.776,1516.19Z" transform="translate(-858.082 -1516.19)" fill="#f7a491"/>
        <path id="Trazado_903240" data-name="Trazado 903240" d="M845.233,1830.2a16.564,16.564,0,0,1,1.881,3.711c.148,1.041,1.071,3.4,2.092,3.551.232.034,4.2.325,4.173-.171-.022-.379-1.459-.92-2.127-1.382-1.154-.8-2.944-7.285-2.944-7.285S845.308,1829.366,845.233,1830.2Z" transform="translate(-845.233 -1769.495)" fill="#355389"/>
      </g>
      <path id="Trazado_903241" data-name="Trazado 903241" d="M968.213,1226.393s5.806-10.443,7.219-12.663,5.092-11.041,5.224-11.389-2.534-4.522-1.939-4.665,1.253,2.2,1.888,1.921,2.489-5.922,2.851-5.642c.677.524-1,3.5-.639,3.688s1.454-3.275,2.162-3.173-1.348,3.174-1.149,3.445,2.333-2.623,2.719-2.006c.21.335-1.963,2.526-1.546,2.731s2.35-1.209,2.555-.8-1.787.966-2.383,2.066-1.61,1.575-2.031,3.611-1.051,9.4-3.209,13.081-6.9,11.813-6.9,11.813Z" transform="translate(-929.304 -1193.945)" fill="#f79c8d"/>
      <path id="Trazado_903242" data-name="Trazado 903242" d="M991.8,1541.621s8.936,19.108,8.993,22.467c.049,2.88-1.562,19.036-1.112,32.491.016.486.631,1.132,1.527,1.542.5.231,2.937,1.318,2.937,1.318l.334.871-8.381-.6-.119-2.288s-3.336-20.127-3-25.82c.053-.895.488-6.248.488-6.248L983.39,1545.9l6.339-8.33Z" transform="translate(-941.609 -1472.538)" fill="#f7a491"/>
      <g id="Grupo_1108187" data-name="Grupo 1108187" transform="translate(22.396 28.944)">
        <path id="Trazado_903243" data-name="Trazado 903243" d="M919.573,1680.257s0,0,0,0Z" transform="translate(-912.266 -1617.165)" fill="#f47458"/>
        <path id="Trazado_903244" data-name="Trazado 903244" d="M901.051,1356.042c.24-1.469,2.514-5.146,2.872-6.047,0,0-2.635-3.35-4.775-3.1,0,0-2.875,4.767-4.51,4.927s-7.385.41-8.393,1.021-5.285,7.178-5.285,7.178,3.843,3.925,5.389,3.917a16.212,16.212,0,0,1,1.149-1.972c.233.752,3.814,12.354,3.809,14.982l.028.022a7.52,7.52,0,0,0,10.813-1.39h0a59.757,59.757,0,0,1-.132-6.952C902.286,1363.408,903.344,1360.632,901.051,1356.042Z" transform="translate(-880.96 -1346.886)" fill="#3c8f7c"/>
        <path id="Trazado_903245" data-name="Trazado 903245" d="M946.855,1523.873l-17.54-25.34a17.258,17.258,0,0,1-3.261,1.043,33.831,33.831,0,0,1-7.58.325,1.819,1.819,0,0,1-.015.249c-.292,2.089-3.064,5.324-3.635,11.663a155.04,155.04,0,0,0-.036,20.516C926.449,1530.911,943.547,1527.345,946.855,1523.873Z" transform="translate(-908.127 -1469.833)" fill="#f7cc7f"/>
      </g>
      <path id="Trazado_903246" data-name="Trazado 903246" d="M937.6,1343.247a26.531,26.531,0,0,1,.493,4.633c-.123,1.311.47,5.534,3.134,5.548s.506-5.37.255-6.654a51.17,51.17,0,0,1-.31-5.26Z" transform="translate(-904.486 -1313.586)" fill="#f7a491"/>
      <path id="Trazado_903247" data-name="Trazado 903247" d="M941.229,1343.516c-.042-1.087-.055-1.994-.055-1.994l-3.572,1.733s.126.679.253,1.545A3.064,3.064,0,0,0,941.229,1343.516Z" transform="translate(-904.486 -1313.592)" fill="#f47458"/>
      <path id="Trazado_903248" data-name="Trazado 903248" d="M921.975,1300.34a4.563,4.563,0,0,0-1.88,2.519c-.5,1.724.07,6.171,3.625,7.244s5.1-2.449,4.364-5.2S925.759,1298.661,921.975,1300.34Z" transform="translate(-890.165 -1279.849)" fill="#f7a491"/>
      <path id="Trazado_903249" data-name="Trazado 903249" d="M958.871,1314.606c-.07.739-.461,1.3-.875,1.262s-.693-.676-.623-1.416.462-1.3.875-1.263S958.941,1313.868,958.871,1314.606Z" transform="translate(-920.507 -1290.621)" fill="#f7a491"/>
      <path id="Trazado_903250" data-name="Trazado 903250" d="M918.333,1332.514c.418.646.416,1.409,0,1.7s-1.1.008-1.516-.638-.416-1.409,0-1.7S917.915,1331.868,918.333,1332.514Z" transform="translate(-887.379 -1305.679)" fill="#f7a491"/>
      <path id="Trazado_903251" data-name="Trazado 903251" d="M1049.461,1857.87h10.588c.392-.035.487-.351.351-.546-.28-.4-1.515-.7-2.9-1.334-2.435.253-7.738-1.411-8.122-1.969C1049.152,1855.14,1049.243,1857.823,1049.461,1857.87Z" transform="translate(-995.001 -1729.101)" fill="#355389"/>
      <path id="Trazado_903252" data-name="Trazado 903252" d="M940.282,1336.763l2.273-.669a1.046,1.046,0,0,1-.785,1.218C940.562,1337.706,940.282,1336.763,940.282,1336.763Z" transform="translate(-906.659 -1309.192)" fill="#fff"/>
    </g>
    <g id="Grupo_1108190" data-name="Grupo 1108190" transform="translate(-17206.119 -8655.114)">
      <path id="Trazado_903253" data-name="Trazado 903253" d="M623.445,1062.44c.3.012,1.107.284,2.293,2.525,1.514,2.862,3.728,11.507,3.728,11.507l-6.607,2.46-.849-1.8-1.4-13.892S623.363,1062.438,623.445,1062.44Z" transform="translate(-599.727 -1043.047)" fill="#3c8f7c"/>
      <path id="Trazado_903254" data-name="Trazado 903254" d="M539.24,1055.86a40.368,40.368,0,0,1,8.733,1.247s1.594,13.7-1.435,24.108c-.678,2.33.561,9.659.561,9.659l-19.576-.258s2.319-17.718,1.446-20.58-.894-12.836-.894-12.836.134-.021,4.4-.758A44.065,44.065,0,0,1,539.24,1055.86Z" transform="translate(-524.255 -1037.712)" fill="#96d9c9"/>
      <path id="Trazado_903255" data-name="Trazado 903255" d="M553.547,1375.21s.433,5,1.229,6.383-.042,3.737-.084,4.06-1.676.784-4.275.508-2.556-.877-2.347-1.846,1.592-2.215,1.676-3.137a24.075,24.075,0,0,0-.8-4.245Z" transform="translate(-540.842 -1296.625)" fill="#f7a491"/>
      <path id="Trazado_903256" data-name="Trazado 903256" d="M543.46,1217.754s13.513-.75,16.531,1.077-2.144,10.8-2.144,10.8-9.4-.433-27.821.629c-4.362.252-4.737-11.372-3.922-12.334S543.46,1217.754,543.46,1217.754Z" transform="translate(-522.825 -1168.719)" fill="#355389"/>
      <path id="Trazado_903257" data-name="Trazado 903257" d="M549.411,1415.177c-2.676-.285-2.345-1.6-2.129-2.6a8.849,8.849,0,0,1,1.36-2.058,4.462,4.462,0,0,0,1.79.87c1.206.357,2.86-.349,3.915-.791a12.928,12.928,0,0,1,.358,3.451C554.661,1414.386,552.086,1415.463,549.411,1415.177Z" transform="translate(-540.16 -1325.254)" fill="#13375b"/>
      <path id="Trazado_903258" data-name="Trazado 903258" d="M523.07,1228c.54,4.085,3.213,24.423,3.213,24.423l-6.2.769s-7.627-26.546-7.236-30.606,3.246-4.4,3.246-4.4S521.641,1217.181,523.07,1228Z" transform="translate(-512.343 -1169.293)" fill="#466eb6"/>
      <path id="Trazado_903259" data-name="Trazado 903259" d="M516.231,1070.891c1.83-.687,2.725,15.8,2.972,22.593a79.708,79.708,0,0,0,10.3-.1c.662-.05,2.187-.608,2.845-.695a6.6,6.6,0,0,1,1.617-.076,30.515,30.515,0,0,1,3.789,1.706c.358.376,1.327,1.323,1.164,1.733s-1.864-1.142-1.864-1.142l-.831-.466c1.034,1.01,3.007,2.341,2.723,2.826s-2.057-.878-3.325-1.8c1.088.982,2.439,2.741,2.128,3.015-.28.246-1.817-1.789-3.46-2.375-.609-.217-1.216.384-1.695.457a3.442,3.442,0,0,1-1.241.069l-1.779-.5c-.606.055-.621.413-1.233.544-.71.151-1.876.31-2.781.531-5.21,1.273-6.947,1.864-8.542,1.863C512.185,1099.063,511.905,1072.513,516.231,1070.891Z" transform="translate(-512.625 -1049.882)" fill="#f7a491"/>
      <path id="Trazado_903260" data-name="Trazado 903260" d="M510.386,1079.772c-.343-6.953-.293-15.523,3.6-16.985,1.538-.577,4.249,2.892,3.761,17.126A29.364,29.364,0,0,1,510.386,1079.772Z" transform="translate(-510.254 -1043.28)" fill="#3c8f7c"/>
      <path id="Trazado_903261" data-name="Trazado 903261" d="M652.393,1397.8a3.379,3.379,0,0,0,.428,2.883c.969,1.147,5,2.273,5.525,2.9a1.741,1.741,0,0,1,.488,1.151l-11.3-.311.123-3.413.52-2.453Z" transform="translate(-621.552 -1314.94)" fill="#f7a491"/>
      <path id="Trazado_903262" data-name="Trazado 903262" d="M650.814,1414.946s-2.9,1.175-4.307.479-1.36-.888-1.766-.629-.551,3.459-.551,3.459l12.709.374c.884-.02,1.332-.672.613-1.229a10.346,10.346,0,0,0-1.386-.824A39.735,39.735,0,0,0,650.814,1414.946Z" transform="translate(-618.842 -1328.63)" fill="#13375b"/>
      <path id="Trazado_903263" data-name="Trazado 903263" d="M652.9,1222.145c.873-1.838,2.86-4.232,6.356-2.79,3.334,1.375,4.229,4.754,3.177,8.214s-7.977,23.8-8.218,26.6l-5.529.036s1.005-16.106,1.251-20A37.7,37.7,0,0,1,652.9,1222.145Z" transform="translate(-622.488 -1169.908)" fill="#466eb6"/>
      <path id="Trazado_903264" data-name="Trazado 903264" d="M564.185,1137H545.7a1.205,1.205,0,0,0-1.115.75l-5.691,13.927H528.707a.517.517,0,0,0-.516.517h0a.517.517,0,0,0,.516.517h29a2.024,2.024,0,0,0,1.847-1.2l5.73-12.808A1.209,1.209,0,0,0,564.185,1137Z" transform="translate(-524.796 -1103.497)" fill="#12353d"/>
      <path id="Trazado_903265" data-name="Trazado 903265" d="M657.223,1174.074a1.018,1.018,0,1,1-.763-1.331A1.088,1.088,0,0,1,657.223,1174.074Z" transform="translate(-627.785 -1132.461)" fill="#fff"/>
      <g id="Grupo_1108189" data-name="Grupo 1108189" transform="translate(9.09 0)">
        <path id="Trazado_903266" data-name="Trazado 903266" d="M568.572,961.385a14.173,14.173,0,0,1-1.635-.655,8.214,8.214,0,0,0-1.864-.7,4.5,4.5,0,0,0-3.782,1.009c-1.219,1.323-3.385.239-2.949,7.165.494,7.84,4.853,6.979,4.959,6.847s3.888-5.016,3.888-5.016,1.323,2.893,1.323,2.786S575.263,963.638,568.572,961.385Z" transform="translate(-558.284 -959.969)" fill="#0e2e35"/>
        <path id="Trazado_903267" data-name="Trazado 903267" d="M575.976,1023.809l.376,2.8s.843,4.036-.242,4.814-4.612-4.929-4.612-4.929l.373-7.1Z" transform="translate(-568.998 -1008.15)" fill="#f7a491"/>
        <path id="Trazado_903268" data-name="Trazado 903268" d="M572.832,1021.695a8.036,8.036,0,0,0,4.544,4.487l-.319-2.375-4.1-4.412Z" transform="translate(-570.079 -1008.148)" fill="#f47458"/>
        <path id="Trazado_903269" data-name="Trazado 903269" d="M573.689,978.375a3.736,3.736,0,0,1,4.3,3.778,28.386,28.386,0,0,1-.315,3.593c-.5,3.234-2.706,6.081-4.165,5.827s-5.13-3.044-4.483-7.646C569.427,981.086,571.277,978.765,573.689,978.375Z" transform="translate(-566.933 -974.853)" fill="#f7a491"/>
        <path id="Trazado_903270" data-name="Trazado 903270" d="M565.609,1004.464a1.088,1.088,0,1,1-.826-1.471A1.2,1.2,0,0,1,565.609,1004.464Z" transform="translate(-562.502 -994.84)" fill="#f7a491"/>
        <path id="Trazado_903271" data-name="Trazado 903271" d="M567.948,978.41s1.764.438,2.418-.7,3-3.583,5.971-2.568-2.618-2.468-2.856-2.468-3.094-.02-3.094-.02-2.2,1.811-2.281,2.01-.714,2.369-.714,2.369Z" transform="translate(-565.667 -970.257)" fill="#0e2e35"/>
      </g>
      <path id="Trazado_903272" data-name="Trazado 903272" d="M587.334,1028.06l3.209.614a1.429,1.429,0,0,1-1.725.98C587.088,1029.375,587.334,1028.06,587.334,1028.06Z" transform="translate(-572.737 -1015.174)" fill="#fff"/>
    </g>
    <path id="Trazado_903273" data-name="Trazado 903273" d="M618.083,1873.23H283.408a1.187,1.187,0,0,0-1.187,1.187h0a1.187,1.187,0,0,0,1.187,1.187H618.084a1.187,1.187,0,0,0,1.187-1.187h0A1.186,1.186,0,0,0,618.083,1873.23Z" transform="translate(-17531.498 -10355.508)" fill="#12353d"/>
    <path id="Trazado_903274" data-name="Trazado 903274" d="M1691.4,1387.468c-.169-.484,2.183-.874,2.308-1.363s-2.969-.527-3.08-.957c-.2-.792,3.391-.167,3.321-.537s-3.747-1.2-3.35-1.833,3.723,1.255,3.823.824-3.25-1.48-3.19-2.425c.032-.505,5.5,2.519,6.134,2.244s-.682-2.648-.177-3,1.954,4.825,2.3,5,7.735,4.389,10.364,5.059c.319-.88,1.009-2.068,1.291-2.9,1.475,1.049,2.57,1.576,4.092,2.533-1.1,2.763-2.672,5.789-3.44,6.136-2.339,1.057-11.386-6.447-13.192-7.73s-2.842-.869-4.064-1.275S1691.571,1387.953,1691.4,1387.468Z" transform="translate(-18673.313 -9955.95)" fill="#f7a491"/>
    <path id="Trazado_903275" data-name="Trazado 903275" d="M1799.447,1379c.7,2.878-3.029,9.293-3.029,9.293s-5.311-2.506-6.244-3.585c0,0,3.608-6.226,3.844-6.6a3.264,3.264,0,0,1,3.471-1.6C1798.25,1376.594,1799.447,1379,1799.447,1379Z" transform="translate(-18754.068 -9952.755)" fill="#eab765"/>
  </g>
</svg>
